<svg width="24" height="25" viewBox="0 0 24 25" fill="none" xmlns="http://www.w3.org/2000/svg">
<path d="M12 21.1252V13.1252M12 21.1252L5.83752 16.7235C5.42695 16.4302 5.22166 16.2836 5.11083 16.0682C5 15.8528 5 15.6006 5 15.096V8.12524M12 21.1252L18.1625 16.7235C18.573 16.4302 18.7783 16.2836 18.8892 16.0682C19 15.8528 19 15.6006 19 15.096V8.12524M12 13.1252L5 8.12524M12 13.1252L19 8.12524M5 8.12524L10.8375 3.95558C11.3989 3.55463 11.6795 3.35415 12 3.35415C12.3205 3.35415 12.6011 3.55463 13.1625 3.95558L19 8.12524" stroke="currentColor" stroke-linecap="round" stroke-linejoin="round"/>
</svg>
