<svg width="24" height="25" viewBox="0 0 24 25" fill="none" xmlns="http://www.w3.org/2000/svg">
<path d="M20.692 3.8802C20.5543 3.66875 20.3661 3.49494 20.1443 3.37447C19.9226 3.254 19.6744 3.19067 19.422 3.1902H15.012C14.7256 3.18885 14.4449 3.27023 14.2037 3.42456C13.9624 3.5789 13.7708 3.79962 13.652 4.0602L12 7.6102L10.34 4.0602C10.2212 3.79962 10.0296 3.5789 9.78836 3.42456C9.5471 3.27023 9.2664 3.18885 8.98001 3.1902H4.57201C4.31978 3.19131 4.07191 3.25601 3.85132 3.3783C3.63073 3.5006 3.44453 3.67654 3.30996 3.88987C3.17538 4.10319 3.09678 4.34701 3.0814 4.59876C3.06603 4.85052 3.11439 5.10209 3.22201 5.3302L6.95201 13.3502C6.65126 14.0483 6.49479 14.8001 6.49201 15.5602C6.49201 17.0189 7.07147 18.4178 8.10292 19.4493C9.13437 20.4807 10.5333 21.0602 11.992 21.0602C13.4507 21.0602 14.8496 20.4807 15.8811 19.4493C16.9125 18.4178 17.492 17.0189 17.492 15.5602C17.4941 14.8028 17.3374 14.0533 17.032 13.3602L20.782 5.3302C20.8888 5.1001 20.9365 4.84699 20.9208 4.5938C20.9051 4.34061 20.8264 4.09534 20.692 3.8802ZM4.12201 4.9102C4.08687 4.83222 4.07124 4.74687 4.07647 4.6615C4.08169 4.57613 4.10762 4.49331 4.15201 4.4202C4.19677 4.3494 4.25881 4.29114 4.33228 4.25091C4.40575 4.21068 4.48824 4.18979 4.57201 4.1902H8.98201C9.07831 4.18986 9.17271 4.21696 9.25418 4.26831C9.33564 4.31967 9.40079 4.39317 9.44201 4.4802L12.052 10.0602H11.992C11.1289 10.0617 10.2783 10.2661 9.50872 10.657C8.73919 11.0478 8.07234 11.6141 7.56201 12.3102L4.12201 4.9102ZM11.992 20.0602C11.102 20.0602 10.232 19.7963 9.49194 19.3018C8.75192 18.8073 8.17514 18.1045 7.83455 17.2823C7.49396 16.46 7.40484 15.5552 7.57847 14.6823C7.75211 13.8094 8.18069 13.0076 8.81003 12.3782C9.43936 11.7489 10.2412 11.3203 11.1141 11.1467C11.987 10.973 12.8918 11.0622 13.7141 11.4027C14.5363 11.7433 15.2392 12.3201 15.7336 13.0601C16.2281 13.8002 16.492 14.6702 16.492 15.5602C16.492 16.1512 16.3756 16.7363 16.1495 17.2823C15.9233 17.8282 15.5919 18.3243 15.174 18.7422C14.7561 19.16 14.26 19.4915 13.7141 19.7177C13.1681 19.9438 12.583 20.0602 11.992 20.0602ZM19.882 4.9102L16.422 12.3102C15.6433 11.2409 14.5025 10.491 13.212 10.2002L12.552 8.7802L14.552 4.4802C14.5932 4.39317 14.6584 4.31967 14.7398 4.26831C14.8213 4.21696 14.9157 4.18986 15.012 4.1902H19.422C19.506 4.18862 19.5889 4.20901 19.6626 4.24936C19.7363 4.2897 19.7981 4.34859 19.842 4.4202C19.8899 4.49171 19.9187 4.57425 19.9257 4.66001C19.9327 4.74576 19.9176 4.83188 19.882 4.9102Z" fill="currentColor"/>
<path d="M12.077 17.0053L13.101 17.5433C13.1298 17.5586 13.1623 17.5655 13.1949 17.5632C13.2274 17.5609 13.2586 17.5495 13.285 17.5304C13.3114 17.5112 13.3318 17.485 13.344 17.4547C13.3562 17.4245 13.3597 17.3914 13.354 17.3593L13.154 16.2193C13.1494 16.1914 13.1516 16.1628 13.1605 16.136C13.1693 16.1091 13.1846 16.0849 13.205 16.0653L14.033 15.2583C14.0569 15.2353 14.0738 15.2061 14.0817 15.174C14.0897 15.1418 14.0883 15.1081 14.0779 15.0767C14.0674 15.0452 14.0482 15.0174 14.0226 14.9965C13.9969 14.9755 13.9659 14.9623 13.933 14.9583L12.8 14.7943C12.7715 14.7896 12.7446 14.7781 12.7216 14.7607C12.6986 14.7432 12.6802 14.7204 12.668 14.6943L12.156 13.6573C12.1417 13.6279 12.1195 13.6032 12.0918 13.5858C12.0641 13.5685 12.0322 13.5593 11.9995 13.5593C11.9669 13.5593 11.9349 13.5685 11.9072 13.5858C11.8795 13.6032 11.8573 13.6279 11.843 13.6573L11.331 14.6943C11.3191 14.7205 11.301 14.7433 11.2781 14.7608C11.2552 14.7782 11.2284 14.7897 11.2 14.7943L10.055 14.9603C10.0221 14.9643 9.99107 14.9775 9.96542 14.9985C9.93978 15.0194 9.92061 15.0472 9.91013 15.0787C9.89966 15.1101 9.89832 15.1438 9.90626 15.176C9.9142 15.2081 9.93111 15.2373 9.955 15.2603L10.783 16.0673C10.8032 16.087 10.8183 16.1113 10.827 16.1381C10.8357 16.1649 10.8378 16.1935 10.833 16.2213L10.633 17.3613C10.6273 17.3934 10.6308 17.4265 10.643 17.4567C10.6552 17.487 10.6756 17.5132 10.702 17.5324C10.7284 17.5515 10.7596 17.5629 10.7921 17.5652C10.8247 17.5675 10.8572 17.5606 10.886 17.5453L11.91 17.0073C11.9354 16.9928 11.964 16.985 11.9932 16.9846C12.0225 16.9843 12.0513 16.9914 12.077 17.0053Z" fill="currentColor"/>
</svg>
