<svg width="24" height="25" viewBox="0 0 24 25" fill="none" xmlns="http://www.w3.org/2000/svg">
<path d="M9.14939 7.95655C8.57654 6.04703 10.0064 4.12524 12 4.12524V4.12524C13.9936 4.12524 15.4235 6.04703 14.8506 7.95655L13.2873 13.1674C13.2171 13.4014 13.182 13.5184 13.128 13.6147C12.989 13.8623 12.7513 14.0392 12.4743 14.1011C12.3664 14.1252 12.2443 14.1252 12 14.1252V14.1252C11.7557 14.1252 11.6336 14.1252 11.5257 14.1011C11.2487 14.0392 11.011 13.8623 10.872 13.6147C10.818 13.5184 10.7829 13.4014 10.7127 13.1674L9.14939 7.95655Z" stroke="currentColor" stroke-linecap="round" stroke-linejoin="round"/>
<circle cx="12" cy="19.1252" r="2" stroke="currentColor" stroke-linecap="round" stroke-linejoin="round"/>
</svg>
