<svg xmlns="http://www.w3.org/2000/svg" width="27" height="24" viewBox="0 0 27 24" fill="none">
  <path d="M8 19.2311C8 21.3553 6.20914 23.0773 4 23.0773C1.79086 23.0773 0 21.3553 0 19.2311C0 17.1069 1.79086 15.3849 4 15.3849C6.20914 15.3849 8 17.1069 8 19.2311Z" fill="currentColor"/>
  <path d="M27 19.2311C27 21.3553 25.2091 23.0773 23 23.0773C20.7909 23.0773 19 21.3553 19 19.2311C19 17.1069 20.7909 15.3849 23 15.3849C25.2091 15.3849 27 17.1069 27 19.2311Z" fill="currentColor"/>
  <path d="M18 4.327C18 6.71674 15.9853 8.654 13.5 8.654C11.0147 8.654 9 6.71674 9 4.327C9 1.93726 11.0147 0 13.5 0C15.9853 0 18 1.93726 18 4.327Z" fill="currentColor"/>
</svg>