<svg width="24" height="24" viewBox="0 0 24 24" fill="none" xmlns="http://www.w3.org/2000/svg">
<path d="M6.44782 8.96942C6.76217 6.14032 9.15347 4 12 4C14.8465 4 17.2378 6.14032 17.5521 8.96942L17.8039 11.2356C17.8072 11.2645 17.8088 11.279 17.8104 11.2933C17.9393 12.4169 18.3051 13.5005 18.8835 14.4725C18.8909 14.4849 18.8984 14.4973 18.9133 14.5222L19.4914 15.4856C20.0159 16.3599 20.2782 16.797 20.2216 17.1559C20.1839 17.3946 20.061 17.6117 19.8756 17.7668C19.5971 18 19.0873 18 18.0678 18H5.93221C4.91267 18 4.40289 18 4.12432 17.7668C3.93896 17.6117 3.81607 17.3946 3.77839 17.1559C3.72177 16.797 3.98405 16.3599 4.5086 15.4856L5.08664 14.5222C5.10159 14.4973 5.10907 14.4849 5.11643 14.4725C5.69486 13.5005 6.06062 12.4169 6.18957 11.2933C6.19121 11.279 6.19281 11.2645 6.19602 11.2356L6.44782 8.96942Z" stroke="currentColor"/>
<path d="M9.10222 18.4059C9.27315 19.1501 9.64978 19.8077 10.1737 20.2767C10.6976 20.7458 11.3396 21 12 21C12.6604 21 13.3024 20.7458 13.8263 20.2767C14.3502 19.8077 14.7269 19.1501 14.8978 18.4059" stroke="currentColor" stroke-linecap="round"/>
<path d="M12 11L12 15" stroke="currentColor" stroke-linecap="square"/>
<path d="M12 8L12 7" stroke="currentColor" stroke-linecap="square"/>
</svg>
