<svg width="24" height="25" viewBox="0 0 24 25" fill="none" xmlns="http://www.w3.org/2000/svg">
<path d="M20 12.1252V17.1252C20 19.0109 20 19.9537 19.4142 20.5395C18.8284 21.1252 17.8856 21.1252 16 21.1252H6.5C5.11929 21.1252 4 20.006 4 18.6252V18.6252C4 17.2445 5.11929 16.1252 6.5 16.1252H16C17.8856 16.1252 18.8284 16.1252 19.4142 15.5395C20 14.9537 20 14.0109 20 12.1252V7.12524C20 5.23963 20 4.29682 19.4142 3.71103C18.8284 3.12524 17.8856 3.12524 16 3.12524H8C6.11438 3.12524 5.17157 3.12524 4.58579 3.71103C4 4.29682 4 5.23963 4 7.12524V18.6252" stroke="currentColor" stroke-linecap="round" stroke-linejoin="round"/>
<path d="M9 10.1252L10.2929 11.4181C10.6834 11.8087 11.3166 11.8087 11.7071 11.4181L15 8.12524" stroke="currentColor" stroke-linecap="round" stroke-linejoin="round"/>
</svg>
