<svg width="24" height="25" viewBox="0 0 24 25" fill="none" xmlns="http://www.w3.org/2000/svg">
<path fill-rule="evenodd" clip-rule="evenodd" d="M6.49001 6.66344L3.41901 10.9634C2.92201 11.6584 2.92201 12.5934 3.41901 13.2884L6.49001 17.5884C6.86501 18.1134 7.47101 18.4254 8.11701 18.4254H19C20.105 18.4254 21 17.5304 21 16.4254V7.82544C21 6.72044 20.105 5.82544 19 5.82544H8.11701C7.47101 5.82544 6.86501 6.13744 6.49001 6.66344Z" stroke="currentColor" stroke-linecap="round" stroke-linejoin="round"/>
<path d="M10.5728 10.8526C11.2757 11.5556 11.2757 12.6953 10.5728 13.3982C9.86984 14.1012 8.73015 14.1012 8.02721 13.3982C7.32426 12.6953 7.32426 11.5556 8.02721 10.8526C8.73015 10.1497 9.86985 10.1497 10.5728 10.8526" stroke="currentColor" stroke-linecap="round" stroke-linejoin="round"/>
</svg>
