<svg width="24" height="25" viewBox="0 0 24 25" fill="none" xmlns="http://www.w3.org/2000/svg">
<path d="M8 4.58629C8 4.15689 8 3.94219 8.06485 3.771C8.16633 3.50309 8.37785 3.29158 8.64576 3.19009C8.81694 3.12524 9.03164 3.12524 9.46105 3.12524H14.539C14.9684 3.12524 15.1831 3.12524 15.3542 3.19009C15.6222 3.29158 15.8337 3.50309 15.9352 3.771C16 3.94219 16 4.15689 16 4.58629V4.58629C16 5.69281 16 6.24606 16.0734 6.78411C16.1878 7.62319 16.4348 8.43879 16.805 9.20043C17.0424 9.68882 17.3493 10.1492 17.9631 11.0698L19.3617 13.1678C19.6728 13.6344 19.4277 14.2683 18.8837 14.4043V14.4043C14.3641 15.5342 9.6359 15.5342 5.11634 14.4043V14.4043C4.57231 14.2683 4.32723 13.6344 4.63829 13.1678L6.03694 11.0698C6.65073 10.1492 6.95762 9.68882 7.19501 9.20043C7.56524 8.43879 7.81218 7.62319 7.92662 6.78411C8 6.24606 8 5.69281 8 4.58629V4.58629Z" stroke="currentColor" stroke-linecap="round" stroke-linejoin="round"/>
<path d="M12 20.1252L12 16.1252" stroke="currentColor" stroke-linecap="round" stroke-linejoin="round"/>
<path d="M6 20.1252H18" stroke="currentColor" stroke-linecap="round" stroke-linejoin="round"/>
</svg>
