<svg width="24" height="25" viewBox="0 0 24 25" fill="none" xmlns="http://www.w3.org/2000/svg">
<path d="M6 11.7821C6 10.9646 6 10.5558 6.15224 10.1883C6.30448 9.82076 6.59351 9.53173 7.17157 8.95367L7.82843 8.29682C8.40649 7.71876 8.69552 7.42973 9.06306 7.27749C9.4306 7.12524 9.83935 7.12524 10.6569 7.12524H13.3431C14.1606 7.12524 14.5694 7.12524 14.9369 7.27749C15.3045 7.42973 15.5935 7.71876 16.1716 8.29682L16.8284 8.95367C17.4065 9.53173 17.6955 9.82076 17.8478 10.1883C18 10.5558 18 10.9646 18 11.7821V16.1252C18 18.0109 18 18.9537 17.4142 19.5395C16.8284 20.1252 15.8856 20.1252 14 20.1252H10C8.11438 20.1252 7.17157 20.1252 6.58579 19.5395C6 18.9537 6 18.0109 6 16.1252V11.7821Z" stroke="currentColor" stroke-linecap="round" stroke-linejoin="round"/>
<path d="M9 7.12524L6.13868 5.21769C6.0547 5.16171 5.9453 5.16171 5.86132 5.21769L3.25373 6.95609C3.12247 7.0436 3.10408 7.22932 3.21563 7.34088L5.79289 9.91814C5.9255 10.0507 6 10.2306 6 10.4181V10.4181C6 10.8087 6.31658 11.1252 6.70711 11.1252H17.2929C17.6834 11.1252 18 10.8087 18 10.4181V10.4181C18 10.2306 18.0745 10.0507 18.2071 9.91814L20.7844 7.34088C20.8959 7.22932 20.8775 7.0436 20.7463 6.95609L18.1387 5.21769C18.0547 5.16171 17.9453 5.16171 17.8613 5.21769L15 7.12524" stroke="currentColor" stroke-linecap="round" stroke-linejoin="round"/>
</svg>
