<svg width="24" height="25" viewBox="0 0 24 25" fill="none" xmlns="http://www.w3.org/2000/svg">
<path fill-rule="evenodd" clip-rule="evenodd" d="M20 21.1252L15 21.1252C14.448 21.1252 14 20.6772 14 20.1252L14 15.1252C14 14.5732 14.448 14.1252 15 14.1252L20 14.1252C20.552 14.1252 21 14.5732 21 15.1252L21 20.1252C21 20.6772 20.552 21.1252 20 21.1252Z" stroke="currentColor" stroke-linecap="round" stroke-linejoin="round"/>
<path fill-rule="evenodd" clip-rule="evenodd" d="M9 21.1252L4 21.1252C3.448 21.1252 3 20.6772 3 20.1252L3 15.1252C3 14.5732 3.448 14.1252 4 14.1252L9 14.1252C9.552 14.1252 10 14.5732 10 15.1252L10 20.1252C10 20.6772 9.552 21.1252 9 21.1252Z" stroke="currentColor" stroke-linecap="round" stroke-linejoin="round"/>
<path d="M7 8.12524L5 10.1252L3 8.12524" stroke="currentColor" stroke-linecap="round" stroke-linejoin="round"/>
<path d="M5 10.1252L5 4.12524C5 3.57324 5.448 3.12524 6 3.12524L10 3.12524" stroke="currentColor" stroke-linecap="round" stroke-linejoin="round"/>
<path fill-rule="evenodd" clip-rule="evenodd" d="M20 10.1252L15 10.1252C14.448 10.1252 14 9.67724 14 9.12524L14 4.12524C14 3.57324 14.448 3.12524 15 3.12524L20 3.12524C20.552 3.12524 21 3.57324 21 4.12524L21 9.12524C21 9.67724 20.552 10.1252 20 10.1252Z" stroke="currentColor" stroke-linecap="round" stroke-linejoin="round"/>
</svg>
