<svg width="16" height="21" viewBox="0 0 16 21" fill="none" xmlns="http://www.w3.org/2000/svg">
<path d="M7.47507 18.1061C7.33954 18.1061 7.27178 18.1061 7.21454 18.1028C6.20015 18.0446 5.3906 17.2351 5.3324 16.2207C5.32911 16.1634 5.32911 16.0957 5.32911 15.9601V15.9601C5.32911 15.6709 5.32911 15.5263 5.32789 15.4835C5.29677 14.3935 5.26277 14.3111 4.51649 13.516C4.48718 13.4848 4.21122 13.2071 3.6593 12.6518C2.52603 11.5114 1.41699 9.68732 1.41699 7.27943C1.41699 2.73303 5.54753 1.1721 8.09061 1.12629V1.12524C8.10969 1.12524 8.12886 1.12533 8.14814 1.12551C8.16741 1.12533 8.18659 1.12524 8.20567 1.12524V1.12629C10.7487 1.1721 14.8793 2.73303 14.8793 7.27943C14.8793 9.68732 13.7702 11.5114 12.637 12.6518C12.0851 13.2071 11.8091 13.4848 11.7798 13.516C11.0335 14.3111 10.9995 14.3935 10.9684 15.4835C10.9672 15.5263 10.9672 15.6709 10.9672 15.9601V15.9601C10.9672 16.0957 10.9672 16.1634 10.9639 16.2207C10.9057 17.2351 10.0961 18.0446 9.08174 18.1028C9.0245 18.1061 8.95674 18.1061 8.82121 18.1061H7.47507Z" stroke="currentColor"/>
<path d="M6.80188 18.1072V18.7803C6.80188 19.5238 7.40461 20.1265 8.14811 20.1265V20.1265C8.89161 20.1265 9.49434 19.5238 9.49434 18.7803V18.1072" stroke="currentColor"/>
<path d="M5.23132 14.5872H10.9528" stroke="currentColor"/>
</svg>
