<svg width="24" height="25" viewBox="0 0 24 25" fill="none" xmlns="http://www.w3.org/2000/svg">
<path fill-rule="evenodd" clip-rule="evenodd" d="M6.96342 5.62524H17.0366C17.9483 5.62523 18.6832 5.62522 19.2612 5.70293C19.8612 5.7836 20.3665 5.9562 20.7678 6.35748C21.169 6.75876 21.3416 7.26401 21.4223 7.86408C21.5 8.44205 21.5 9.17693 21.5 10.0886V17.1618C21.5 18.0736 21.5 18.8084 21.4223 19.3864C21.3416 19.9865 21.169 20.4917 20.7678 20.893C20.3665 21.2943 19.8612 21.4669 19.2612 21.5476C18.6832 21.6253 17.9483 21.6253 17.0366 21.6252H6.96343C6.0517 21.6253 5.31681 21.6253 4.73883 21.5476C4.13876 21.4669 3.63351 21.2943 3.23223 20.893C2.83096 20.4917 2.65836 19.9865 2.57768 19.3864C2.49998 18.8084 2.49999 18.0736 2.5 17.1618V10.0887C2.49999 9.17694 2.49998 8.44206 2.57768 7.86408C2.65836 7.26401 2.83096 6.75876 3.23223 6.35748C3.63351 5.9562 4.13876 5.7836 4.73883 5.70293C5.31681 5.62522 6.05169 5.62523 6.96342 5.62524ZM4.87208 6.69401C4.3829 6.75978 4.12385 6.88008 3.93934 7.06458C3.75483 7.24909 3.63453 7.50814 3.56877 7.99732C3.50106 8.50089 3.5 9.1683 3.5 10.1252V17.1252C3.5 18.0822 3.50106 18.7496 3.56877 19.2532C3.63453 19.7423 3.75483 20.0014 3.93934 20.1859C4.12385 20.3704 4.3829 20.4907 4.87208 20.5565C5.37565 20.6242 6.04306 20.6252 7 20.6252H17C17.9569 20.6252 18.6244 20.6242 19.1279 20.5565C19.6171 20.4907 19.8762 20.3704 20.0607 20.1859C20.2452 20.0014 20.3655 19.7423 20.4312 19.2532C20.4989 18.7496 20.5 18.0822 20.5 17.1252V10.1252C20.5 9.1683 20.4989 8.50089 20.4312 7.99733C20.3655 7.50814 20.2452 7.24909 20.0607 7.06458C19.8762 6.88008 19.6171 6.75978 19.1279 6.69401C18.6244 6.62631 17.9569 6.62524 17 6.62524H7C6.04306 6.62524 5.37565 6.62631 4.87208 6.69401Z" fill="currentColor"/>
<path fill-rule="evenodd" clip-rule="evenodd" d="M2.5 11.1252C2.5 10.8491 2.72386 10.6252 3 10.6252L21 10.6252C21.2761 10.6252 21.5 10.8491 21.5 11.1252C21.5 11.4014 21.2761 11.6252 21 11.6252L3 11.6252C2.72386 11.6252 2.5 11.4014 2.5 11.1252Z" fill="currentColor"/>
<path fill-rule="evenodd" clip-rule="evenodd" d="M8.5 16.1252C8.5 15.8491 8.72386 15.6252 9 15.6252H15C15.2761 15.6252 15.5 15.8491 15.5 16.1252C15.5 16.4014 15.2761 16.6252 15 16.6252H9C8.72386 16.6252 8.5 16.4014 8.5 16.1252Z" fill="currentColor"/>
<path fill-rule="evenodd" clip-rule="evenodd" d="M8 2.62524C8.27614 2.62524 8.5 2.8491 8.5 3.12524L8.5 7.12524C8.5 7.40139 8.27614 7.62524 8 7.62524C7.72386 7.62524 7.5 7.40139 7.5 7.12524L7.5 3.12524C7.5 2.8491 7.72386 2.62524 8 2.62524Z" fill="currentColor"/>
<path fill-rule="evenodd" clip-rule="evenodd" d="M16 2.62524C16.2761 2.62524 16.5 2.8491 16.5 3.12524L16.5 7.12524C16.5 7.40139 16.2761 7.62524 16 7.62524C15.7239 7.62524 15.5 7.40139 15.5 7.12524L15.5 3.12524C15.5 2.8491 15.7239 2.62524 16 2.62524Z" fill="currentColor"/>
</svg>
