<svg width="25" height="24" viewBox="0 0 25 24" fill="none" xmlns="http://www.w3.org/2000/svg">
<path d="M10.9873 11L14.9873 15L10.9873 19" stroke="currentColor" stroke-linecap="round" stroke-linejoin="round"/>
<path d="M10.6579 6.15333C8.42353 6.45269 6.50544 7.17072 5.30174 8.15841C4.09805 9.1461 3.70118 10.3276 4.1935 11.4577C4.68582 12.5878 6.02952 13.5798 7.94574 14.2277C9.86196 14.8756 12.2036 15.1297 14.4845 14.9373" stroke="currentColor" stroke-linecap="round" stroke-linejoin="round"/>
<path d="M20.7815 12.75C21.4718 12.1522 21.8777 11.4831 21.968 10.7943C22.0583 10.1055 21.8305 9.41563 21.3022 8.77792C20.7739 8.14022 19.9593 7.57183 18.9214 7.11672C17.8835 6.66161 16.6501 6.33198 15.3167 6.15333" stroke="currentColor" stroke-linecap="round" stroke-linejoin="round"/>
</svg>
