<svg width="24" height="25" viewBox="0 0 24 25" fill="none" xmlns="http://www.w3.org/2000/svg">
<path d="M14.1651 10.8751C14.2586 11.0369 14.3512 11.3572 14.423 11.8335C14.4923 12.2929 14.5349 12.8416 14.5575 13.418C14.6022 14.555 14.5703 15.7615 14.5391 16.5229C13.8641 16.1692 12.8034 15.5936 11.841 14.9864C11.3532 14.6786 10.8993 14.3673 10.5361 14.0777C10.1594 13.7773 9.92842 13.5369 9.835 13.3751C9.74159 13.2133 9.64889 12.893 9.57709 12.4167C9.50787 11.9573 9.46526 11.4086 9.44261 10.8322C9.39792 9.69478 9.42935 8.48785 9.46052 7.72648C10.1355 8.08018 11.1964 8.65642 12.1591 9.26382C12.647 9.57165 13.1009 9.8829 13.4641 10.1725C13.8407 10.4729 14.0717 10.7133 14.1651 10.8751Z" stroke="currentColor" stroke-linecap="round" stroke-linejoin="round"/>
<circle cx="12" cy="12.1252" r="9" stroke="currentColor" stroke-linecap="round" stroke-linejoin="round"/>
</svg>
