<svg width="20" height="20" viewBox="0 0 20 20" fill="none" xmlns="http://www.w3.org/2000/svg">
<path d="M9.56583 0.885327C9.75776 0.549322 10.2422 0.549322 10.4342 0.885326L12.0131 3.6495C12.1343 3.86172 12.3912 3.95521 12.6204 3.87056L15.6067 2.76798C15.9697 2.63396 16.3408 2.94537 16.2719 3.32613L15.7046 6.45852C15.6611 6.699 15.7978 6.93572 16.0278 7.01825L19.0241 8.09318C19.3884 8.22385 19.4725 8.70096 19.1749 8.94832L16.7269 10.9832C16.539 11.1395 16.4915 11.4087 16.6147 11.6197L18.2191 14.3692C18.4141 14.7034 18.1719 15.123 17.7849 15.1212L14.6016 15.1065C14.3572 15.1054 14.1478 15.2811 14.1065 15.5219L13.5682 18.6594C13.5028 19.0408 13.0475 19.2065 12.7523 18.9564L10.3232 16.899C10.1367 16.741 9.86333 16.741 9.67684 16.899L7.24774 18.9564C6.95247 19.2065 6.49721 19.0408 6.43178 18.6594L5.89349 15.5219C5.85217 15.2811 5.64277 15.1054 5.39838 15.1065L2.21508 15.1212C1.82812 15.123 1.58589 14.7034 1.78091 14.3692L3.3853 11.6197C3.50848 11.4087 3.46101 11.1395 3.27307 10.9832L0.825064 8.94832C0.527492 8.70096 0.611619 8.22385 0.975847 8.09318L3.97221 7.01825C4.20224 6.93573 4.33892 6.699 4.29537 6.45852L3.72811 3.32613C3.65915 2.94537 4.03028 2.63396 4.39328 2.76798L7.37958 3.87056C7.60884 3.95521 7.8657 3.86172 7.98692 3.6495L9.56583 0.885327Z" fill="currentColor"/>
<path d="M9.99998 11.0251V6.02515" stroke="white" stroke-linecap="round"/>
<path d="M9.99998 13.5251V13.0251" stroke="white" stroke-linecap="round"/>
</svg>
