<svg width="25" height="24" viewBox="0 0 25 24" fill="none" xmlns="http://www.w3.org/2000/svg">
<path fill-rule="evenodd" clip-rule="evenodd" d="M9.4873 3C9.4873 2.72386 9.71116 2.5 9.9873 2.5H12.9873C18.234 2.5 22.4873 6.75329 22.4873 12C22.4873 17.2467 18.234 21.5 12.9873 21.5C7.7406 21.5 3.4873 17.2467 3.4873 12V9C3.4873 8.72386 3.71116 8.5 3.9873 8.5C4.26345 8.5 4.4873 8.72386 4.4873 9V12C4.4873 16.6944 8.29288 20.5 12.9873 20.5C17.6817 20.5 21.4873 16.6944 21.4873 12C21.4873 7.30558 17.6817 3.5 12.9873 3.5H9.9873C9.71116 3.5 9.4873 3.27614 9.4873 3Z" fill="currentColor"/>
<path fill-rule="evenodd" clip-rule="evenodd" d="M16.4873 15.5H8.9873V14.5H14.7802L7.63375 7.35355C7.43849 7.15829 7.43849 6.84171 7.63375 6.64645C7.82901 6.45118 8.1456 6.45118 8.34086 6.64645L15.4873 13.7929V8H16.4873V15.5Z" fill="currentColor"/>
</svg>
