<svg width="24" height="25" viewBox="0 0 24 25" fill="none" xmlns="http://www.w3.org/2000/svg">
<path d="M9 21.1252H15" stroke="currentColor" stroke-linecap="round" stroke-linejoin="round"/>
<path d="M12 21.1252V17.1252" stroke="currentColor" stroke-linecap="round" stroke-linejoin="round"/>
<path d="M6.28613 8.62524H17.7139C17.86 8.62524 17.9493 8.62622 18.0068 8.62817L18.1113 8.63794C18.2751 8.67534 18.4076 8.79167 18.4668 8.94556L18.4873 9.01392C18.4967 9.055 18.5 9.11832 18.5 9.41138V10.1252C18.5 10.8335 18.4992 11.249 18.4795 11.5598L18.4531 11.843C18.1383 14.2341 16.3055 16.1317 13.9473 16.5432L13.7178 16.5784C13.3686 16.6243 12.9446 16.6252 12 16.6252C11.2918 16.6252 10.8762 16.6244 10.5654 16.6047L10.2822 16.5784C7.89117 16.2636 5.99352 14.4308 5.58203 12.0725L5.54688 11.843C5.50092 11.4938 5.5 11.0698 5.5 10.1252V9.41138C5.5 9.26521 5.50098 9.1759 5.50293 9.11841L5.5127 9.01392C5.5501 8.85019 5.66643 8.71765 5.82031 8.65845L5.88867 8.63794C5.92975 8.62856 5.99307 8.62524 6.28613 8.62524Z" stroke="currentColor" stroke-linecap="round" stroke-linejoin="round"/>
<path d="M12 12.1252L13.7305 6.06844C13.8628 5.60531 13.929 5.37374 14.0845 5.2015C14.24 5.02926 14.4636 4.93982 14.9108 4.76093L19 3.12524" stroke="currentColor" stroke-linecap="round" stroke-linejoin="round"/>
</svg>
