<svg width="24" height="24" viewBox="0 0 24 24" fill="none" xmlns="http://www.w3.org/2000/svg">
<path fill-rule="evenodd" clip-rule="evenodd" d="M10.293 16.7068L16.707 10.2928C17.098 9.90176 17.098 9.26876 16.707 8.87876L15.121 7.29276C14.73 6.90176 14.097 6.90176 13.707 7.29276L7.293 13.7068C7.105 13.8948 7 14.1488 7 14.4138V16.9998H9.586C9.851 16.9998 10.105 16.8948 10.293 16.7068Z" stroke="currentColor" stroke-linecap="round" stroke-linejoin="round"/>
<path fill-rule="evenodd" clip-rule="evenodd" d="M3 18V6C3 4.343 4.343 3 6 3H18C19.657 3 21 4.343 21 6V18C21 19.657 19.657 21 18 21H6C4.343 21 3 19.657 3 18Z" stroke="currentColor" stroke-linecap="round" stroke-linejoin="round"/>
</svg>
