<svg width="15" height="15" viewBox="0 0 15 15" fill="none"  xmlns="http://www.w3.org/2000/svg">
<path fill-rule="evenodd" clip-rule="evenodd" d="M9.47557 2L8.76846 1.29289C8.78129 1.28006 8.79412 1.26723 8.80692 1.25442C9.10673 0.954497 9.39809 0.66302 9.67076 0.454978C9.97816 0.220443 10.3761 0 10.8898 0C11.4034 0 11.8014 0.220444 12.1088 0.454978C12.3815 0.663022 12.6728 0.954501 12.9726 1.25443C12.9854 1.26724 12.9983 1.28006 13.0111 1.29289L13.1827 1.46447C13.1955 1.4773 13.2083 1.49012 13.2211 1.50292C13.5211 1.80273 13.8125 2.09409 14.0206 2.36677C14.2551 2.67416 14.4756 3.07212 14.4756 3.58579C14.4756 4.09945 14.2551 4.49741 14.0206 4.80481C13.8125 5.07747 13.5211 5.36883 13.2212 5.66863C13.2083 5.68144 13.1955 5.69426 13.1827 5.70711L5.9886 12.9012C5.97552 12.9143 5.96213 12.9277 5.9484 12.9415C5.79714 13.0937 5.60569 13.2863 5.36392 13.4232C5.12216 13.5601 4.85849 13.6252 4.65019 13.6766C4.63128 13.6812 4.61282 13.6858 4.59489 13.6903L1.94076 14.3538C1.92956 14.3566 1.91793 14.3595 1.90592 14.3626C1.75944 14.3994 1.55653 14.4504 1.37692 14.468C1.17024 14.4882 0.71827 14.4949 0.349488 14.1261C-0.0192907 13.7573 -0.0126067 13.3053 0.00761309 13.0986C0.025183 12.919 0.0761844 12.7161 0.113004 12.5696C0.116023 12.5576 0.118947 12.546 0.121749 12.5348L0.785279 9.88068C0.789764 9.86274 0.794318 9.84429 0.798985 9.82537C0.85039 9.61707 0.915457 9.3534 1.05234 9.11164C1.18923 8.86987 1.38184 8.67842 1.53402 8.52717C1.54783 8.51344 1.56131 8.50004 1.57439 8.48697L8.76846 1.29289L9.47557 2ZM4.35235 12.7201C4.61941 12.6534 4.75294 12.62 4.87123 12.553C4.98952 12.486 5.08684 12.3887 5.28149 12.1941L12.4756 5C13.1422 4.33334 13.4756 4 13.4756 3.58579C13.4756 3.17157 13.1422 2.83824 12.4756 2.17157L12.304 2C11.6373 1.33333 11.304 1 10.8898 1C10.4756 1 10.1422 1.33333 9.47557 2L2.28149 9.19407C2.08684 9.38872 1.98952 9.48605 1.92254 9.60434C1.85557 9.72263 1.82219 9.85616 1.75542 10.1232L1.09189 12.7773C1.00163 13.1384 0.956505 13.3189 1.05659 13.419C1.15668 13.5191 1.3372 13.4739 1.69821 13.3837L1.69823 13.3837L4.35235 12.7201Z" fill="currentColor"/>
<path fill-rule="evenodd" clip-rule="evenodd" d="M9.24333 1.23218L13.2433 5.23218L12.5362 5.93928L8.53622 1.93928L9.24333 1.23218Z" fill="currentColor"/>
</svg>
