<svg width="24" height="24" viewBox="0 0 24 24" fill="none" xmlns="http://www.w3.org/2000/svg">
<path d="M18 13V19C18 20.105 17.105 21 16 21H5C3.895 21 3 20.105 3 19V8C3 6.895 3.895 6 5 6H9" stroke="currentColor" stroke-linecap="round" stroke-linejoin="round"/>
<path fill-rule="evenodd" clip-rule="evenodd" d="M7 16L9.62505 15.6758C9.80923 15.6533 9.9809 15.5692 10.1126 15.4383L16.4719 9.07902C17.176 8.37484 17.176 7.23315 16.4719 6.52814V6.52814C15.7677 5.82395 14.626 5.82395 13.921 6.52814L7.62085 12.8283C7.49334 12.9558 7.41084 13.1208 7.38501 13.2999L7 16Z" stroke="currentColor" stroke-linecap="round" stroke-linejoin="round"/>
</svg>
