<svg width="25" height="24" viewBox="0 0 25 24" fill="none" xmlns="http://www.w3.org/2000/svg">
<circle cx="12.9874" cy="12" r="9.5" stroke="currentColor" stroke-linecap="round"/>
<path d="M9.196 16.622C9.61787 16.2567 10.1949 15.9763 10.8488 15.7876C11.5065 15.5977 12.2434 15.5 12.9874 15.5C13.7314 15.5 14.4683 15.5977 15.1261 15.7876C15.7799 15.9763 16.357 16.2567 16.7789 16.622" stroke="currentColor" stroke-linecap="round"/>
<path d="M10.4874 9C10.7277 9 10.8478 9 10.9205 9.12245C10.9931 9.2449 10.9504 9.32308 10.865 9.47943C10.8197 9.56233 10.7625 9.63911 10.6945 9.70711C10.507 9.89464 10.2526 10 9.98743 10C9.72221 10 9.46786 9.89464 9.28032 9.70711C9.21232 9.63911 9.15513 9.56233 9.10985 9.47944C9.02443 9.32308 8.98173 9.2449 9.05437 9.12245C9.12701 9 9.24715 9 9.48743 9L9.98743 9H10.4874Z" fill="currentColor" stroke="currentColor" stroke-linecap="round"/>
<path d="M16.4874 9C16.7277 9 16.8478 9 16.9205 9.12245C16.9931 9.2449 16.9504 9.32308 16.865 9.47943C16.8197 9.56233 16.7625 9.63911 16.6945 9.70711C16.507 9.89464 16.2526 10 15.9874 10C15.7222 10 15.4679 9.89464 15.2803 9.70711C15.2123 9.63911 15.1551 9.56233 15.1098 9.47944C15.0244 9.32308 14.9817 9.2449 15.0544 9.12245C15.127 9 15.2471 9 15.4874 9L15.9874 9H16.4874Z" fill="currentColor" stroke="currentColor" stroke-linecap="round"/>
</svg>
