<svg width="25" height="24" viewBox="0 0 25 24" fill="none" xmlns="http://www.w3.org/2000/svg">
<circle cx="12.9874" cy="12" r="9.5" stroke="currentColor" stroke-linecap="round"/>
<path d="M9.41752 16.7613C9.802 16.6781 10.3336 16.6129 10.9514 16.5683C11.5731 16.5234 12.275 16.5 12.9874 16.5C13.6998 16.5 14.4017 16.5234 15.0234 16.5683C15.6412 16.6129 16.1729 16.6781 16.5573 16.7613" stroke="currentColor" stroke-linecap="round"/>
<path d="M10.4874 10C10.7277 10 10.8478 10 10.9205 10.1225C10.9931 10.2449 10.9504 10.3231 10.865 10.4794C10.8197 10.5623 10.7625 10.6391 10.6945 10.7071C10.507 10.8946 10.2526 11 9.98743 11C9.72221 11 9.46786 10.8946 9.28032 10.7071C9.21232 10.6391 9.15513 10.5623 9.10985 10.4794C9.02443 10.3231 8.98173 10.2449 9.05437 10.1225C9.12701 10 9.24715 10 9.48743 10L9.98743 10H10.4874Z" fill="currentColor" stroke="currentColor" stroke-linecap="round"/>
<path d="M16.4874 10C16.7277 10 16.8478 10 16.9205 10.1225C16.9931 10.2449 16.9504 10.3231 16.865 10.4794C16.8197 10.5623 16.7625 10.6391 16.6945 10.7071C16.507 10.8946 16.2526 11 15.9874 11C15.7222 11 15.4679 10.8946 15.2803 10.7071C15.2123 10.6391 15.1551 10.5623 15.1098 10.4794C15.0244 10.3231 14.9817 10.2449 15.0544 10.1225C15.127 10 15.2471 10 15.4874 10L15.9874 10H16.4874Z" fill="currentColor" stroke="currentColor" stroke-linecap="round"/>
</svg>
