<svg xmlns="http://www.w3.org/2000/svg" width="24" height="24" viewBox="0 0 24 24" fill="none">
  <path fill-rule="evenodd" clip-rule="evenodd" d="M21 12C21 16.9706 16.9706 21 12 21C7.02944 21 3 16.9706 3 12C3 7.02944 7.02944 3 12 3C16.9706 3 21 7.02944 21 12ZM15.5352 8.621C15.9257 9.01152 15.9257 9.64469 15.5352 10.0352L13.4126 12.1579L15.5336 14.2789C15.9241 14.6694 15.9241 15.3025 15.5336 15.6931C15.143 16.0836 14.5099 16.0836 14.1193 15.6931L11.9983 13.5721L9.87572 15.6947C9.4852 16.0852 8.85203 16.0852 8.46151 15.6947C8.07098 15.3042 8.07098 14.671 8.46151 14.2805L10.5841 12.1579L8.46313 10.0369C8.0726 9.64633 8.0726 9.01317 8.46313 8.62264C8.85365 8.23212 9.48682 8.23212 9.87734 8.62264L11.9983 10.7436L14.121 8.621C14.5115 8.23047 15.1447 8.23047 15.5352 8.621Z" fill="currentColor"/>
</svg>