<svg width="24" height="23" viewBox="0 0 24 23" fill="none" xmlns="http://www.w3.org/2000/svg">
<rect x="1" y="20" width="21" height="2" rx="1" stroke="currentColor"/>
<path d="M3 18.5C3 13.8056 6.80558 10 11.5 10V10C16.1944 10 20 13.8056 20 18.5V20H3V18.5Z" stroke="currentColor"/>
<path d="M13 10V9.5C13 8.67157 12.3284 8 11.5 8V8C10.6716 8 10 8.67157 10 9.5V10" stroke="currentColor"/>
<path d="M19 1L19.1229 1.33219C19.7306 2.9745 21.0255 4.26937 22.6678 4.87708L23 5L22.6678 5.12292C21.0255 5.73063 19.7306 7.0255 19.1229 8.66781L19 9L18.8771 8.66781C18.2694 7.0255 16.9745 5.73063 15.3322 5.12292L15 5L15.3322 4.87708C16.9745 4.26937 18.2694 2.9745 18.8771 1.33219L19 1Z" stroke="currentColor" stroke-linejoin="round"/>
</svg>
