<svg width="24" height="25" viewBox="0 0 24 25" fill="none" xmlns="http://www.w3.org/2000/svg">
<path d="M5.48846 2.12525C5.64256 2.13016 5.70924 2.2904 5.72108 2.3956V9.38879L8.51172 11.1287V7.80106C8.51172 7.61819 8.70443 7.47604 8.84605 7.55617L15.0233 11.1457V7.80105C15.0233 7.61818 15.216 7.47603 15.3577 7.55616L21.8692 11.3398C21.9476 11.3841 22.0006 11.4835 22 11.5847V21.8549C22 21.9965 21.8892 22.1251 21.7674 22.1252H2.23262C2.1108 22.1252 2.00016 21.9965 2 21.8549V2.39559C2 2.25401 2.1108 2.12524 2.23262 2.12524L5.48846 2.12525ZM5.25583 2.66574H2.4652V21.5845H21.5348V11.7448L15.4884 8.23129V11.5844C15.4846 11.7644 15.2934 11.8998 15.154 11.8208L8.97675 8.23131V11.5844C8.97447 11.7692 8.77559 11.9075 8.63511 11.8208L5.3794 9.79381C5.30592 9.74838 5.25661 9.65412 5.25579 9.55741L5.25583 2.66574Z" stroke="currentColor" stroke-linecap="round" stroke-linejoin="round"/>
</svg>
