<svg width="24" height="25" viewBox="0 0 24 25" fill="none" xmlns="http://www.w3.org/2000/svg">
<path d="M13.1716 3.12524H9C7.11438 3.12524 6.17157 3.12524 5.58579 3.71103C5 4.29682 5 5.23963 5 7.12524V17.1252C5 19.0109 5 19.9537 5.58579 20.5395C6.17157 21.1252 7.11438 21.1252 9 21.1252H15C16.8856 21.1252 17.8284 21.1252 18.4142 20.5395C19 19.9537 19 19.0109 19 17.1252V8.95367C19 8.54492 19 8.34055 18.9239 8.15677C18.8478 7.973 18.7032 7.82849 18.4142 7.53946L14.5858 3.71103C14.2968 3.422 14.1522 3.27749 13.9685 3.20136C13.7847 3.12524 13.5803 3.12524 13.1716 3.12524Z" stroke="currentColor" stroke-linecap="round" stroke-linejoin="round"/>
<path d="M13.8553 14.2062L10.6727 12.8422C9.88086 12.5029 9 13.0837 9 13.9452V16.3055C9 17.167 9.88086 17.7478 10.6727 17.4085L13.8553 16.0445C14.6634 15.6982 14.6634 14.5525 13.8553 14.2062Z" stroke="currentColor" stroke-linecap="round" stroke-linejoin="round"/>
<path d="M13 3.12524V7.12524C13 8.06805 13 8.53946 13.2929 8.83235C13.5858 9.12524 14.0572 9.12524 15 9.12524H19" stroke="currentColor" stroke-linecap="round" stroke-linejoin="round"/>
</svg>
