<svg width="24" height="25" viewBox="0 0 24 25" fill="none" xmlns="http://www.w3.org/2000/svg">
<path fill-rule="evenodd" clip-rule="evenodd" d="M2.33659 17.828C2.11207 17.1668 1.99981 16.4597 1.99981 15.7068C1.99981 14.9415 2.10271 14.2283 2.30852 13.5672C2.52057 12.8999 2.81057 12.3153 3.17854 11.8133C3.5465 11.3113 3.97371 10.9195 4.46017 10.6379C4.94663 10.3563 5.46427 10.2155 6.0131 10.2155H6.66233C6.66111 10.2191 6.65989 10.2228 6.65867 10.2264C6.29558 11.3158 6.01685 12.6478 5.92606 14.0621C5.77636 16.3939 6.13484 19.0323 7.55978 21.1613H6.35923C5.76675 21.1613 5.20857 21.0205 4.68469 20.7389C4.16081 20.4573 3.69618 20.0655 3.29079 19.5635C2.88541 19.0615 2.56734 18.483 2.33659 17.828ZM9.06343 21.1613H9.3809C9.96714 21.4613 10.6126 21.697 11.3174 21.8684C12.0284 22.0398 12.7799 22.1255 13.5719 22.1255H14.8442C15.4242 22.1255 15.9481 22.1071 16.4159 22.0704C16.8898 22.0337 17.2859 21.9755 17.6039 21.8959C18.1964 21.749 18.6642 21.4919 19.0072 21.1246C19.3502 20.7573 19.5217 20.3165 19.5217 19.8023C19.5217 19.5574 19.4718 19.3156 19.372 19.0768C19.7026 18.8687 19.9583 18.6054 20.1391 18.2871C20.32 17.9688 20.4104 17.6259 20.4104 17.2586C20.4104 16.8301 20.3231 16.4689 20.1485 16.1751C20.373 15.9914 20.5508 15.7527 20.6817 15.4588C20.8127 15.1589 20.8782 14.8436 20.8782 14.513C20.8782 14.2865 20.847 14.0661 20.7846 13.8518C20.7223 13.6315 20.6381 13.4447 20.5321 13.2917C20.8439 12.9366 20.9998 12.4714 20.9998 11.8959C20.9998 11.4796 20.9 11.1031 20.7004 10.7664C20.5009 10.4297 20.2296 10.1634 19.8866 9.96755C19.5498 9.76552 19.1725 9.66451 18.7546 9.66451H15.3213C15.1342 9.66451 14.9814 9.62472 14.8629 9.54514C14.7507 9.45943 14.6945 9.34312 14.6945 9.1962C14.6945 8.93296 14.7725 8.60544 14.9284 8.21364C15.0906 7.81572 15.2745 7.38414 15.4804 6.91888C15.6924 6.45362 15.8764 5.97918 16.0323 5.49555C16.1945 5.00581 16.2755 4.53749 16.2755 4.09059C16.2755 3.71104 16.1913 3.37434 16.0229 3.08049C15.8546 2.78052 15.6269 2.54789 15.34 2.3826C15.0531 2.21119 14.7226 2.12549 14.3484 2.12549C13.9305 2.12549 13.5751 2.2418 13.2819 2.47443C12.9888 2.70094 12.7019 3.07743 12.4213 3.60391C12.1344 4.14875 11.8381 4.66605 11.5325 5.15579C11.2332 5.64554 10.9026 6.1414 10.5409 6.64339C10.1854 7.13926 9.78316 7.67798 9.33412 8.25956C8.96504 8.73757 8.54961 9.26315 8.08783 9.8363C7.989 10.0669 7.89109 10.3239 7.7971 10.6059C7.46646 11.5978 7.20774 12.8282 7.12359 14.139C6.96521 16.6062 7.42874 19.2522 9.06343 21.1613Z" fill="currentColor"/>
</svg>
