<svg width="24" height="25" viewBox="0 0 24 25" fill="none" xmlns="http://www.w3.org/2000/svg">
<path d="M9.5 10.1255C9.5 9.334 8.44722 9.12419 8.16791 9.86481C7.49228 11.6563 7 13.259 7 14.1255C7 16.8869 9.23858 19.1255 12 19.1255C14.7614 19.1255 17 16.8869 17 14.1255C17 13.1946 16.4318 11.4139 15.6784 9.46223C14.7026 6.93403 14.2146 5.66994 13.6123 5.60185C13.4196 5.58006 13.2093 5.61923 13.0374 5.70896C12.5 5.98937 12.5 7.36809 12.5 10.1255C12.5 10.954 11.8284 11.6255 11 11.6255C10.1716 11.6255 9.5 10.954 9.5 10.1255Z" stroke="currentColor" stroke-linecap="round" stroke-linejoin="round"/>
</svg>
