<svg width="24" height="25" viewBox="0 0 24 25" fill="none" xmlns="http://www.w3.org/2000/svg">
<path d="M8 3.12524V4.12524C8 6.01086 8 6.95367 7.41421 7.53946C6.82843 8.12524 5.88562 8.12524 4 8.12524H3" stroke="currentColor" stroke-linecap="round" stroke-linejoin="round"/>
<path d="M16 3.12524V4.12524C16 6.01086 16 6.95367 16.5858 7.53946C17.1716 8.12524 18.1144 8.12524 20 8.12524H21" stroke="currentColor" stroke-linecap="round" stroke-linejoin="round"/>
<path d="M8 21.1252V20.1252C8 18.2396 8 17.2968 7.41421 16.711C6.82843 16.1252 5.88562 16.1252 4 16.1252H3" stroke="currentColor" stroke-linecap="round" stroke-linejoin="round"/>
<path d="M16 21.1252V20.1252C16 18.2396 16 17.2968 16.5858 16.711C17.1716 16.1252 18.1144 16.1252 20 16.1252H21" stroke="currentColor" stroke-linecap="round" stroke-linejoin="round"/>
</svg>
