<svg width="24" height="25" viewBox="0 0 24 25" fill="none" xmlns="http://www.w3.org/2000/svg">
<path d="M9 4.12524H7C5.58579 4.12524 4.87868 4.12524 4.43934 4.56458C4 5.00392 4 5.71103 4 7.12524V9.12524" stroke="currentColor" stroke-linecap="round" stroke-linejoin="round"/>
<path d="M9 20.1252H7C5.58579 20.1252 4.87868 20.1252 4.43934 19.6859C4 19.2466 4 18.5395 4 17.1252V15.1252" stroke="currentColor" stroke-linecap="round" stroke-linejoin="round"/>
<path d="M15 4.12524H17C18.4142 4.12524 19.1213 4.12524 19.5607 4.56458C20 5.00392 20 5.71103 20 7.12524V9.12524" stroke="currentColor" stroke-linecap="round" stroke-linejoin="round"/>
<path d="M15 20.1252H17C18.4142 20.1252 19.1213 20.1252 19.5607 19.6859C20 19.2466 20 18.5395 20 17.1252V15.1252" stroke="currentColor" stroke-linecap="round" stroke-linejoin="round"/>
</svg>
