<svg viewBox="0 0 20 20" fill="none" xmlns="http://www.w3.org/2000/svg">
<path d="M11.7814 2.80152L11.2839 2.85128V2.85128L11.7814 2.80152ZM11.721 2.38024L11.242 2.52362V2.52362L11.721 2.38024ZM11.896 3.55496L11.4316 3.74039L11.4316 3.74039L11.896 3.55496ZM13.2191 4.10301L13.0219 3.64355V3.64355L13.2191 4.10301ZM13.8329 3.65127L13.5555 3.23524L13.5352 3.24881L13.5162 3.26429L13.8329 3.65127ZM13.8329 3.65126L14.1102 4.06729L14.1306 4.05372L14.1495 4.03824L13.8329 3.65126ZM14.1735 3.39612L13.9362 2.95603V2.95603L14.1735 3.39612ZM15.208 3.44772L15.4879 3.03343L15.4879 3.03343L15.208 3.44772ZM15.5215 3.73549L15.168 4.08904V4.08905L15.5215 3.73549ZM16.2661 4.48005L16.6197 4.1265L16.2661 4.48005ZM16.5539 4.7936L16.1396 5.07353L16.1396 5.07353L16.5539 4.7936ZM16.6055 5.82811L16.1654 5.59079L16.1654 5.59079L16.6055 5.82811ZM16.3503 6.16874L16.7373 6.48536V6.48536L16.3503 6.16874ZM15.8986 6.78252L15.4391 6.58531L15.4391 6.58531L15.8986 6.78252ZM16.4466 8.10564L16.632 7.6413V7.6413L16.4466 8.10564ZM17.2001 8.2202L17.1503 8.71772L17.2001 8.2202ZM17.6214 8.28065L17.478 8.75965L17.6214 8.28065ZM18.3164 9.04863L18.8073 8.95362V8.95362L18.3164 9.04863ZM18.3164 10.9519L17.8255 10.857V10.857L18.3164 10.9519ZM17.6213 11.72L17.7647 12.199V12.199L17.6213 11.72ZM17.2002 11.7804L17.1504 11.2829L17.1261 11.2854L17.1021 11.2901L17.2002 11.7804ZM17.2002 11.7804L17.2499 12.278L17.2742 12.2755L17.2982 12.2707L17.2002 11.7804ZM16.4471 11.8949L16.2617 11.4305L16.2617 11.4305L16.4471 11.8949ZM15.8989 13.2183L15.4395 13.4155L15.4395 13.4155L15.8989 13.2183ZM16.3505 13.8316L15.9635 14.1483L15.9635 14.1483L16.3505 13.8316ZM16.6055 14.1721L16.1654 14.4094V14.4094L16.6055 14.1721ZM16.5539 15.2068L16.1396 14.9268L16.1396 14.9268L16.5539 15.2068ZM15.208 16.5526L15.488 16.9669L15.488 16.9669L15.208 16.5526ZM14.1735 16.6042L13.9362 17.0443V17.0443L14.1735 16.6042ZM13.8329 16.349L14.1495 15.962L14.1306 15.9466L14.1103 15.933L13.8329 16.349ZM13.8329 16.349L13.5128 16.7331L13.5333 16.7502L13.5556 16.765L13.8329 16.349ZM13.8329 16.349L14.153 15.9649L14.1495 15.962L13.8329 16.349ZM13.2191 15.8973L13.0219 16.3567L13.0219 16.3567L13.2191 15.8973ZM11.896 16.4453L11.4317 16.2599L11.4317 16.2599L11.896 16.4453ZM11.7814 17.1989L12.279 17.2487V17.2487L11.7814 17.1989ZM11.721 17.6205L12.1999 17.7639L12.1999 17.7639L11.721 17.6205ZM10.9531 18.3154L10.858 17.8245H10.858L10.9531 18.3154ZM9.04961 18.3154L8.9546 18.8063H8.9546L9.04961 18.3154ZM8.28162 17.6204L7.80262 17.7638L8.28162 17.6204ZM8.22118 17.1991L7.72366 17.2489L8.22118 17.1991ZM8.10661 16.4456L8.57095 16.2602L8.57095 16.2602L8.10661 16.4456ZM6.78351 15.8976L6.5863 15.4381L6.5863 15.4381L6.78351 15.8976ZM6.1697 16.3494L5.85308 15.9624H5.85308L6.1697 16.3494ZM5.82904 16.6046L5.59173 16.1645H5.59172L5.82904 16.6046ZM4.79455 16.553L5.07448 16.1387H5.07448L4.79455 16.553ZM4.48098 16.2652L4.83454 15.9116L4.82415 15.9012L4.81316 15.8915L4.48098 16.2652ZM4.48098 16.2652L4.12742 16.6187L4.13781 16.6291L4.14879 16.6389L4.48098 16.2652ZM3.73644 15.5206L3.38289 15.8742H3.38289L3.73644 15.5206ZM3.73643 15.5206L3.38288 15.8742L3.38288 15.8742L3.73643 15.5206ZM3.44865 15.2071L3.03435 15.487L3.03436 15.487L3.44865 15.2071ZM3.39705 14.1726L2.95696 13.9352L2.95696 13.9352L3.39705 14.1726ZM3.65222 13.8319L3.26524 13.5153H3.26524L3.65222 13.8319ZM4.10399 13.2181L4.56345 13.4153L4.56345 13.4153L4.10399 13.2181ZM3.55593 11.895L3.74137 11.4307L3.55593 11.895ZM2.8025 11.7804L2.75274 12.278H2.75274L2.8025 11.7804ZM2.38122 11.72L2.23784 12.199L2.23784 12.199L2.38122 11.72ZM1.68619 10.952L2.17708 10.857L1.68619 10.952ZM1.66797 10.5268H1.16797H1.66797ZM1.66797 9.47395H2.16797H1.66797ZM1.6862 9.04856L2.17708 9.1436L2.17709 9.1436L1.6862 9.04856ZM2.38114 8.28066L2.23772 7.80167H2.23772L2.38114 8.28066ZM2.8026 8.2202L2.75285 7.72268H2.75285L2.8026 8.2202ZM3.55636 8.10557L3.74185 8.56989L3.74185 8.56989L3.55636 8.10557ZM4.10435 6.7826L4.56383 6.58544L4.56383 6.58544L4.10435 6.7826ZM3.65237 6.16851L3.26539 6.48513L3.65237 6.16851ZM3.39703 5.82763L2.95692 6.0649L3.39703 5.82763ZM3.44862 4.79332L3.86294 5.07321L3.86294 5.07321L3.44862 4.79332ZM3.73658 4.47957L4.09013 4.83312L4.09943 4.82383L4.10822 4.81405L3.73658 4.47957ZM3.73658 4.47957L3.38303 4.12601L3.37373 4.13531L3.36493 4.14508L3.73658 4.47957ZM4.48101 3.73513L4.83457 4.08869V4.08869L4.48101 3.73513ZM4.79459 3.44733L5.07452 3.86162L5.07452 3.86162L4.79459 3.44733ZM5.82908 3.39573L6.06639 2.95564H6.06639L5.82908 3.39573ZM6.1698 3.65096L5.85318 4.03794V4.03794L6.1698 3.65096ZM6.78342 4.10264L6.98069 3.6432L6.98069 3.6432L6.78342 4.10264ZM8.1067 3.55452L7.64234 3.36914L7.64234 3.36914L8.1067 3.55452ZM8.22119 2.80141L7.72367 2.75166V2.75166L8.22119 2.80141ZM8.28159 2.38032L8.76061 2.52366V2.52366L8.28159 2.38032ZM9.0497 1.68519L9.14466 2.17609V2.17609L9.0497 1.68519ZM10.953 1.68521L10.858 2.1761V2.1761L10.953 1.68521ZM12.2789 2.75177C12.2592 2.55461 12.2446 2.38606 12.2 2.23686L11.242 2.52362C11.2523 2.55812 11.2597 2.60919 11.2839 2.85128L12.2789 2.75177ZM12.3603 3.36953C12.3572 3.36171 12.3454 3.32579 12.3298 3.21501C12.3146 3.10722 12.3001 2.96347 12.2789 2.75177L11.2839 2.85128C11.3042 3.05453 11.3209 3.22199 11.3395 3.35444C11.3578 3.48388 11.3824 3.6172 11.4316 3.74039L12.3603 3.36953ZM13.0219 3.64355C12.7635 3.75445 12.4646 3.63062 12.3603 3.36952L11.4316 3.74039C11.7444 4.52366 12.6413 4.89516 13.4163 4.56247L13.0219 3.64355ZM13.5162 3.26429C13.3516 3.39901 13.2397 3.49043 13.1528 3.55591C13.0634 3.62321 13.0296 3.64024 13.0219 3.64355L13.4163 4.56247C13.5382 4.51015 13.6499 4.43334 13.7544 4.3547C13.8612 4.27424 13.9914 4.1676 14.1495 4.03825L13.5162 3.26429ZM13.5555 3.23524L13.5555 3.23524L14.1102 4.06729L14.1102 4.06729L13.5555 3.23524ZM13.9362 2.95603C13.7991 3.02995 13.6696 3.13882 13.5163 3.26428L14.1495 4.03824C14.3378 3.88419 14.3791 3.8533 14.4108 3.8362L13.9362 2.95603ZM15.4879 3.03343C15.0254 2.72087 14.4275 2.69105 13.9362 2.95603L14.4108 3.8362C14.5746 3.74788 14.7739 3.75782 14.9281 3.862L15.4879 3.03343ZM15.8751 3.38194C15.735 3.24183 15.617 3.12062 15.4879 3.03343L14.9281 3.862C14.9579 3.88217 14.996 3.91702 15.168 4.08904L15.8751 3.38194ZM16.6197 4.1265L15.8751 3.38194L15.168 4.08905L15.9125 4.8336L16.6197 4.1265ZM16.9682 4.51367C16.881 4.38462 16.7598 4.26661 16.6197 4.1265L15.9125 4.8336C16.0846 5.00564 16.1194 5.04369 16.1396 5.07353L16.9682 4.51367ZM17.0456 6.06543C17.3105 5.57408 17.2807 4.97622 16.9682 4.51367L16.1396 5.07353C16.2438 5.22772 16.2537 5.427 16.1654 5.59079L17.0456 6.06543ZM16.7373 6.48536C16.8628 6.33201 16.9717 6.20251 17.0456 6.06543L16.1654 5.59079C16.1483 5.62249 16.1174 5.66383 15.9633 5.85213L16.7373 6.48536ZM16.358 6.97974C16.3613 6.97201 16.3784 6.93823 16.4457 6.84886C16.5112 6.76192 16.6026 6.65003 16.7373 6.48536L15.9633 5.85212C15.834 6.01023 15.7273 6.14042 15.6469 6.24726C15.5682 6.35168 15.4914 6.46341 15.4391 6.58531L16.358 6.97974ZM16.632 7.6413C16.371 7.53703 16.2471 7.23808 16.358 6.97974L15.4391 6.58531C15.1064 7.36033 15.4779 8.25719 16.2612 8.56998L16.632 7.6413ZM17.2498 7.72269C17.0381 7.70151 16.8944 7.68704 16.7866 7.67186C16.6758 7.65626 16.6399 7.64442 16.632 7.6413L16.2612 8.56998C16.3844 8.61918 16.5177 8.64387 16.6471 8.66209C16.7796 8.68075 16.9471 8.6974 17.1503 8.71772L17.2498 7.72269ZM17.7648 7.80165C17.6156 7.75698 17.447 7.7424 17.2498 7.72269L17.1503 8.71772C17.3924 8.74193 17.4435 8.74932 17.478 8.75965L17.7648 7.80165ZM18.8073 8.95362C18.7012 8.40555 18.2996 7.96173 17.7648 7.80165L17.478 8.75965C17.6563 8.81301 17.7902 8.96095 17.8255 9.14364L18.8073 8.95362ZM18.8346 9.47386C18.8346 9.2757 18.8369 9.10653 18.8073 8.95362L17.8255 9.14363C17.8324 9.179 17.8346 9.23056 17.8346 9.47386H18.8346ZM18.8346 10.5269V9.47386H17.8346V10.5269H18.8346ZM18.8073 11.0469C18.8369 10.8941 18.8346 10.725 18.8346 10.5269H17.8346C17.8346 10.7701 17.8324 10.8216 17.8255 10.857L18.8073 11.0469ZM17.7647 12.199C18.2996 12.039 18.7013 11.5951 18.8073 11.0469L17.8255 10.857C17.7902 11.0397 17.6563 11.1877 17.478 11.241L17.7647 12.199ZM17.2499 12.278C17.447 12.2582 17.6155 12.2437 17.7647 12.199L17.478 11.241C17.4435 11.2513 17.3924 11.2587 17.1504 11.2829L17.2499 12.278ZM17.2982 12.2707L17.2982 12.2707L17.1021 11.2901L17.1021 11.2901L17.2982 12.2707ZM16.6324 12.3593C16.6402 12.3562 16.6762 12.3443 16.7869 12.3288C16.8946 12.3136 17.0383 12.2991 17.2499 12.278L17.1504 11.2829C16.9472 11.3032 16.7799 11.3199 16.6475 11.3385C16.5181 11.3567 16.3849 11.3814 16.2617 11.4305L16.6324 12.3593ZM16.3584 13.021C16.2474 12.7626 16.3713 12.4635 16.6324 12.3593L16.2617 11.4305C15.4782 11.7433 15.1066 12.6404 15.4395 13.4155L16.3584 13.021ZM16.7374 13.515C16.6028 13.3505 16.5114 13.2386 16.446 13.1518C16.3787 13.0624 16.3617 13.0287 16.3584 13.021L15.4395 13.4155C15.4918 13.5374 15.5686 13.649 15.6472 13.7534C15.7276 13.8602 15.8342 13.9903 15.9635 14.1483L16.7374 13.515ZM17.0455 13.9347C16.9716 13.7977 16.8628 13.6683 16.7374 13.515L15.9635 14.1483C16.1174 14.3365 16.1483 14.3778 16.1654 14.4094L17.0455 13.9347ZM16.9681 15.4868C17.2808 15.0241 17.3106 14.4261 17.0455 13.9347L16.1654 14.4094C16.2538 14.5733 16.2438 14.7726 16.1396 14.9268L16.9681 15.4868ZM16.6198 15.8737C16.7598 15.7337 16.881 15.6157 16.9681 15.4868L16.1396 14.9268C16.1194 14.9566 16.0846 14.9946 15.9127 15.1666L16.6198 15.8737ZM15.8751 16.6183L16.6198 15.8737L15.9127 15.1666L15.168 15.9112L15.8751 16.6183ZM15.488 16.9669C15.617 16.8797 15.735 16.7584 15.8751 16.6183L15.168 15.9112C14.996 16.0833 14.9579 16.1181 14.9281 16.1383L15.488 16.9669ZM13.9362 17.0443C14.4276 17.3092 15.0254 17.2794 15.488 16.9669L14.9281 16.1383C14.7739 16.2425 14.5746 16.2524 14.4108 16.1641L13.9362 17.0443ZM13.5163 16.736C13.6696 16.8615 13.7991 16.9703 13.9362 17.0443L14.4108 16.1641C14.3791 16.147 14.3378 16.1161 14.1495 15.962L13.5163 16.736ZM13.5556 16.765L13.5556 16.765L14.1103 15.933L14.1103 15.933L13.5556 16.765ZM13.5128 16.7331L13.5128 16.7331L14.153 15.9649L14.153 15.9649L13.5128 16.7331ZM13.0219 16.3567C13.0297 16.36 13.0634 16.3771 13.1528 16.4444C13.2397 16.5099 13.3516 16.6013 13.5163 16.736L14.1495 15.962C13.9914 15.8327 13.8612 15.726 13.7544 15.6456C13.65 15.5669 13.5383 15.4901 13.4164 15.4378L13.0219 16.3567ZM12.3604 16.6308C12.4646 16.3697 12.7636 16.2458 13.0219 16.3567L13.4164 15.4378C12.6413 15.1051 11.7445 15.4766 11.4317 16.2599L12.3604 16.6308ZM12.279 17.2487C12.3001 17.0369 12.3146 16.8931 12.3298 16.7853C12.3454 16.6745 12.3572 16.6386 12.3604 16.6308L11.4317 16.2599C11.3825 16.3831 11.3578 16.5164 11.3396 16.6459C11.3209 16.7784 11.3043 16.9459 11.2839 17.1492L12.279 17.2487ZM12.1999 17.7639C12.2446 17.6147 12.2592 17.446 12.279 17.2487L11.2839 17.1492C11.2597 17.3914 11.2523 17.4426 11.242 17.4771L12.1999 17.7639ZM11.0481 18.8063C11.5961 18.7002 12.0398 18.2986 12.1999 17.7639L11.242 17.4771C11.1886 17.6553 11.0407 17.7892 10.858 17.8245L11.0481 18.8063ZM10.5277 18.8337C10.7259 18.8337 10.8952 18.8359 11.0481 18.8063L10.858 17.8245C10.8227 17.8314 10.7711 17.8337 10.5277 17.8337V18.8337ZM9.47484 18.8337H10.5277V17.8337H9.47484V18.8337ZM8.9546 18.8063C9.10751 18.8359 9.27668 18.8337 9.47484 18.8337V17.8337C9.23153 17.8337 9.17998 17.8314 9.14461 17.8246L8.9546 18.8063ZM7.80262 17.7638C7.96271 18.2986 8.40653 18.7003 8.9546 18.8063L9.14462 17.8246C8.96193 17.7892 8.81398 17.6553 8.76062 17.477L7.80262 17.7638ZM7.72366 17.2489C7.74338 17.446 7.75796 17.6146 7.80262 17.7638L8.76062 17.477C8.75029 17.4425 8.74291 17.3915 8.7187 17.1494L7.72366 17.2489ZM7.64227 16.6311C7.64539 16.6389 7.65724 16.6748 7.67284 16.7856C7.68802 16.8934 7.70249 17.0372 7.72366 17.2489L8.7187 17.1494C8.69837 16.9461 8.68172 16.7786 8.66307 16.6462C8.64484 16.5167 8.62015 16.3834 8.57095 16.2602L7.64227 16.6311ZM6.98072 16.357C7.23906 16.2462 7.53801 16.37 7.64227 16.6311L8.57095 16.2602C8.25815 15.4769 7.36132 15.1055 6.5863 15.4381L6.98072 16.357ZM6.48632 16.7364C6.65099 16.6016 6.76289 16.5102 6.84984 16.4447C6.93921 16.3774 6.97299 16.3604 6.98073 16.357L6.5863 15.4381C6.4644 15.4904 6.35266 15.5673 6.24824 15.6459C6.14139 15.7264 6.01119 15.833 5.85308 15.9624L6.48632 16.7364ZM6.06635 17.0446C6.20344 16.9707 6.33295 16.8618 6.48632 16.7364L5.85308 15.9624C5.66476 16.1165 5.62343 16.1474 5.59173 16.1645L6.06635 17.0446ZM4.51462 16.9673C4.97717 17.2798 5.57501 17.3096 6.06636 17.0446L5.59172 16.1645C5.42794 16.2528 5.22866 16.2428 5.07448 16.1387L4.51462 16.9673ZM4.12743 16.6187C4.26754 16.7588 4.38557 16.8801 4.51462 16.9673L5.07448 16.1387C5.04464 16.1185 5.00658 16.0836 4.83454 15.9116L4.12743 16.6187ZM4.14879 16.6389L4.1488 16.6389L4.81316 15.8915L4.81316 15.8914L4.14879 16.6389ZM3.38289 15.8742L4.12742 16.6187L4.83453 15.9116L4.09 15.1671L3.38289 15.8742ZM3.38288 15.8742L3.38289 15.8742L4.09 15.1671L4.08999 15.1671L3.38288 15.8742ZM3.03436 15.487C3.12155 15.616 3.24277 15.7341 3.38288 15.8742L4.08999 15.1671C3.91795 14.995 3.8831 14.957 3.86294 14.9271L3.03436 15.487ZM2.95696 13.9352C2.692 14.4266 2.72181 15.0244 3.03435 15.487L3.86294 14.9271C3.75876 14.7729 3.74882 14.5737 3.83714 14.4099L2.95696 13.9352ZM3.26524 13.5153C3.13976 13.6687 3.03088 13.7982 2.95696 13.9352L3.83714 14.4099C3.85423 14.3782 3.88513 14.3368 4.0392 14.1485L3.26524 13.5153ZM3.64453 13.0209C3.64121 13.0286 3.62418 13.0624 3.55688 13.1518C3.49139 13.2387 3.39997 13.3506 3.26524 13.5153L4.0392 14.1485C4.16856 13.9904 4.2752 13.8602 4.35567 13.7534C4.43431 13.649 4.51113 13.5372 4.56345 13.4153L3.64453 13.0209ZM3.3705 12.3593C3.63159 12.4636 3.75542 12.7626 3.64453 13.0209L4.56345 13.4153C4.89612 12.6403 4.52463 11.7435 3.74137 11.4307L3.3705 12.3593ZM2.75274 12.278C2.96444 12.2991 3.1082 12.3136 3.21598 12.3288C3.32676 12.3444 3.36269 12.3562 3.3705 12.3593L3.74137 11.4307C3.61818 11.3815 3.48486 11.3568 3.35541 11.3386C3.22297 11.3199 3.0555 11.3033 2.85225 11.2829L2.75274 12.278ZM2.23784 12.199C2.38704 12.2437 2.55558 12.2582 2.75274 12.278L2.85225 11.2829C2.61017 11.2587 2.55909 11.2513 2.52459 11.241L2.23784 12.199ZM1.19529 11.047C1.30136 11.5951 1.70303 12.0389 2.23784 12.199L2.52459 11.241C2.34632 11.1876 2.21243 11.0397 2.17708 10.857L1.19529 11.047ZM1.16797 10.5268C1.16797 10.7249 1.1657 10.8941 1.19529 11.047L2.17708 10.857C2.17023 10.8216 2.16797 10.7701 2.16797 10.5268H1.16797ZM1.16797 9.47395L1.16797 10.5268H2.16797L2.16797 9.47395H1.16797ZM1.19532 8.95352C1.1657 9.10648 1.16797 9.27572 1.16797 9.47395H2.16797C2.16797 9.23055 2.17024 9.17898 2.17708 9.1436L1.19532 8.95352ZM2.23772 7.80167C1.70301 7.96177 1.30142 8.40553 1.19532 8.95352L2.17709 9.1436C2.21245 8.96094 2.34632 8.81302 2.52455 8.75966L2.23772 7.80167ZM2.75285 7.72268C2.5556 7.7424 2.38698 7.75698 2.23772 7.80167L2.52455 8.75966C2.55907 8.74932 2.61016 8.74193 2.85235 8.71771L2.75285 7.72268ZM3.37087 7.64125C3.36305 7.64437 3.32712 7.65623 3.21628 7.67183C3.10846 7.68702 2.96464 7.7015 2.75285 7.72268L2.85235 8.71771C3.0557 8.69738 3.22323 8.68072 3.35574 8.66206C3.48524 8.64383 3.61861 8.61912 3.74185 8.56989L3.37087 7.64125ZM3.64486 6.97977C3.7557 7.23808 3.6319 7.53697 3.37087 7.64125L3.74185 8.56989C4.52494 8.25705 4.89636 7.36038 4.56383 6.58544L3.64486 6.97977ZM3.26539 6.48513C3.40019 6.64988 3.49165 6.76183 3.55717 6.84882C3.62452 6.93824 3.64155 6.97203 3.64486 6.97977L4.56383 6.58544C4.5115 6.46349 4.43465 6.3517 4.35597 6.24723C4.27547 6.14033 4.16877 6.01007 4.03935 5.85189L3.26539 6.48513ZM2.95692 6.0649C3.03087 6.20207 3.13982 6.33166 3.26539 6.48513L4.03935 5.85189C3.88517 5.66345 3.85425 5.62208 3.83715 5.59036L2.95692 6.0649ZM3.0343 4.51344C2.72188 4.97592 2.69207 5.57362 2.95692 6.0649L3.83715 5.59036C3.74887 5.4266 3.75881 5.22737 3.86294 5.07321L3.0343 4.51344ZM3.38302 4.12602C3.24283 4.26621 3.12153 4.3843 3.0343 4.51344L3.86294 5.07321C3.88312 5.04334 3.91799 5.00526 4.09013 4.83312L3.38302 4.12602ZM3.36493 4.14508L3.36493 4.14509L4.10822 4.81405L4.10823 4.81405L3.36493 4.14508ZM4.12746 3.38158L3.38303 4.12601L4.09013 4.83312L4.83457 4.08869L4.12746 3.38158ZM4.51466 3.03303C4.38561 3.12023 4.26758 3.24146 4.12746 3.38158L4.83457 4.08869C5.00661 3.91664 5.04467 3.88178 5.07452 3.86162L4.51466 3.03303ZM6.06639 2.95564C5.57504 2.69068 4.97721 2.7205 4.51466 3.03303L5.07452 3.86162C5.2287 3.75744 5.42798 3.7475 5.59176 3.83582L6.06639 2.95564ZM6.48642 3.26398C6.33301 3.13847 6.20348 3.02956 6.06639 2.95564L5.59176 3.83582C5.62346 3.85292 5.66482 3.88383 5.85318 4.03794L6.48642 3.26398ZM6.98069 3.6432C6.97297 3.63989 6.93921 3.62286 6.84985 3.55556C6.76292 3.49009 6.65105 3.39868 6.48642 3.26398L5.85318 4.03794C6.01125 4.16727 6.14141 4.27389 6.24823 4.35434C6.35261 4.43296 6.4643 4.50976 6.58614 4.56208L6.98069 3.6432ZM7.64234 3.36914C7.53809 3.63029 7.23907 3.75415 6.98069 3.6432L6.58614 4.56208C7.36127 4.89491 8.25832 4.52333 8.57107 3.73989L7.64234 3.36914ZM7.72367 2.75166C7.70251 2.96327 7.68805 3.10696 7.67288 3.21469C7.65729 3.32542 7.64546 3.36133 7.64234 3.36914L8.57107 3.73989C8.62023 3.61675 8.6449 3.48349 8.66311 3.35411C8.68175 3.22172 8.6984 3.05433 8.71871 2.85117L7.72367 2.75166ZM7.80258 2.23699C7.75795 2.38612 7.74338 2.55459 7.72367 2.75166L8.71871 2.85117C8.74291 2.6092 8.75029 2.55814 8.76061 2.52366L7.80258 2.23699ZM8.95474 1.19429C8.40656 1.30033 7.96264 1.70208 7.80258 2.23699L8.76061 2.52366C8.81396 2.34535 8.96194 2.21144 9.14466 2.17609L8.95474 1.19429ZM9.47472 1.16699C9.27666 1.16699 9.10758 1.16473 8.95474 1.19429L9.14466 2.17609C9.18001 2.16926 9.23154 2.16699 9.47472 2.16699V1.16699ZM10.5278 1.16699H9.47472V2.16699H10.5278V1.16699ZM11.048 1.19432C10.8951 1.16473 10.7259 1.16699 10.5278 1.16699V2.16699C10.7711 2.16699 10.8226 2.16926 10.858 2.1761L11.048 1.19432ZM12.2 2.23686C12.0399 1.70205 11.5961 1.30039 11.048 1.19432L10.858 2.1761C11.0407 2.21146 11.1886 2.34535 11.242 2.52362L12.2 2.23686ZM12.8346 10.0003C12.8346 11.5651 11.5661 12.8337 10.0013 12.8337V13.8337C12.1184 13.8337 13.8346 12.1174 13.8346 10.0003H12.8346ZM10.0013 7.16699C11.5661 7.16699 12.8346 8.43552 12.8346 10.0003H13.8346C13.8346 7.88323 12.1184 6.16699 10.0013 6.16699V7.16699ZM7.16797 10.0003C7.16797 8.43552 8.4365 7.16699 10.0013 7.16699V6.16699C7.88421 6.16699 6.16797 7.88323 6.16797 10.0003H7.16797ZM10.0013 12.8337C8.4365 12.8337 7.16797 11.5651 7.16797 10.0003H6.16797C6.16797 12.1174 7.88421 13.8337 10.0013 13.8337V12.8337Z" fill="currentColor" />
</svg>