<svg width="24" height="25" viewBox="0 0 24 25" fill="none" xmlns="http://www.w3.org/2000/svg">
<path fill-rule="evenodd" clip-rule="evenodd" d="M6.80048 15.9755C5.88921 15.9755 5.15048 16.7143 5.15048 17.6255C5.15048 18.5368 5.88921 19.2755 6.80048 19.2755C7.71175 19.2755 8.45048 18.5368 8.45048 17.6255C8.45048 16.7143 7.71175 15.9755 6.80048 15.9755ZM5.95048 17.6255C5.95048 17.1561 6.33104 16.7755 6.80048 16.7755C7.26992 16.7755 7.65048 17.1561 7.65048 17.6255C7.65048 18.095 7.26992 18.4755 6.80048 18.4755C6.33104 18.4755 5.95048 18.095 5.95048 17.6255Z" fill="#205CDF"/>
<path fill-rule="evenodd" clip-rule="evenodd" d="M18.4296 3.02101C16.6764 2.41251 14.7129 2.8656 13.4121 4.16648C12.201 5.37755 11.7268 7.1342 12.1537 8.77051L12.2045 8.96523L7.68293 13.4598L7.50702 13.4316C6.18992 13.2199 4.82632 13.6435 3.86318 14.6067C2.21748 16.2524 2.21748 18.9082 3.86318 20.5539C4.66179 21.3525 5.71794 21.7755 6.82402 21.7755C7.92857 21.7755 9.01059 21.3281 9.78487 20.5539C10.748 19.5908 11.1716 18.2272 10.9599 16.9101L10.9316 16.7335L15.4245 12.2405L15.6162 12.2877C17.2553 12.6916 19.0146 12.216 20.2263 11.0291C21.5304 9.72394 21.9817 7.75266 21.3643 5.99585L21.3583 5.97877L21.3564 5.97179C21.3158 5.82263 21.2196 5.7416 21.098 5.71502L21.0966 5.71471L21.091 5.71362C20.9411 5.68369 20.7829 5.73318 20.6946 5.82157L18.2828 8.23362L16.1835 6.13441L18.5955 3.72248C18.6841 3.63386 18.7335 3.47562 18.7035 3.32568C18.6811 3.21402 18.5819 3.09288 18.4348 3.02283L18.4296 3.02101ZM16.7452 3.56901L17.6241 3.54464L15.3474 5.82139C15.2559 5.91286 15.2208 6.00378 15.2208 6.10872C15.2208 6.23322 15.2682 6.32815 15.324 6.37473L15.3414 6.38923L18.0211 9.06975C18.196 9.24463 18.4492 9.22885 18.5851 9.08068L18.5961 9.0687L20.8969 6.76837L20.8476 7.68111C20.7924 8.70041 20.4052 9.67596 19.6507 10.4305L19.6342 10.447C18.5444 11.5237 16.91 11.8783 15.4691 11.3795L15.4669 11.3787L15.464 11.3777C15.3169 11.3243 15.1533 11.363 15.0418 11.4745L10.2038 16.3126C10.0828 16.4336 10.0517 16.5826 10.0878 16.7028L10.091 16.7134C10.4035 17.8793 10.062 19.128 9.21074 19.9791C8.58703 20.6028 7.7349 20.9729 6.82439 20.9729C5.92197 20.9729 5.06524 20.6334 4.43489 19.976C3.12996 18.6676 3.13098 16.5133 4.43804 15.2064C5.09094 14.5535 5.94461 14.2126 6.8498 14.2126C7.05978 14.2126 7.44182 14.3166 7.73805 14.4697C7.87692 14.5414 8.05407 14.5291 8.16093 14.415L13.1395 9.09914C13.2165 9.01694 13.2402 8.89878 13.2063 8.79138C12.7614 7.38041 12.999 5.77932 14.0375 4.74084C14.7624 4.01597 15.7386 3.59692 16.7452 3.56901Z" fill="#205CDF"/>
</svg>
