<svg width="24" height="25" viewBox="0 0 24 25" fill="none" xmlns="http://www.w3.org/2000/svg">
<path d="M3 10.1252C3 9.18244 3 8.71103 3.29289 8.41814C3.58579 8.12524 4.05719 8.12524 5 8.12524H19C19.9428 8.12524 20.4142 8.12524 20.7071 8.41814C21 8.71103 21 9.18244 21 10.1252V11.6252C21 12.0912 21 12.3242 20.9239 12.5079C20.8224 12.753 20.6277 12.9476 20.3827 13.0491C20.1989 13.1252 19.9659 13.1252 19.5 13.1252V13.1252C19.0341 13.1252 18.8011 13.1252 18.6173 13.2014C18.3723 13.3029 18.1776 13.4975 18.0761 13.7426C18 13.9263 18 14.1593 18 14.6252V18.1252C18 19.0681 18 19.5395 17.7071 19.8324C17.4142 20.1252 16.9428 20.1252 16 20.1252H8C7.05719 20.1252 6.58579 20.1252 6.29289 19.8324C6 19.5395 6 19.0681 6 18.1252V14.6252C6 14.1593 6 13.9263 5.92388 13.7426C5.82239 13.4975 5.62771 13.3029 5.38268 13.2014C5.19891 13.1252 4.96594 13.1252 4.5 13.1252V13.1252C4.03406 13.1252 3.80109 13.1252 3.61732 13.0491C3.37229 12.9476 3.17761 12.753 3.07612 12.5079C3 12.3242 3 12.0912 3 11.6252V10.1252Z" stroke="currentColor" stroke-linecap="round" stroke-linejoin="round"/>
<path d="M5 13.1252H19" stroke="currentColor" stroke-linecap="round" stroke-linejoin="round"/>
<path d="M12 7.12524L12 20.1252" stroke="currentColor" stroke-linecap="round" stroke-linejoin="round"/>
<path d="M12 7.12524L11.1214 6.24669C10.0551 5.18038 8.75521 4.37698 7.3246 3.90011V3.90011C6.18099 3.51891 5 4.37012 5 5.57559V5.7577C5 6.57438 5.52259 7.29944 6.29737 7.5577L8 8.12524" stroke="currentColor" stroke-linecap="round" stroke-linejoin="round"/>
<path d="M12 7.12524L12.8786 6.24669C13.9449 5.18038 15.2448 4.37698 16.6754 3.90011V3.90011C17.819 3.51891 19 4.37012 19 5.57559V5.7577C19 6.57438 18.4774 7.29944 17.7026 7.5577L16 8.12524" stroke="currentColor" stroke-linecap="round" stroke-linejoin="round"/>
</svg>
