<svg width="24" height="25" viewBox="0 0 24 25" fill="none" xmlns="http://www.w3.org/2000/svg">
<path d="M2.5 6.12524C2.5 5.8491 2.27614 5.62524 2 5.62524C1.72386 5.62524 1.5 5.8491 1.5 6.12524H2.5ZM1.5 18.1252C1.5 18.4014 1.72386 18.6252 2 18.6252C2.27614 18.6252 2.5 18.4014 2.5 18.1252H1.5ZM22 16.1252H22.5V15.6252H22V16.1252ZM21.5 18.1252C21.5 18.4014 21.7239 18.6252 22 18.6252C22.2761 18.6252 22.5 18.4014 22.5 18.1252H21.5ZM1.5 6.12524V16.1252H2.5V6.12524H1.5ZM1.5 16.1252V18.1252H2.5V16.1252H1.5ZM21.5 16.1252V18.1252H22.5V16.1252H21.5ZM22.5 18.1252V13.1252H21.5V18.1252H22.5ZM17 7.62524H14V8.62524H17V7.62524ZM2 16.6252H12V15.6252H2V16.6252ZM12 16.6252H22V15.6252H12V16.6252ZM11.5 10.1252V16.1252H12.5V10.1252H11.5ZM14 7.62524C12.6193 7.62524 11.5 8.74453 11.5 10.1252H12.5C12.5 9.29682 13.1716 8.62524 14 8.62524V7.62524ZM22.5 13.1252C22.5 10.0877 20.0376 7.62524 17 7.62524V8.62524C19.4853 8.62524 21.5 10.64 21.5 13.1252H22.5Z" fill="currentColor"/>
<circle cx="7" cy="11.1252" r="3" stroke="currentColor"/>
</svg>
