<svg width="24" height="25" viewBox="0 0 24 25" fill="none" xmlns="http://www.w3.org/2000/svg">
<path d="M6.8874 5.29682C7.46546 4.71876 7.75449 4.42973 8.12203 4.27749C8.48957 4.12524 8.89832 4.12524 9.71582 4.12524H14.326C15.1517 4.12524 15.5646 4.12524 15.9351 4.2803C16.3056 4.43535 16.5954 4.72943 17.175 5.31759L18.849 7.01629C19.4171 7.5927 19.7011 7.8809 19.8505 8.24548C20 8.61006 20 9.01469 20 9.82395V14.4684C20 15.2859 20 15.6946 19.8478 16.0622C19.6955 16.4297 19.4065 16.7188 18.8284 17.2968L17.1716 18.9537C16.5935 19.5317 16.3045 19.8208 15.9369 19.973C15.5694 20.1252 15.1606 20.1252 14.3431 20.1252H9.69871C8.88945 20.1252 8.48482 20.1252 8.12024 19.9758C7.75566 19.8263 7.46745 19.5423 6.89105 18.9743L5.19235 17.3003C4.60419 16.7207 4.31011 16.4308 4.15505 16.0604C4 15.6899 4 15.277 4 14.4512V9.84107C4 9.02357 4 8.61482 4.15224 8.24727C4.30448 7.87973 4.59351 7.5907 5.17157 7.01264L6.8874 5.29682Z" stroke="currentColor" stroke-linecap="round" stroke-linejoin="round"/>
<path d="M8 11.1252L8.42229 11.3364C10.6745 12.4625 13.3255 12.4625 15.5777 11.3364L16 11.1252" stroke="currentColor" stroke-linecap="round" stroke-linejoin="round"/>
<path d="M12 12.6252V14.1252" stroke="currentColor" stroke-linecap="round" stroke-linejoin="round"/>
<path d="M9 12.1252L8.5 13.1252" stroke="currentColor" stroke-linecap="round" stroke-linejoin="round"/>
<path d="M15 12.1252L15.5 13.1252" stroke="currentColor" stroke-linecap="round" stroke-linejoin="round"/>
</svg>
