<svg width="24" height="24" viewBox="0 0 24 24" fill="none" xmlns="http://www.w3.org/2000/svg">
<path fill-rule="evenodd" clip-rule="evenodd" d="M20.8625 12.0257L20.8462 12.7805L21.7339 11.8861C21.9551 11.6631 22.3118 11.6618 22.5346 11.8863C22.7546 12.108 22.7558 12.4628 22.5347 12.6857L20.6996 14.5356C20.5889 14.6472 20.4448 14.7032 20.2998 14.7034C20.1548 14.7036 20.0105 14.648 19.8988 14.5355L18.0637 12.6857C17.8439 12.464 17.8427 12.1092 18.0639 11.8863C18.2853 11.663 18.6421 11.6617 18.8647 11.8861L19.7166 12.7449L19.7322 12.0354C19.7335 11.974 19.7343 11.9123 19.7343 11.8501C19.7343 7.58562 16.3056 4.1337 12.082 4.1337C7.85822 4.1337 4.42943 7.58587 4.42943 11.8501C4.42943 16.1143 7.85811 19.5665 12.082 19.5665C13.6707 19.5665 15.1469 19.078 16.3704 18.2418C16.5863 18.0943 16.8736 18.0921 17.081 18.2513C17.3743 18.4766 17.3825 18.9169 17.0793 19.1287C15.6609 20.1195 13.939 20.7 12.0824 20.7C7.22944 20.7 3.30005 16.7351 3.30005 11.85C3.30005 6.96488 7.22944 3 12.0824 3C16.9353 3 20.8647 6.96488 20.8647 11.85C20.8647 11.9077 20.8638 11.9661 20.8625 12.0257Z" fill="currentColor"/>
<path fill-rule="evenodd" clip-rule="evenodd" d="M11.5 8C11.7761 8 12 8.22386 12 8.5V11.5H16C16.2761 11.5 16.5 11.7239 16.5 12C16.5 12.2761 16.2761 12.5 16 12.5H11.75C11.3358 12.5 11 12.1642 11 11.75V8.5C11 8.22386 11.2239 8 11.5 8Z" fill="currentColor"/>
</svg>
