<svg width="21" height="20" viewBox="0 0 21 20" fill="none" xmlns="http://www.w3.org/2000/svg">
<path fill-rule="evenodd" clip-rule="evenodd" d="M1.37939 6.4491C0.987305 7.19275 0.987305 8.03877 0.987305 9.73081V15.0152C0.987305 17.3651 0.987305 18.54 1.82414 19.27C2.66098 20 4.00785 20 6.70159 20H6.9873V19V13C6.9873 11.3431 8.33045 10 9.9873 10H11.9873C13.6442 10 14.9873 11.3431 14.9873 13V19V20H15.273C17.9668 20 19.3136 20 20.1505 19.27C20.9873 18.54 20.9873 17.3651 20.9873 15.0152V15.0152V9.73081C20.9873 8.03877 20.9873 7.19275 20.5952 6.4491C20.2031 5.70544 19.4668 5.15486 17.9941 4.05369L16.5655 2.98552C13.9036 0.995172 12.5727 0 10.9873 0C9.40192 0 8.07098 0.995172 5.40909 2.98552L3.98052 4.05369C2.50783 5.15485 1.77148 5.70544 1.37939 6.4491ZM12.9873 20V19V13C12.9873 12.4477 12.5396 12 11.9873 12H9.9873C9.43502 12 8.9873 12.4477 8.9873 13V19V20H12.9873Z" fill="currentColor"/>
</svg>
