<svg width="21" height="20" viewBox="0 0 21 20" fill="none" xmlns="http://www.w3.org/2000/svg">
<path d="M10.9873 0.5C11.6623 0.5 12.3041 0.707865 13.123 1.17969C13.9547 1.65883 14.9253 2.38352 16.2656 3.38574L17.6943 4.4541C18.4371 5.0095 18.9707 5.40904 19.3691 5.76074C19.7617 6.10726 19.9962 6.38456 20.1533 6.68262C20.4742 7.29153 20.4873 7.98885 20.4873 9.73047V15.0156C20.4873 16.2064 20.486 17.0421 20.3887 17.6738C20.2947 18.2835 20.1212 18.6328 19.8223 18.8936C19.5135 19.1629 19.0835 19.326 18.3496 19.4121C17.6076 19.4991 16.6323 19.5 15.2734 19.5H6.70117C5.34229 19.5 4.36699 19.4991 3.625 19.4121C2.89107 19.326 2.46114 19.1629 2.15234 18.8936C1.85344 18.6328 1.67989 18.2835 1.58594 17.6738C1.48858 17.0421 1.48731 16.2064 1.4873 15.0156V9.73047C1.48731 7.98885 1.50041 7.29153 1.82129 6.68262C1.97844 6.38456 2.21294 6.10726 2.60547 5.76074C3.00391 5.40904 3.53749 5.0095 4.28027 4.4541L5.70898 3.38574C7.04935 2.38352 8.01993 1.65883 8.85156 1.17969C9.67049 0.707865 10.3123 0.5 10.9873 0.5Z" stroke="currentColor"/>
<path d="M13.9873 19.0909V12.9091C13.9873 11.8045 13.0919 10.9091 11.9873 10.9091H9.9873C8.88274 10.9091 7.9873 11.8045 7.9873 12.9091V19.0909" stroke="currentColor" stroke-linecap="square" stroke-linejoin="round"/>
</svg>
