<svg width="24" height="25" viewBox="0 0 24 25" fill="none" xmlns="http://www.w3.org/2000/svg">
<path d="M11.1289 3.25122C11.679 2.82113 12.4605 2.8517 12.9775 3.34302L13.3389 3.69165C14.2531 4.5902 15.6452 6.06959 16.873 7.83423C18.267 9.83762 19.5 12.2807 19.5 14.6965C19.5 18.5623 16.1012 21.6252 12 21.6252C7.8988 21.6252 4.5 18.5623 4.5 14.6965C4.50005 12.2807 5.73301 9.83762 7.12695 7.83423C8.5303 5.81737 10.1488 4.17342 11.0225 3.34302L11.1289 3.25122Z" stroke="currentColor" stroke-linecap="round" stroke-linejoin="round"/>
<path d="M12 18.1252C11.4747 18.1252 10.9546 18.0218 10.4693 17.8208C9.98396 17.6197 9.54301 17.3251 9.17157 16.9537C8.80014 16.5822 8.5055 16.1413 8.30448 15.656C8.10346 15.1707 8 14.6505 8 14.1252" stroke="currentColor" stroke-linecap="round" stroke-linejoin="round"/>
</svg>
