<svg width="24" height="25" viewBox="0 0 24 25" fill="none" xmlns="http://www.w3.org/2000/svg">
<path d="M21 11.1252V13.1252C21 16.8965 21 18.7821 19.8284 19.9537C18.6569 21.1252 16.7712 21.1252 13 21.1252H11C7.22876 21.1252 5.34315 21.1252 4.17157 19.9537C3 18.7821 3 16.8965 3 13.1252V11.1252C3 7.35401 3 5.46839 4.17157 4.29682C5.34315 3.12524 7.22876 3.12524 11 3.12524H12" stroke="currentColor" stroke-linecap="round" stroke-linejoin="round"/>
<path fill-rule="evenodd" clip-rule="evenodd" d="M18.9976 14.4155L18.4033 13.8212L18.3931 13.811L18.393 13.8109C18.3245 13.7424 18.2785 13.6963 18.2394 13.6605C17.0477 12.5654 15.1454 12.8741 14.3611 14.2898C14.3354 14.3362 14.3062 14.3945 14.2629 14.4813L14.2564 14.4942C14.227 14.553 14.22 14.5667 14.2161 14.5738C14.0513 14.87 13.6458 14.9199 13.4142 14.6725C13.4087 14.6666 13.3985 14.655 13.3557 14.605L8.37964 8.79961C8.19993 8.58995 7.88428 8.56567 7.67461 8.74538C7.46495 8.92509 7.44067 9.24074 7.62038 9.4504L12.5965 15.2558L12.6038 15.2644L12.6038 15.2644C12.6352 15.301 12.6614 15.3317 12.6843 15.356C13.3793 16.0982 14.5957 15.9484 15.09 15.0599C15.1062 15.0307 15.1242 14.9946 15.1458 14.9514L15.1508 14.9414C15.203 14.8371 15.2218 14.7997 15.2358 14.7744C15.7064 13.925 16.8478 13.7398 17.5628 14.3968C17.5841 14.4164 17.6138 14.4459 17.6962 14.5283L18.9756 15.8077C18.9887 15.3973 18.9948 14.9371 18.9976 14.4155Z" fill="currentColor"/>
<path d="M21 8.12524V3.12524M21 3.12524H16M21 3.12524L16 7.12524" stroke="currentColor" stroke-linecap="round" stroke-linejoin="round"/>
</svg>
