<svg width="24" height="22" viewBox="0 0 24 22" fill="none" xmlns="http://www.w3.org/2000/svg">
<path d="M0.0747995 18.7265C0.223697 18.1705 0.580266 17.7057 1.07888 17.4177C2.10793 16.8236 3.42841 17.1772 4.02302 18.2063C4.61714 19.2354 4.26351 20.5563 3.23396 21.1504C2.89552 21.3459 2.52572 21.4389 2.15985 21.4389C1.41438 21.4389 0.688511 21.0525 0.289819 20.3619C0.00182104 19.8633 -0.0745864 19.2824 0.0743108 18.7265H0.0747995ZM1.3081 19.7741C1.57798 20.2419 2.17846 20.403 2.64621 20.1327C3.11396 19.8628 3.27462 19.2623 3.00474 18.7945C2.73487 18.3268 2.13438 18.1656 1.66663 18.436C1.43985 18.5668 1.27773 18.7779 1.21014 19.0306C1.14255 19.2834 1.17732 19.5474 1.3081 19.7741Z" fill="currentColor"/>
<path d="M19.9775 18.2131C20.5716 17.1841 21.8921 16.8299 22.9216 17.4245C23.4202 17.7125 23.7768 18.1769 23.9257 18.7333C24.0746 19.2897 23.9982 19.8701 23.7102 20.3687C23.3115 21.0593 22.5856 21.4457 21.8402 21.4457C21.4748 21.4457 21.105 21.3527 20.766 21.1573C19.737 20.5631 19.3829 19.2427 19.977 18.2136L19.9775 18.2131ZM21.3543 20.139C21.822 20.4088 22.4225 20.2482 22.6924 19.7804C22.8232 19.5537 22.8579 19.2897 22.7904 19.0369C22.7228 18.7842 22.5606 18.5731 22.3339 18.4423C22.1801 18.3537 22.0116 18.3111 21.8455 18.3111C21.5066 18.3111 21.177 18.4869 20.9958 18.8009C20.7259 19.2686 20.8865 19.8691 21.3543 20.139Z" fill="currentColor"/>
<path d="M11.9983 4.43626C11.6329 4.43626 11.2631 4.3432 10.9242 4.14777C10.4256 3.85977 10.069 3.39545 9.92009 2.83904C9.77119 2.28264 9.8476 1.70223 10.1356 1.20362C10.4236 0.705014 10.8879 0.348445 11.4443 0.199548C12.0007 0.0506506 12.5811 0.127058 13.0797 0.415057C14.1088 1.00918 14.4629 2.32966 13.8688 3.3592C13.4701 4.04981 12.7442 4.43626 11.9988 4.43626H11.9983ZM12.4915 1.43334C12.3406 1.34615 12.1731 1.30158 12.0032 1.30158C11.918 1.30158 11.8322 1.31285 11.748 1.33538C11.4953 1.40297 11.2842 1.56509 11.1534 1.79186C11.0226 2.01864 10.9878 2.28264 11.0554 2.53537C11.123 2.7881 11.2851 2.9992 11.5119 3.12998C11.9797 3.39985 12.5802 3.2392 12.85 2.77145C13.1199 2.3037 12.9593 1.70321 12.4915 1.43334Z" fill="currentColor"/>
<path d="M12.5864 9.04174C12.5585 9.34003 12.3073 9.57366 12.0016 9.57366C11.6769 9.57366 11.4139 9.31064 11.4139 8.98591V6.894H11.2189C11.2189 6.894 11.2175 6.894 11.217 6.894C11.1994 6.894 11.1822 6.89302 11.1646 6.89155C11.1597 6.89155 11.1548 6.89057 11.1499 6.89008C11.1362 6.88861 11.1229 6.88665 11.1092 6.88371C11.1048 6.88273 11.1009 6.88224 11.0965 6.88127C11.0803 6.87784 11.0637 6.87343 11.048 6.86853C11.0436 6.86706 11.0397 6.86559 11.0353 6.86461C11.0225 6.8602 11.0098 6.8558 10.9976 6.8509C10.9932 6.84943 10.9892 6.84747 10.9848 6.846C10.9535 6.83229 10.9231 6.81612 10.8942 6.79653C10.8908 6.79408 10.8874 6.79163 10.8839 6.78918C10.8732 6.78135 10.8619 6.77351 10.8516 6.76518C10.8482 6.76225 10.8447 6.7598 10.8413 6.75686C10.8281 6.74608 10.8154 6.73433 10.8031 6.72208C10.8031 6.72208 10.8031 6.72159 10.8026 6.7211C10.7894 6.70788 10.7767 6.69368 10.7644 6.67898C10.7585 6.67212 10.7536 6.66478 10.7483 6.65743C10.7424 6.6491 10.736 6.64127 10.7301 6.63294C10.7243 6.62412 10.7194 6.61531 10.714 6.60649C10.7096 6.59865 10.7047 6.59131 10.7003 6.58347C10.6954 6.57465 10.6914 6.56535 10.687 6.55604C10.6831 6.54772 10.6792 6.53988 10.6753 6.53106C10.6714 6.52225 10.6684 6.51294 10.6655 6.50412C10.6621 6.49531 10.6586 6.486 10.6562 6.4767C10.6532 6.46739 10.6513 6.45808 10.6488 6.44878C10.6464 6.43947 10.6439 6.43017 10.642 6.42086C10.64 6.41008 10.6385 6.39931 10.6371 6.38853C10.6361 6.38021 10.6341 6.37237 10.6336 6.36404C10.6297 6.32584 10.6297 6.28715 10.6336 6.24845C10.6336 6.24649 10.6336 6.24453 10.6336 6.24258C10.6346 6.23425 10.6361 6.22641 10.6371 6.21858C10.6385 6.2078 10.64 6.19653 10.642 6.18576C10.6439 6.17645 10.6464 6.16715 10.6488 6.15784C10.6513 6.14854 10.6532 6.13923 10.6562 6.12992C10.6591 6.12062 10.6625 6.1118 10.6655 6.10298C10.6689 6.09368 10.6718 6.08486 10.6753 6.07556C10.6787 6.06723 10.6826 6.05939 10.6865 6.05107C10.6909 6.04176 10.6949 6.03245 10.6998 6.02364C10.7037 6.0158 10.7086 6.00845 10.713 6.00111C10.7184 5.99229 10.7233 5.98299 10.7292 5.97417C10.7345 5.96584 10.7409 5.95801 10.7468 5.95017C10.7522 5.94282 10.7576 5.93499 10.7634 5.92813C10.7747 5.91441 10.7869 5.9007 10.7997 5.88797C10.8007 5.88699 10.8012 5.88601 10.8021 5.88503L11.5848 5.10234C11.5976 5.0896 11.6108 5.07785 11.6245 5.06658C11.6289 5.06315 11.6333 5.05973 11.6377 5.0563C11.6475 5.04846 11.6573 5.04111 11.6676 5.03426C11.6725 5.03083 11.6774 5.0274 11.6823 5.02397C11.696 5.01515 11.7102 5.00634 11.7249 4.99899C11.7293 4.99654 11.7337 4.99458 11.7381 4.99262C11.7489 4.98724 11.7597 4.98234 11.7709 4.97744C11.7773 4.9745 11.7837 4.97205 11.7905 4.9696C11.8003 4.96569 11.8106 4.96226 11.8209 4.95883C11.8268 4.95687 11.8331 4.95491 11.839 4.95295C11.8547 4.94854 11.8704 4.94462 11.8865 4.9412C11.89 4.94071 11.8934 4.94022 11.8968 4.93973C11.9105 4.93728 11.9238 4.93532 11.9375 4.93385C11.9429 4.93336 11.9482 4.93287 11.9536 4.93238C11.9659 4.9314 11.9781 4.93091 11.9909 4.93042C11.9958 4.93042 12.0007 4.93042 12.0056 4.93042C12.0227 4.93042 12.0393 4.9314 12.0565 4.93287C12.0575 4.93287 12.0585 4.93287 12.0594 4.93287C12.0751 4.93434 12.0908 4.93679 12.1065 4.93973C12.1123 4.94071 12.1182 4.94218 12.1246 4.94364C12.1353 4.94609 12.1456 4.94854 12.1559 4.95148C12.1628 4.95344 12.1696 4.9554 12.1765 4.95736C12.1868 4.96079 12.1971 4.96422 12.2069 4.96813C12.2127 4.97058 12.2191 4.97254 12.225 4.97499C12.2397 4.98136 12.2539 4.98822 12.2681 4.99507C12.274 4.99801 12.2798 5.00144 12.2857 5.00487C12.2955 5.01026 12.3048 5.01564 12.3141 5.02152C12.3195 5.02495 12.3254 5.02887 12.3308 5.0323C12.342 5.04013 12.3533 5.04846 12.3641 5.05679C12.367 5.05875 12.3695 5.06071 12.3724 5.06315C12.3861 5.07442 12.3993 5.08666 12.4121 5.09891C12.4131 5.09989 12.4145 5.10087 12.4155 5.10234L13.1982 5.88503C13.1982 5.88503 13.2002 5.88699 13.2006 5.88797C13.2134 5.9007 13.2256 5.91392 13.2369 5.92813C13.2428 5.93548 13.2482 5.94282 13.2535 5.95017C13.2594 5.95801 13.2658 5.96584 13.2712 5.97417C13.2771 5.98299 13.282 5.9918 13.2873 6.00111C13.2918 6.00845 13.2966 6.0158 13.3006 6.02364C13.3055 6.03294 13.3094 6.04225 13.3138 6.05156C13.3177 6.05988 13.3216 6.06772 13.3251 6.07605C13.329 6.08486 13.3319 6.09417 13.3353 6.10347C13.3388 6.11229 13.3422 6.12111 13.3446 6.13041C13.3476 6.13972 13.3495 6.14903 13.352 6.15833C13.3544 6.16764 13.3569 6.17645 13.3589 6.18625C13.3608 6.19702 13.3623 6.20829 13.3637 6.21907C13.3647 6.2269 13.3662 6.23523 13.3672 6.24307C13.3711 6.28176 13.3711 6.32045 13.3672 6.35915C13.3672 6.3611 13.3672 6.36257 13.3672 6.36453C13.3662 6.37286 13.3647 6.3807 13.3637 6.38853C13.3623 6.39931 13.3608 6.41057 13.3589 6.42135C13.3569 6.43066 13.3544 6.43996 13.352 6.44878C13.3495 6.45808 13.3476 6.46739 13.3446 6.4767C13.3417 6.486 13.3383 6.49433 13.3353 6.50315C13.3319 6.51245 13.329 6.52176 13.3251 6.53057C13.3216 6.5389 13.3177 6.54674 13.3138 6.55457C13.3094 6.56388 13.3055 6.57319 13.3006 6.58249C13.2966 6.59033 13.2918 6.59768 13.2873 6.60502C13.282 6.61384 13.2771 6.62314 13.2712 6.63196C13.2658 6.64029 13.2594 6.64763 13.2535 6.65547C13.2482 6.66282 13.2428 6.67065 13.2369 6.678C13.2256 6.69172 13.2134 6.70543 13.2006 6.71816C13.1997 6.71914 13.1987 6.72012 13.1982 6.7211C13.1972 6.72208 13.1962 6.72257 13.1953 6.72355C13.1825 6.73629 13.1688 6.74853 13.1551 6.7598C13.1482 6.76567 13.1409 6.77057 13.1335 6.77596C13.1252 6.78184 13.1174 6.7882 13.1091 6.79408C13.1007 6.79996 13.0919 6.80486 13.0831 6.80976C13.0753 6.81465 13.0679 6.81906 13.0596 6.82347C13.0508 6.82837 13.0415 6.83229 13.0326 6.8362C13.0243 6.84012 13.016 6.84453 13.0077 6.84796C12.9989 6.85139 12.99 6.85433 12.9812 6.85776C12.9719 6.86118 12.9631 6.86461 12.9538 6.86755C12.945 6.87 12.9357 6.87245 12.9269 6.87441C12.9171 6.87686 12.9078 6.87931 12.898 6.88127C12.8877 6.88322 12.8774 6.88469 12.8671 6.88616C12.8583 6.88763 12.85 6.8891 12.8411 6.89008C12.822 6.89204 12.8024 6.89302 12.7833 6.89302H12.5889V8.97954C12.5889 9.00011 12.5879 9.02019 12.586 9.04027L12.5864 9.04174Z" fill="currentColor"/>
<path d="M4.40259 17.624C4.40259 17.6176 4.40308 17.6112 4.40356 17.6049C4.40454 17.5907 4.40601 17.5765 4.40846 17.5623C4.40846 17.5593 4.40895 17.5564 4.40944 17.5534C4.41238 17.5358 4.4163 17.5182 4.42071 17.5005C4.42071 17.4991 4.4212 17.4976 4.42169 17.4961L4.70822 16.4274C4.71311 16.4088 4.71948 16.3902 4.72634 16.3716C4.72928 16.3637 4.73271 16.3569 4.73564 16.3495C4.74005 16.3392 4.74397 16.329 4.74887 16.3192C4.75328 16.3108 4.75769 16.3025 4.76258 16.2947C4.76748 16.2858 4.77189 16.2775 4.77679 16.2692C4.78168 16.2614 4.78707 16.254 4.79246 16.2462C4.79834 16.2379 4.80373 16.2295 4.8096 16.2217C4.81499 16.2148 4.82038 16.2085 4.82626 16.2021C4.83311 16.1938 4.83997 16.1859 4.84732 16.1781C4.8527 16.1722 4.85907 16.1668 4.86495 16.161C4.87279 16.1531 4.88062 16.1453 4.88895 16.1384C4.89581 16.1325 4.90315 16.1272 4.91001 16.1218C4.91785 16.1154 4.92568 16.109 4.93401 16.1027C4.94675 16.0939 4.95948 16.0855 4.9727 16.0777C4.97613 16.0757 4.97907 16.0733 4.9825 16.0713C4.98544 16.0699 4.98838 16.0684 4.99083 16.0669C5.00503 16.0591 5.01923 16.0517 5.03393 16.0449C5.04274 16.041 5.05205 16.0375 5.06087 16.0341C5.06968 16.0307 5.0785 16.0267 5.08781 16.0238C5.0976 16.0204 5.1074 16.0179 5.11768 16.015C5.12601 16.0125 5.13483 16.0101 5.14315 16.0076C5.15295 16.0052 5.16225 16.0037 5.17205 16.0023C5.18136 16.0008 5.19066 15.9988 5.19997 15.9974C5.20878 15.9964 5.2176 15.9959 5.22691 15.9949C5.23719 15.9939 5.24748 15.993 5.25776 15.9925C5.26609 15.9925 5.27491 15.9925 5.28323 15.9925C5.29401 15.9925 5.30478 15.9925 5.31556 15.993C5.32487 15.9934 5.33417 15.9949 5.34348 15.9959C5.35327 15.9969 5.36258 15.9979 5.37238 15.9993C5.3905 16.0023 5.40862 16.0062 5.42625 16.0111C5.42723 16.0111 5.42772 16.0111 5.4287 16.0116C5.42968 16.0116 5.43066 16.0121 5.43164 16.0125C5.44927 16.0174 5.46642 16.0228 5.48356 16.0292C5.49189 16.0326 5.50021 16.0365 5.50854 16.04C5.51784 16.0439 5.52715 16.0478 5.53646 16.0522C5.54576 16.0566 5.55458 16.062 5.56339 16.0669C5.57123 16.0713 5.57907 16.0752 5.58691 16.0801C5.59523 16.0855 5.60356 16.0914 5.61139 16.0968C5.61923 16.1022 5.62658 16.1071 5.63441 16.113C5.64225 16.1188 5.64862 16.1247 5.65597 16.1306C5.6638 16.137 5.67115 16.1433 5.6785 16.1502C5.68486 16.1565 5.69123 16.1629 5.69711 16.1693C5.70446 16.1766 5.7118 16.184 5.71817 16.1913C5.72454 16.1987 5.73041 16.2065 5.73678 16.2143C5.74266 16.2217 5.74854 16.2285 5.75392 16.2364C5.76421 16.2506 5.77352 16.2648 5.78184 16.28C5.78282 16.2819 5.78429 16.2834 5.78527 16.2849L5.88274 16.4538L7.69448 15.4081C7.97562 15.246 8.33513 15.342 8.49725 15.6232C8.65938 15.9043 8.56338 16.2638 8.28224 16.4259L6.47049 17.4716L6.56796 17.6406C6.56796 17.6406 6.56845 17.6416 6.56894 17.6426C6.57776 17.6578 6.58559 17.6734 6.59294 17.6891C6.5949 17.6935 6.59686 17.6979 6.59882 17.7023C6.6042 17.7151 6.6091 17.7278 6.614 17.741C6.61547 17.7449 6.61694 17.7489 6.61841 17.7528C6.6238 17.7685 6.62821 17.7846 6.63163 17.8013C6.63261 17.8057 6.63359 17.8101 6.63457 17.815C6.63751 17.8277 6.63947 17.8409 6.64143 17.8537C6.64192 17.8586 6.6429 17.863 6.64339 17.8679C6.64731 17.9017 6.64829 17.936 6.64584 17.9707C6.64584 17.9751 6.64535 17.9796 6.64486 17.984C6.64388 17.9972 6.64241 18.0099 6.64045 18.0231C6.63996 18.028 6.63898 18.0325 6.63849 18.0373C6.63555 18.0535 6.63212 18.0702 6.62771 18.0863C6.62771 18.0873 6.62723 18.0883 6.62674 18.0893C6.62233 18.1059 6.61694 18.1226 6.61106 18.1387C6.6091 18.1436 6.60714 18.148 6.60518 18.1525C6.60029 18.1647 6.59539 18.1765 6.59 18.1882C6.58755 18.1936 6.58461 18.1985 6.58216 18.2039C6.57678 18.2147 6.5709 18.2254 6.56502 18.2357C6.56159 18.2411 6.55816 18.2465 6.55474 18.2519C6.54837 18.2617 6.542 18.271 6.53514 18.2803C6.53123 18.2857 6.52731 18.2911 6.52339 18.296C6.51604 18.3053 6.5087 18.3141 6.50086 18.3229C6.49694 18.3273 6.49302 18.3322 6.48861 18.3366C6.47686 18.3493 6.46412 18.3616 6.45139 18.3733C6.44894 18.3753 6.44649 18.3773 6.44355 18.3797C6.43229 18.3895 6.42102 18.3988 6.40878 18.4076C6.40388 18.4111 6.39898 18.4145 6.39359 18.4179C6.38331 18.4253 6.37253 18.4321 6.36176 18.4385C6.35882 18.4404 6.35637 18.4424 6.35343 18.4439C6.35147 18.4449 6.34951 18.4458 6.34755 18.4468C6.32796 18.4581 6.30739 18.4679 6.28633 18.4767C6.28241 18.4782 6.27849 18.4796 6.27457 18.4811C6.25547 18.4884 6.23637 18.4948 6.21678 18.5007C6.21335 18.5017 6.20992 18.5027 6.20649 18.5036C6.18543 18.509 6.16388 18.5129 6.14184 18.5164C6.13694 18.5169 6.13204 18.5178 6.12715 18.5183C6.10511 18.5208 6.08258 18.5227 6.06005 18.5227C6.0287 18.5227 5.99637 18.5193 5.96453 18.5139C5.94592 18.511 5.92682 18.5075 5.9087 18.5027C5.9087 18.5027 5.90772 18.5027 5.90723 18.5027L4.83801 18.2161C4.82087 18.2112 4.80373 18.2058 4.78707 18.1995C4.78169 18.1975 4.7763 18.1956 4.7714 18.1931C4.76013 18.1887 4.74887 18.1838 4.7376 18.1784C4.73222 18.176 4.72634 18.1735 4.72095 18.1706C4.70675 18.1632 4.69254 18.1554 4.67883 18.1466C4.67442 18.1436 4.67001 18.1407 4.6656 18.1378C4.65581 18.1314 4.64601 18.1245 4.63622 18.1172C4.63083 18.1128 4.62495 18.1084 4.61956 18.104C4.61124 18.0971 4.6034 18.0902 4.59556 18.0834C4.59067 18.079 4.58577 18.0751 4.58136 18.0702C4.5696 18.0589 4.55834 18.0471 4.54756 18.0349C4.54561 18.0325 4.54365 18.0295 4.5412 18.0271C4.53238 18.0163 4.52356 18.0055 4.51524 17.9942C4.5123 17.9898 4.50887 17.9854 4.50593 17.981C4.49858 17.9707 4.49222 17.96 4.48536 17.9492C4.48291 17.9453 4.48046 17.9413 4.47801 17.9369C4.46969 17.9222 4.46136 17.9071 4.4545 17.8914C4.44765 17.8762 4.44128 17.8605 4.43589 17.8449C4.43393 17.8395 4.43246 17.8341 4.4305 17.8287C4.42708 17.8179 4.42365 17.8071 4.4212 17.7964C4.41973 17.79 4.41777 17.7831 4.4163 17.7768C4.41385 17.766 4.41189 17.7547 4.40993 17.744C4.40895 17.7381 4.40748 17.7317 4.40699 17.7258C4.40699 17.7258 4.40699 17.7258 4.40699 17.7254C4.40503 17.7097 4.40357 17.6935 4.40259 17.6778C4.40259 17.6715 4.40259 17.6646 4.40259 17.6582C4.40259 17.647 4.40259 17.6357 4.40259 17.6245V17.624Z" fill="currentColor"/>
<path d="M16.306 15.414L18.1177 16.4597L18.2152 16.2907C18.2152 16.2907 18.2157 16.2897 18.2162 16.2892C18.225 16.274 18.2348 16.2594 18.2446 16.2452C18.2475 16.2412 18.25 16.2373 18.2529 16.2339C18.2612 16.2226 18.2701 16.2118 18.2789 16.2016C18.2813 16.1986 18.2843 16.1952 18.2867 16.1923C18.298 16.1795 18.3097 16.1678 18.322 16.156C18.3249 16.1531 18.3283 16.1501 18.3318 16.1472C18.3416 16.1384 18.3523 16.1296 18.3631 16.1212C18.3665 16.1183 18.37 16.1158 18.3739 16.1129C18.4013 16.0923 18.4307 16.0742 18.4621 16.059C18.4655 16.0571 18.4694 16.0556 18.4728 16.0536C18.4851 16.0478 18.4978 16.0424 18.5105 16.0375C18.5145 16.036 18.5184 16.0345 18.5223 16.0331C18.5385 16.0272 18.5546 16.0218 18.5718 16.0174C18.5737 16.0169 18.5762 16.0164 18.5781 16.0159C18.5948 16.0115 18.6114 16.0081 18.6281 16.0052C18.6374 16.0037 18.6467 16.0027 18.656 16.0017C18.6658 16.0007 18.6756 15.9993 18.6854 15.9983C18.6957 15.9978 18.706 15.9978 18.7163 15.9978C18.7251 15.9978 18.7344 15.9973 18.7432 15.9978C18.753 15.9978 18.7628 15.9993 18.7731 16.0003C18.7824 16.0012 18.7917 16.0017 18.801 16.0027C18.8103 16.0037 18.8191 16.0056 18.8284 16.0076C18.8382 16.0096 18.848 16.011 18.8578 16.013C18.8666 16.0149 18.8749 16.0179 18.8838 16.0203C18.8936 16.0233 18.9034 16.0257 18.9132 16.0292C18.9225 16.0321 18.9318 16.0365 18.9406 16.0399C18.9494 16.0434 18.9582 16.0463 18.9665 16.0502C18.9822 16.0571 18.9974 16.0649 19.0121 16.0737C19.0141 16.0747 19.016 16.0757 19.018 16.0767C19.0199 16.0781 19.0219 16.0796 19.0243 16.0806C19.039 16.0894 19.0532 16.0982 19.0665 16.108C19.0743 16.1139 19.0816 16.1198 19.0895 16.1261C19.0968 16.132 19.1047 16.1374 19.1115 16.1438C19.1198 16.1506 19.1272 16.1585 19.1345 16.1658C19.1404 16.1717 19.1468 16.1776 19.1527 16.1834C19.16 16.1913 19.1664 16.1991 19.1732 16.2074C19.1786 16.2143 19.1845 16.2207 19.1899 16.2275C19.1958 16.2354 19.2012 16.2437 19.207 16.252C19.2124 16.2598 19.2178 16.2672 19.2227 16.275C19.2281 16.2834 19.2325 16.2922 19.2369 16.3005C19.2413 16.3088 19.2462 16.3167 19.2506 16.325C19.2555 16.3353 19.2599 16.3456 19.2643 16.3558C19.2673 16.3632 19.2707 16.37 19.2736 16.3774C19.2805 16.3955 19.2864 16.4141 19.2918 16.4332L19.5783 17.502C19.5832 17.5196 19.5866 17.5367 19.5896 17.5544C19.5905 17.5598 19.5915 17.5656 19.592 17.571C19.594 17.5833 19.5949 17.5955 19.5959 17.6078C19.5959 17.6136 19.5969 17.6195 19.5974 17.6259C19.5984 17.6425 19.5984 17.6587 19.5979 17.6749C19.5979 17.6798 19.5969 17.6851 19.5969 17.69C19.5959 17.7018 19.5949 17.714 19.5935 17.7258C19.5925 17.7327 19.5915 17.7395 19.5905 17.7464C19.5891 17.7571 19.5866 17.7674 19.5847 17.7777C19.5832 17.7841 19.5822 17.79 19.5807 17.7963C19.5768 17.812 19.5724 17.8277 19.567 17.8433C19.566 17.8463 19.5646 17.8492 19.5636 17.8522C19.5587 17.8654 19.5538 17.8781 19.5479 17.8913C19.546 17.8962 19.5435 17.9007 19.5411 17.9055C19.5357 17.9168 19.5298 17.9286 19.5234 17.9393C19.521 17.9433 19.519 17.9477 19.5166 17.9516C19.4994 17.981 19.4798 18.0089 19.4573 18.0349C19.4539 18.0393 19.45 18.0432 19.446 18.0476C19.4382 18.0559 19.4304 18.0642 19.4225 18.0726C19.4176 18.0775 19.4132 18.0819 19.4083 18.0863C19.4 18.0941 19.3912 18.1015 19.3824 18.1083C19.3775 18.1122 19.3731 18.1162 19.3682 18.1201C19.3682 18.1201 19.3682 18.1201 19.3677 18.1201C19.3545 18.1304 19.3407 18.1397 19.327 18.1485C19.3212 18.1524 19.3143 18.1558 19.3079 18.1598C19.2986 18.1651 19.2893 18.171 19.2795 18.1759C19.2732 18.1793 19.2668 18.1823 19.2599 18.1852C19.2496 18.1901 19.2389 18.1945 19.2286 18.1989C19.2227 18.2014 19.2163 18.2038 19.21 18.2058C19.1977 18.2102 19.185 18.2141 19.1723 18.218C19.1688 18.219 19.1654 18.2205 19.162 18.2215L18.0928 18.508H18.0918C18.0732 18.5129 18.0536 18.5163 18.0345 18.5193C18.0031 18.5242 17.9718 18.5276 17.9404 18.5276C17.9179 18.5276 17.8954 18.5256 17.8733 18.5232C17.8684 18.5227 17.8635 18.5222 17.8586 18.5212C17.8366 18.5183 17.815 18.5139 17.794 18.5085C17.7905 18.5075 17.7871 18.5065 17.7837 18.5055C17.7641 18.5002 17.7445 18.4938 17.7259 18.486C17.722 18.4845 17.7181 18.483 17.7141 18.4815C17.6931 18.4727 17.673 18.4624 17.6529 18.4517C17.651 18.4507 17.649 18.4497 17.647 18.4487C17.6441 18.4468 17.6412 18.4448 17.6382 18.4433C17.6274 18.437 17.6172 18.4301 17.6064 18.4228C17.6015 18.4193 17.5961 18.4159 17.5912 18.4125C17.5794 18.4037 17.5682 18.3944 17.5569 18.3851C17.5545 18.3826 17.5515 18.3806 17.5491 18.3787C17.5359 18.3669 17.5236 18.3547 17.5119 18.342C17.5074 18.3375 17.5035 18.3326 17.4996 18.3282C17.4918 18.3194 17.4844 18.3106 17.4771 18.3013C17.4732 18.2959 17.4692 18.2905 17.4653 18.2856C17.4585 18.2763 17.4521 18.2665 17.4457 18.2567C17.4423 18.2513 17.4389 18.246 17.4359 18.2406C17.4296 18.2303 17.4242 18.2195 17.4183 18.2087C17.4159 18.2033 17.4129 18.1984 17.4105 18.1931C17.4051 18.1813 17.3997 18.1691 17.3953 18.1573C17.3933 18.1529 17.3914 18.1485 17.3899 18.1436C17.384 18.1274 17.3786 18.1108 17.3737 18.0936C17.3683 18.0745 17.3644 18.0549 17.361 18.0353C17.3595 18.027 17.359 18.0187 17.3581 18.0104C17.3566 17.9996 17.3551 17.9888 17.3546 17.9785C17.3541 17.9687 17.3541 17.9589 17.3541 17.9491C17.3541 17.9398 17.3537 17.9305 17.3541 17.9212C17.3541 17.9114 17.3556 17.9021 17.3561 17.8923C17.3571 17.883 17.3576 17.8732 17.3586 17.8639C17.3595 17.8546 17.3615 17.8458 17.3634 17.837C17.3654 17.8272 17.3669 17.8174 17.3688 17.8071C17.3708 17.7983 17.3737 17.79 17.3762 17.7811C17.3791 17.7713 17.3816 17.7615 17.385 17.7518C17.3884 17.742 17.3923 17.7327 17.3963 17.7233C17.3997 17.715 17.4026 17.7067 17.4061 17.6984C17.4139 17.6817 17.4222 17.6651 17.4315 17.6489C17.4315 17.6484 17.432 17.6474 17.4325 17.6469L17.53 17.478L15.7182 16.4323C15.4371 16.2701 15.3406 15.9106 15.5032 15.6295C15.6653 15.3483 16.0248 15.2519 16.306 15.4145V15.414Z" fill="currentColor"/>
<path d="M9.59435 11.5965C9.71827 11.4486 9.85492 11.3124 10.0033 11.19C10.3148 10.9318 10.6773 10.733 11.073 10.611C11.3659 10.5204 11.6774 10.4714 12.0002 10.4714C13.7311 10.4714 15.1349 11.8752 15.1349 13.6061C15.1349 13.9289 15.0859 14.2404 14.9953 14.5333C14.8719 14.9325 14.6711 15.2974 14.4095 15.6108C14.291 15.7539 14.1597 15.8856 14.0177 16.0051C13.7062 16.2676 13.3427 16.4704 12.945 16.5953C12.6467 16.6898 12.3294 16.7408 12.0002 16.7408C10.2688 16.7408 8.86554 15.3375 8.86554 13.6061C8.86554 13.277 8.91648 12.9596 9.01101 12.6613C9.13492 12.267 9.33525 11.9065 9.59435 11.5965ZM12.1124 11.6504L13.956 13.4939C13.9001 12.5031 13.1037 11.7067 12.1124 11.6504ZM13.1811 15.1681C13.3295 15.0559 13.4613 14.9232 13.5724 14.7738L10.8325 12.0339C10.6832 12.1451 10.5499 12.2773 10.4378 12.4257L13.1811 15.1681ZM11.913 15.5633L10.043 13.6933C10.0876 14.7047 10.9016 15.5188 11.913 15.5633Z" fill="currentColor"/>
</svg>
