<svg width="24" height="25" viewBox="0 0 24 25" fill="none" xmlns="http://www.w3.org/2000/svg">
<path fill-rule="evenodd" clip-rule="evenodd" d="M12 21.1252V21.1252C7.029 21.1252 3 17.0962 3 12.1252V12.1252C3 7.15424 7.029 3.12524 12 3.12524V3.12524C16.971 3.12524 21 7.15424 21 12.1252V12.1252C21 17.0962 16.971 21.1252 12 21.1252Z" stroke="currentColor" stroke-linecap="round" stroke-linejoin="round"/>
<path d="M12 17.1252V12.1252H11" stroke="currentColor" stroke-linecap="round" stroke-linejoin="round"/>
<path d="M11.749 8.12524C11.611 8.12524 11.499 8.23724 11.5 8.37524C11.5 8.51324 11.612 8.62524 11.75 8.62524C11.888 8.62524 12 8.51324 12 8.37524C12 8.23724 11.888 8.12524 11.749 8.12524" stroke="currentColor" stroke-linecap="round" stroke-linejoin="round"/>
</svg>
