<svg width="24" height="25" viewBox="0 0 24 25" fill="none" xmlns="http://www.w3.org/2000/svg">
<g clip-path="url(#clip0_24970_12634)">
<path d="M22.5 6.12524H18V1.62524C18 0.796944 17.3283 0.125244 16.5 0.125244H1.5C0.6717 0.125244 0 0.796944 0 1.62524V16.6252C0 17.4535 0.6717 18.1252 1.5 18.1252H6V22.6252C6 23.4535 6.6717 24.1252 7.5 24.1252H22.5C23.3283 24.1252 24 23.4535 24 22.6252V7.62524C24 6.79694 23.3283 6.12524 22.5 6.12524ZM1.5 16.6252V1.62524H16.5V6.12524H7.5C6.6717 6.12524 6 6.79694 6 7.62524V16.6252H1.5ZM22.5 22.6252H7.5V18.1252H16.5C17.3283 18.1252 18 17.4535 18 16.6252V7.62524H22.5V22.6252Z" fill="currentColor"/>
</g>
<defs>
<clipPath id="clip0_24970_12634">
<rect width="24" height="24" fill="white" transform="translate(0 0.125244)"/>
</clipPath>
</defs>
</svg>
