<svg width="24" height="25" viewBox="0 0 24 25" fill="none" xmlns="http://www.w3.org/2000/svg">
<path d="M14 19.1252H16C17.1046 19.1252 18 18.2298 18 17.1252V14.6868C18 13.7691 18.6246 12.9691 19.5149 12.7465L21.0299 12.3678C21.2823 12.3047 21.2823 11.9458 21.0299 11.8827L19.5149 11.504C18.6246 11.2814 18 10.4814 18 9.56369V5.12524H14" stroke="currentColor" stroke-linecap="round" stroke-linejoin="round"/>
<path d="M10 5.12524H8C6.89543 5.12524 6 6.02067 6 7.12524V9.56369C6 10.4814 5.37541 11.2814 4.48507 11.504L2.97014 11.8827C2.71765 11.9458 2.71765 12.3047 2.97014 12.3678L4.48507 12.7465C5.37541 12.9691 6 13.7691 6 14.6868V19.1252H10" stroke="currentColor" stroke-linecap="round" stroke-linejoin="round"/>
</svg>
