<svg width="24" height="25" viewBox="0 0 24 25" fill="none" xmlns="http://www.w3.org/2000/svg">
<path d="M12 4.12524L5 7.12524L12 10.1252L19 7.12524L12 4.12524Z" stroke="currentColor" stroke-linecap="round" stroke-linejoin="round"/>
<path fill-rule="evenodd" clip-rule="evenodd" d="M7.66009 10.4412L4.80304 11.6656C4.6192 11.7444 4.5 11.9252 4.5 12.1252C4.5 12.3252 4.6192 12.506 4.80304 12.5848L11.803 15.5848C11.9288 15.6387 12.0712 15.6387 12.197 15.5848L19.197 12.5848C19.3808 12.506 19.5 12.3252 19.5 12.1252C19.5 11.9252 19.3808 11.7444 19.197 11.6656L16.3399 10.4412L15.0706 10.9851L17.7307 12.1252L12 14.5812L6.2693 12.1252L8.92939 10.9851L7.66009 10.4412Z" fill="currentColor"/>
<path fill-rule="evenodd" clip-rule="evenodd" d="M7.66009 15.4412L4.80304 16.6656C4.6192 16.7444 4.5 16.9252 4.5 17.1252C4.5 17.3252 4.6192 17.506 4.80304 17.5848L11.803 20.5848C11.9288 20.6387 12.0712 20.6387 12.197 20.5848L19.197 17.5848C19.3808 17.506 19.5 17.3252 19.5 17.1252C19.5 16.9252 19.3808 16.7444 19.197 16.6656L16.3399 15.4412L15.0706 15.9851L17.7307 17.1252L12 19.5812L6.2693 17.1252L8.92939 15.9851L7.66009 15.4412Z" fill="currentColor"/>
</svg>
