<svg width="24" height="25" viewBox="0 0 24 25" fill="none" xmlns="http://www.w3.org/2000/svg">
<path fill-rule="evenodd" clip-rule="evenodd" d="M13.7771 3.6632C13.7066 3.63399 13.6211 3.62514 13.1716 3.62514H9C8.04306 3.62514 7.37565 3.6262 6.87208 3.6939C6.3829 3.75967 6.12385 3.87997 5.93934 4.06448C5.75483 4.24899 5.63453 4.50804 5.56877 4.99722C5.50106 5.50079 5.5 6.1682 5.5 7.12514V17.1251C5.5 18.0821 5.50106 18.7495 5.56877 19.2531C5.63453 19.7422 5.75483 20.0013 5.93934 20.1858C6.12385 20.3703 6.3829 20.4906 6.87208 20.5564C7.37565 20.6241 8.04306 20.6251 9 20.6251H15C15.9569 20.6251 16.6244 20.6241 17.1279 20.5564C17.6171 20.4906 17.8762 20.3703 18.0607 20.1858C18.2452 20.0013 18.3655 19.7422 18.4312 19.2531C18.4989 18.7495 18.5 18.0821 18.5 17.1251V8.95357C18.5 8.50402 18.4912 8.41853 18.4619 8.34801C18.4327 8.27749 18.3785 8.21079 18.0607 7.89291L14.2322 4.06448C13.9144 3.7466 13.8476 3.69241 13.7771 3.6632ZM13.241 2.62507C13.5804 2.62455 13.8816 2.62409 14.1598 2.73932C14.438 2.85456 14.6507 3.06788 14.8903 3.30824C14.9065 3.3245 14.9229 3.34089 14.9393 3.35737L18.7678 7.1858C18.7843 7.20229 18.8006 7.21863 18.8169 7.23484C19.0573 7.47446 19.2706 7.68713 19.3858 7.96533C19.5011 8.24353 19.5006 8.54475 19.5001 8.88416C19.5 8.90712 19.5 8.93025 19.5 8.95357V17.1617C19.5 18.0734 19.5 18.8083 19.4223 19.3863C19.3416 19.9864 19.169 20.4916 18.7678 20.8929C18.3665 21.2942 17.8612 21.4668 17.2612 21.5475C16.6832 21.6252 15.9483 21.6252 15.0366 21.6251H8.9634C8.05168 21.6252 7.31681 21.6252 6.73883 21.5475C6.13876 21.4668 5.63351 21.2942 5.23223 20.8929C4.83096 20.4916 4.65836 19.9864 4.57768 19.3863C4.49998 18.8083 4.49999 18.0734 4.5 17.1617V7.08856C4.49999 6.17683 4.49998 5.44195 4.57768 4.86397C4.65836 4.2639 4.83096 3.75865 5.23223 3.35737C5.63351 2.9561 6.13876 2.7835 6.73883 2.70282C7.31681 2.62511 8.05169 2.62513 8.96342 2.62514L13.1716 2.62514C13.1949 2.62514 13.218 2.6251 13.241 2.62507Z" fill="currentColor"/>
<path fill-rule="evenodd" clip-rule="evenodd" d="M8.5 13.1252C8.5 12.8491 8.72386 12.6252 9 12.6252L15 12.6252C15.2761 12.6252 15.5 12.8491 15.5 13.1252C15.5 13.4014 15.2761 13.6252 15 13.6252L9 13.6252C8.72386 13.6252 8.5 13.4014 8.5 13.1252Z" fill="currentColor"/>
<path fill-rule="evenodd" clip-rule="evenodd" d="M8.5 17.1252C8.5 16.8491 8.72386 16.6252 9 16.6252L13 16.6252C13.2761 16.6252 13.5 16.8491 13.5 17.1252C13.5 17.4014 13.2761 17.6252 13 17.6252L9 17.6252C8.72386 17.6252 8.5 17.4014 8.5 17.1252Z" fill="currentColor"/>
<path fill-rule="evenodd" clip-rule="evenodd" d="M12.5 3.12524H13.5V7.12524C13.5 7.61078 13.5011 7.92464 13.5322 8.15589C13.5613 8.37276 13.6084 8.44074 13.6464 8.4788C13.6845 8.51686 13.7525 8.56393 13.9694 8.59309C14.2006 8.62418 14.5145 8.62524 15 8.62524H19V9.62524L14.9671 9.62525C14.5238 9.62527 14.1419 9.62529 13.8361 9.58417C13.5084 9.54011 13.1942 9.44074 12.9393 9.1859C12.6845 8.93107 12.5851 8.6169 12.5411 8.28914C12.5 7.98331 12.5 7.6014 12.5 7.15816L12.5 3.12524Z" fill="currentColor"/>
</svg>
