<svg width="24" height="24" viewBox="0 0 24 24" fill="none" xmlns="http://www.w3.org/2000/svg">
<path d="M2 15.3313C2 16.0843 2.11019 16.7913 2.33058 17.4525C2.55709 18.1075 2.8693 18.686 3.26722 19.188C3.66514 19.69 4.12121 20.0818 4.63545 20.3634C5.14968 20.645 5.69758 20.7858 6.27916 20.7858H9.24518C9.82063 21.0858 10.4542 21.3215 11.146 21.4929C11.8439 21.6643 12.5816 21.75 13.359 21.75H14.6079C15.1772 21.75 15.6915 21.7316 16.1506 21.6949C16.6159 21.6582 17.0046 21.6 17.3168 21.5204C17.8984 21.3735 18.3575 21.1164 18.6942 20.7491C19.0309 20.3818 19.1993 19.941 19.1993 19.4268C19.1993 19.1819 19.1503 18.9401 19.0523 18.7013C19.3768 18.4932 19.6278 18.23 19.8053 17.9116C19.9829 17.5933 20.0716 17.2505 20.0716 16.8831C20.0716 16.4546 19.9859 16.0934 19.8145 15.7996C20.0349 15.6159 20.2094 15.3772 20.3379 15.0833C20.4665 14.7834 20.5308 14.4681 20.5308 14.1375C20.5308 13.911 20.5002 13.6906 20.4389 13.4764C20.3777 13.256 20.2951 13.0693 20.191 12.9162C20.4971 12.5611 20.6501 12.0959 20.6501 11.5204C20.6501 11.1041 20.5522 10.7277 20.3563 10.391C20.1604 10.0543 19.8941 9.78796 19.5574 9.59206C19.2268 9.39004 18.8564 9.28903 18.4463 9.28903H15.0762C14.8926 9.28903 14.7426 9.24923 14.6263 9.16965C14.5161 9.08395 14.461 8.96763 14.461 8.82071C14.461 8.55747 14.5375 8.22995 14.6905 7.83815C14.8497 7.44024 15.0303 7.00865 15.2323 6.54339C15.4405 6.07813 15.6211 5.60369 15.7741 5.12006C15.9333 4.63032 16.0129 4.162 16.0129 3.71511C16.0129 3.33555 15.9302 2.99885 15.7649 2.705C15.5996 2.40504 15.3762 2.17241 15.0946 2.00712C14.813 1.83571 14.4885 1.75 14.1212 1.75C13.7111 1.75 13.3621 1.86631 13.0744 2.09894C12.7867 2.32545 12.5051 2.70194 12.2296 3.22842C11.948 3.77326 11.6572 4.29056 11.3572 4.7803C11.0634 5.27005 10.7389 5.76592 10.3838 6.26791C10.0349 6.76377 9.64004 7.30249 9.19927 7.88407C8.75849 8.46564 8.25038 9.11762 7.67493 9.83999H5.93939C5.40067 9.83999 4.89256 9.98079 4.41506 10.2624C3.93756 10.544 3.51821 10.9358 3.15702 11.4378C2.79584 11.9398 2.51117 12.5244 2.30303 13.1917C2.10101 13.8528 2 14.566 2 15.3313ZM6.90358 15.3129C6.90358 14.6517 6.95868 14.0579 7.06887 13.5315C7.17906 12.9989 7.3566 12.4846 7.60147 11.9888C7.84634 11.4868 8.17692 10.9603 8.5932 10.4093C9.04622 9.80326 9.54209 9.15435 10.0808 8.46258C10.6195 7.77081 11.1582 7.03313 11.697 6.24954C12.2418 5.45983 12.7407 4.61501 13.1938 3.71511C13.3713 3.36004 13.5305 3.12435 13.6713 3.00803C13.8121 2.8856 13.9743 2.82438 14.1579 2.82438C14.3967 2.82438 14.5865 2.90396 14.7273 3.06313C14.8681 3.21618 14.9385 3.4335 14.9385 3.71511C14.9385 4.08854 14.8589 4.4987 14.6997 4.94559C14.5467 5.38636 14.3691 5.83938 14.1671 6.30464C13.9651 6.7699 13.7845 7.21985 13.6253 7.6545C13.4723 8.08915 13.3958 8.47788 13.3958 8.82071C13.3958 9.29821 13.5702 9.6747 13.9192 9.95018C14.2681 10.2257 14.6997 10.3634 15.214 10.3634H18.4463C18.7646 10.3634 19.0309 10.4767 19.2452 10.7032C19.4656 10.9236 19.5758 11.196 19.5758 11.5204C19.5758 11.9306 19.4258 12.2734 19.1258 12.5489C19.0279 12.6407 18.9728 12.7387 18.9605 12.8427C18.9544 12.9407 18.9942 13.0356 19.0799 13.1274C19.2084 13.2988 19.3033 13.4641 19.3646 13.6233C19.4258 13.7824 19.4564 13.9539 19.4564 14.1375C19.4564 14.364 19.4043 14.5752 19.3003 14.7711C19.2023 14.9609 19.0554 15.1262 18.8595 15.267C18.7432 15.3466 18.6667 15.4445 18.6299 15.5608C18.5932 15.671 18.6116 15.7996 18.685 15.9465C18.7891 16.124 18.8656 16.2832 18.9146 16.424C18.9697 16.5587 18.9972 16.7117 18.9972 16.8831C18.9972 17.3851 18.685 17.7892 18.0606 18.0953C17.9565 18.1504 17.8892 18.2238 17.8586 18.3157C17.828 18.4014 17.8402 18.5024 17.8953 18.6187C17.9933 18.8391 18.0575 18.9982 18.0882 19.0962C18.1188 19.2003 18.1341 19.3105 18.1341 19.4268C18.1341 19.6778 18.0422 19.8951 17.8586 20.0787C17.6749 20.2624 17.4086 20.3971 17.0597 20.4828C16.7964 20.5501 16.4536 20.5991 16.0312 20.6297C15.6149 20.6664 15.1436 20.6817 14.6171 20.6756L13.3682 20.6573C12.0888 20.6511 10.9624 20.4185 9.98898 19.9594C9.01561 19.5064 8.2565 18.8819 7.71166 18.0861C7.17294 17.2841 6.90358 16.3597 6.90358 15.3129ZM3.07438 15.3313C3.07438 14.5109 3.206 13.7671 3.46924 13.0999C3.7386 12.4265 4.0906 11.8939 4.52525 11.5021C4.96602 11.1041 5.4374 10.9052 5.93939 10.9052C6.11081 10.9052 6.28222 10.9052 6.45363 10.9052C6.62504 10.9052 6.79645 10.9052 6.96786 10.9052C6.56382 11.5847 6.27303 12.2765 6.0955 12.9805C5.91797 13.6784 5.8292 14.4497 5.8292 15.2945C5.8292 16.1944 6.00061 17.0209 6.34343 17.7739C6.68626 18.5207 7.16988 19.1697 7.79431 19.7206C7.54331 19.7206 7.29232 19.7206 7.04132 19.7206C6.79033 19.7206 6.53627 19.7206 6.27916 19.7206C5.71595 19.7206 5.18947 19.5217 4.69972 19.1237C4.20998 18.7258 3.81512 18.1963 3.51515 17.5351C3.2213 16.874 3.07438 16.1393 3.07438 15.3313Z" fill="currentColor"/>
</svg>
