<svg width="24" height="25" viewBox="0 0 24 25" fill="none" xmlns="http://www.w3.org/2000/svg">
<path fill-rule="evenodd" clip-rule="evenodd" d="M3.56876 4.99722C3.50106 5.50079 3.5 6.1682 3.5 7.12514L3.5 20.4314L6 19.5981L9 20.5981L12 19.5981L14.5 20.4314L14.5 6.12514C14.5 5.1458 14.9022 4.2604 15.5505 3.62514L7 3.62514C6.04306 3.62514 5.37565 3.62621 4.87208 3.69391C4.3829 3.75968 4.12385 3.87997 3.93934 4.06448C3.75483 4.24899 3.63453 4.50804 3.56876 4.99722ZM18 3.62514C16.6193 3.62514 15.5 4.74443 15.5 6.12514L15.5 8.62513L20.1429 8.62513C20.3198 8.62513 20.4167 8.62459 20.4857 8.61789C20.488 8.61767 20.4901 8.61746 20.4921 8.61724C20.4923 8.61521 20.4925 8.61309 20.4928 8.61087C20.4995 8.54183 20.5 8.44494 20.5 8.26799L20.5 6.12514C20.5 4.74443 19.3807 3.62514 18 3.62514ZM15.5 9.62513L20.162 9.62514C20.3125 9.62516 20.459 9.62518 20.5823 9.61322C20.7185 9.60001 20.8781 9.5686 21.032 9.47186C21.1592 9.39193 21.2668 9.28437 21.3467 9.15716C21.4435 9.0032 21.4749 8.8436 21.4881 8.7074C21.5 8.58409 21.5 8.43759 21.5 8.28709L21.5 6.12514C21.5 4.19215 19.933 2.62514 18 2.62514L6.9634 2.62514C6.05168 2.62513 5.31681 2.62512 4.73883 2.70283C4.13876 2.7835 3.63351 2.9561 3.23223 3.35738C2.83096 3.75865 2.65836 4.2639 2.57768 4.86398C2.49997 5.44195 2.49999 6.17683 2.5 7.08856L2.5 21.8188L6 20.6522L9 21.6522L12 20.6522L15.5 21.8188L15.5 9.62513Z" fill="currentColor"/>
<path fill-rule="evenodd" clip-rule="evenodd" d="M6.5 7.12524C6.5 6.8491 6.72386 6.62524 7 6.62524L11 6.62524C11.2761 6.62524 11.5 6.8491 11.5 7.12524C11.5 7.40139 11.2761 7.62524 11 7.62524L7 7.62524C6.72386 7.62524 6.5 7.40139 6.5 7.12524Z" fill="currentColor"/>
<path fill-rule="evenodd" clip-rule="evenodd" d="M11.5 11.1252C11.5 11.4014 11.2761 11.6252 11 11.6252H7C6.72386 11.6252 6.5 11.4014 6.5 11.1252C6.5 10.8491 6.72386 10.6252 7 10.6252H11C11.2761 10.6252 11.5 10.8491 11.5 11.1252Z" fill="currentColor"/>
<path fill-rule="evenodd" clip-rule="evenodd" d="M6.5 15.1252C6.5 14.8491 6.72386 14.6252 7 14.6252L11 14.6252C11.2761 14.6252 11.5 14.8491 11.5 15.1252C11.5 15.4014 11.2761 15.6252 11 15.6252L7 15.6252C6.72386 15.6252 6.5 15.4014 6.5 15.1252Z" fill="currentColor"/>
</svg>
