<svg width="24" height="25" viewBox="0 0 24 25" fill="none" xmlns="http://www.w3.org/2000/svg">
<path fill-rule="evenodd" clip-rule="evenodd" d="M9.24231 3.03431C11.3455 2.3963 13.6049 2.5073 15.6355 3.34839C17.6661 4.18948 19.3422 5.70863 20.3783 7.64698C21.4143 9.58533 21.7463 11.823 21.3175 13.9786C20.8887 16.1342 19.7257 18.0745 18.0268 19.4688C16.3278 20.8632 14.1979 21.6252 12 21.6252C11.7239 21.6252 11.5 21.4014 11.5 21.1252C11.5 20.8491 11.7239 20.6252 12 20.6252C13.9665 20.6252 15.8722 19.9434 17.3924 18.6958C18.9125 17.4483 19.953 15.7122 20.3367 13.7835C20.7203 11.8548 20.4234 9.85269 19.4963 8.11838C18.5693 6.38406 17.0697 5.02483 15.2528 4.27227C13.436 3.51972 11.4144 3.4204 9.5326 3.99125C7.65075 4.5621 6.02506 5.7678 4.93252 7.4029C3.83998 9.038 3.34819 11.0013 3.54094 12.9584C3.7337 14.9154 4.59907 16.7451 5.98961 18.1357C6.18487 18.3309 6.18487 18.6475 5.98961 18.8428C5.79434 19.038 5.47776 19.038 5.2825 18.8428C3.72837 17.2886 2.76119 15.2437 2.54576 13.0564C2.33033 10.8691 2.87998 8.67479 4.10105 6.84733C5.32213 5.01986 7.13908 3.67232 9.24231 3.03431Z" fill="currentColor"/>
</svg>
