<svg width="24" height="25" viewBox="0 0 24 25" fill="none" xmlns="http://www.w3.org/2000/svg">
<path fill-rule="evenodd" clip-rule="evenodd" d="M12 4.86133C11.6736 4.86133 11.3575 5.00555 10.4348 5.4669L6.43475 7.4669C5.88766 7.74045 5.5114 7.92927 5.23191 8.1071C4.9622 8.27872 4.81976 8.41783 4.72402 8.57273C4.62829 8.72764 4.56756 8.91725 4.53469 9.23524C4.50062 9.56475 4.5 9.98572 4.5 10.5974V16.1253C4.5 17.0822 4.50106 17.7496 4.56877 18.2532C4.63453 18.7424 4.75483 19.0014 4.93934 19.1859C5.12385 19.3704 5.3829 19.4907 5.87208 19.5565C6.37565 19.6242 7.04306 19.6253 8 19.6253H16C16.9569 19.6253 17.6244 19.6242 18.1279 19.5565C18.6171 19.4907 18.8762 19.3704 19.0607 19.1859C19.2452 19.0014 19.3655 18.7424 19.4312 18.2532C19.4989 17.7496 19.5 17.0822 19.5 16.1253V10.5974C19.5 9.98572 19.4994 9.56475 19.4653 9.23524C19.4324 8.91725 19.3717 8.72764 19.276 8.57273C19.1802 8.41783 19.0378 8.27872 18.7681 8.1071C18.4886 7.92927 18.1123 7.74045 17.5652 7.4669L13.5652 5.4669C12.6425 5.00555 12.3264 4.86133 12 4.86133ZM10.0904 4.521C10.8674 4.13194 11.4079 3.86133 12 3.86133C12.5921 3.86133 13.1326 4.13194 13.9096 4.521C13.9434 4.53794 13.9777 4.5551 14.0125 4.57247L18.0359 6.58417C18.5539 6.84319 18.9767 7.0546 19.3049 7.26341C19.6478 7.48158 19.9237 7.7186 20.1266 8.047C20.3296 8.3754 20.4182 8.72814 20.46 9.13239C20.5 9.51932 20.5 9.99206 20.5 10.5713V16.1619C20.5 17.0736 20.5 17.8085 20.4223 18.3864C20.3416 18.9865 20.169 19.4917 19.7678 19.893C19.3665 20.2943 18.8612 20.4669 18.2612 20.5476C17.6832 20.6253 16.9483 20.6253 16.0366 20.6253H7.9634C7.05168 20.6253 6.31681 20.6253 5.73883 20.5476C5.13876 20.4669 4.63351 20.2943 4.23223 19.893C3.83096 19.4917 3.65836 18.9865 3.57768 18.3864C3.49998 17.8084 3.49999 17.0736 3.5 16.1618L3.5 10.5713C3.49999 9.99205 3.49998 9.51931 3.53999 9.13239C3.58179 8.72814 3.67041 8.3754 3.87337 8.047C4.07634 7.7186 4.3522 7.48158 4.69508 7.26341C5.02326 7.05459 5.4461 6.84319 5.96416 6.58416L9.98754 4.57247C10.0223 4.5551 10.0566 4.53794 10.0904 4.521Z" fill="currentColor"/>
<path fill-rule="evenodd" clip-rule="evenodd" d="M7.82843 12.6252C7.4306 12.6252 7.04907 12.4672 6.76777 12.1859L4.35355 9.77169C4.15829 9.57643 3.84171 9.57643 3.64645 9.77169C3.45118 9.96695 3.45118 10.2835 3.64645 10.4788L6.06066 12.893C6.5295 13.3619 7.16539 13.6252 7.82843 13.6252H16.1716C16.8346 13.6252 17.4705 13.3619 17.9393 12.893L17.5858 12.5395L17.9393 12.893L20.3536 10.4788C20.5488 10.2835 20.5488 9.96695 20.3536 9.77169C20.1583 9.57643 19.8417 9.57643 19.6464 9.77169L17.2322 12.1859C16.9509 12.4672 16.5694 12.6252 16.1716 12.6252H7.82843Z" fill="currentColor"/>
</svg>
