<svg width="24" height="25" viewBox="0 0 24 25" fill="none" xmlns="http://www.w3.org/2000/svg">
<path d="M6 8.12524L11 16.1252" stroke="currentColor" stroke-linecap="round" stroke-linejoin="round"/>
<path d="M17.7224 20.6252C19.2145 18.0409 20 15.1094 20 12.1252C20 9.14112 19.2145 6.20957 17.7224 3.62524" stroke="currentColor" stroke-linecap="round" stroke-linejoin="round"/>
<path d="M14.3923 18.1252C15.4455 16.301 16 14.2317 16 12.1252C16 10.0188 15.4455 7.94947 14.3923 6.12524" stroke="currentColor" stroke-linecap="round" stroke-linejoin="round"/>
<path d="M10.9282 16.1252C11.6303 14.9091 12 13.5295 12 12.1252C12 10.721 11.6303 9.3414 10.9282 8.12524" stroke="currentColor" stroke-linecap="round" stroke-linejoin="round"/>
<path d="M6.0718 16.1252C5.36965 14.9091 5 13.5295 5 12.1252C5 10.721 5.36965 9.3414 6.0718 8.12524" stroke="currentColor" stroke-linecap="round" stroke-linejoin="round"/>
</svg>
