<svg xmlns="http://www.w3.org/2000/svg" width="16" height="20" viewBox="0 0 16 20" fill="none">
  <path d="M11.5 2.5C12.9045 2.5 13.6067 2.5 14.1111 2.83706C14.3295 2.98298 14.517 3.17048 14.6629 3.38886C15 3.89331 15 4.59554 15 6V15.5C15 17.3856 15 18.3284 14.4142 18.9142C13.8284 19.5 12.8856 19.5 11 19.5H5C3.11438 19.5 2.17157 19.5 1.58579 18.9142C1 18.3284 1 17.3856 1 15.5V6C1 4.59554 1 3.89331 1.33706 3.38886C1.48298 3.17048 1.67048 2.98298 1.88886 2.83706C2.39331 2.5 3.09554 2.5 4.5 2.5" stroke="currentColor"/>
  <path d="M5 2.5C5 1.39543 5.89543 0.5 7 0.5H9C10.1046 0.5 11 1.39543 11 2.5C11 3.60457 10.1046 4.5 9 4.5H7C5.89543 4.5 5 3.60457 5 2.5Z" stroke="#455664"/>
  <path d="M5 9.5L11 9.5" stroke="currentColor" stroke-linecap="round"/>
  <path d="M5 13.5L9 13.5" stroke="currentColor" stroke-linecap="round"/>
</svg>