<svg width="24" height="25" viewBox="0 0 24 25" fill="none" xmlns="http://www.w3.org/2000/svg">
<path d="M18 8.12524L13.6695 10.7235C13.276 10.9596 12.7724 10.8976 12.4479 10.5732L11.2929 9.41814C11.1054 9.2306 10.851 9.12524 10.5858 9.12524H7M18 8.12524L21 11.1252M18 8.12524L14.2879 14.6214C14.1099 14.933 13.7785 15.1252 13.4197 15.1252H4C3.44771 15.1252 3 14.6775 3 14.1252V10.1252C3 9.57296 3.44772 9.12524 4 9.12524H7M7 9.12524V4.12524M7 4.12524H4M7 4.12524H10" stroke="currentColor" stroke-linecap="round" stroke-linejoin="round"/>
<path d="M3 21.1252L4.5 19.6252C4.57965 19.5456 4.61948 19.5058 4.65474 19.4737C5.41756 18.7803 6.58244 18.7803 7.34526 19.4737C7.38052 19.5058 7.42035 19.5456 7.5 19.6252L7.64853 19.7738C8.39493 20.5202 9.60507 20.5202 10.3515 19.7738L10.7252 19.4C11.3847 18.7405 12.4827 18.8492 13 19.6252V19.6252C13.5173 20.4012 14.6153 20.51 15.2748 19.8505L15.6485 19.4767C16.3949 18.7303 17.6051 18.7303 18.3515 19.4767L20 21.1252" stroke="currentColor" stroke-linecap="round" stroke-linejoin="round"/>
</svg>
