<svg width="25" height="24" viewBox="0 0 25 24" fill="none" xmlns="http://www.w3.org/2000/svg">
<path d="M3.9873 11V3M3.9873 3H11.9873M3.9873 3L13.9873 13" stroke="currentColor" stroke-linecap="round" stroke-linejoin="round"/>
<path d="M4.9873 15V15C4.9873 16.8692 4.9873 17.8038 5.38923 18.5C5.65253 18.9561 6.03125 19.3348 6.4873 19.5981C7.18346 20 8.11807 20 9.9873 20H14.9873C17.8157 20 19.2299 20 20.1086 19.1213C20.9873 18.2426 20.9873 16.8284 20.9873 14V9C20.9873 7.13077 20.9873 6.19615 20.5854 5.5C20.3221 5.04394 19.9434 4.66523 19.4873 4.40192C18.7912 4 17.8565 4 15.9873 4V4" stroke="currentColor" stroke-linecap="round" stroke-linejoin="round"/>
</svg>
