<svg width="25" height="24" viewBox="0 0 25 24" fill="none" xmlns="http://www.w3.org/2000/svg">
<path d="M21.9873 11V3M21.9873 3H13.9873M21.9873 3L11.9873 13" stroke="currentColor" stroke-linecap="round" stroke-linejoin="round"/>
<path d="M20.9873 15V15C20.9873 16.8692 20.9873 17.8038 20.5854 18.5C20.3221 18.9561 19.9434 19.3348 19.4873 19.5981C18.7912 20 17.8565 20 15.9873 20H10.9873C8.15888 20 6.74466 20 5.86598 19.1213C4.9873 18.2426 4.9873 16.8284 4.9873 14V9C4.9873 7.13077 4.9873 6.19615 5.38923 5.5C5.65253 5.04394 6.03125 4.66523 6.4873 4.40192C7.18346 4 8.11807 4 9.9873 4V4" stroke="currentColor" stroke-linecap="round" stroke-linejoin="round"/>
</svg>
