<svg width="24" height="25" viewBox="0 0 24 25" fill="none" xmlns="http://www.w3.org/2000/svg">
<path d="M17.7071 13.8323L20.3552 16.4805C20.7113 16.8366 20.7113 17.4139 20.3552 17.77C18.43 19.6952 15.3821 19.9118 13.204 18.2782L11.6286 17.0967C9.88504 15.789 8.33622 14.2402 7.02857 12.4967L5.84701 10.9213C4.21341 8.74312 4.43001 5.69523 6.35523 3.77001C6.71133 3.41392 7.28867 3.41392 7.64477 3.77001L10.2929 6.41814C10.6834 6.80866 10.6834 7.44183 10.2929 7.83235L9.27175 8.8535C9.10946 9.01578 9.06923 9.2637 9.17187 9.46898C10.3585 11.8423 12.2829 13.7667 14.6563 14.9534C14.8615 15.056 15.1095 15.0158 15.2717 14.8535L16.2929 13.8324C16.6834 13.4418 17.3166 13.4418 17.7071 13.8323Z" stroke="currentColor" stroke-linecap="round" stroke-linejoin="round"/>
</svg>
