<svg width="18" height="18" viewBox="0 0 18 18" fill="none" xmlns="http://www.w3.org/2000/svg">
<path d="M7.28125 8.06666L9.93062 10.6651L16.2891 3.90918" stroke="#00B0B9" stroke-linecap="round" stroke-linejoin="round"/>
<path fill-rule="evenodd" clip-rule="evenodd" d="M10.6355 15.1273C14.0194 14.2206 16.0276 10.7423 15.1209 7.35836C15.1172 7.34447 15.1134 7.33059 15.1096 7.31674C15.0321 7.03487 15.1868 6.73317 15.4691 6.6575C15.7195 6.59041 15.9812 6.72668 16.0526 6.97589C16.0643 7.01693 16.0757 7.05815 16.0868 7.09954C17.1365 11.017 14.8117 15.0436 10.8943 16.0933C6.97689 17.1429 2.95026 14.8182 1.9006 10.9007C0.850925 6.98331 3.1757 2.95669 7.09312 1.90702C9.59021 1.23793 12.1317 1.93994 13.9182 3.55156C14.0768 3.69469 14.1113 3.92784 14.012 4.11702C13.8548 4.41625 13.4468 4.46863 13.1933 4.24512C11.6531 2.88739 9.48381 2.30172 7.35194 2.87295C3.96798 3.77968 1.95979 7.25796 2.86652 10.6419C3.77325 14.0259 7.25153 16.0341 10.6355 15.1273Z" fill="#00B0B9"/>
</svg>
