<svg width="14" height="16" viewBox="0 0 14 16" fill="none" xmlns="http://www.w3.org/2000/svg">
<path d="M6.99362 15.5C10.5147 14.3011 13.0245 11.5142 13.4182 7.96569C13.5274 6.42528 13.5182 4.87891 13.3905 3.33988C13.3736 3.09729 13.2658 2.86963 13.0881 2.70135C12.9104 2.53308 12.6756 2.43628 12.4296 2.42987C10.8367 2.38141 8.98523 2.1191 7.5547 0.72716C7.40521 0.5816 7.20373 0.5 6.99382 0.5C6.78391 0.5 6.58243 0.5816 6.43294 0.72716C5.00202 2.1191 3.15058 2.38141 1.55808 2.42987C1.31201 2.43628 1.07719 2.53308 0.899496 2.70135C0.721802 2.86963 0.613993 3.09729 0.597125 3.33988C0.469339 4.8789 0.459968 6.42527 0.569091 7.96569C0.962739 11.5142 3.47259 14.3011 6.99362 15.5Z" stroke="#753BBD" stroke-linecap="round" stroke-linejoin="round"/>
</svg>
