<svg width="18" height="16" viewBox="0 0 18 16" fill="none" xmlns="http://www.w3.org/2000/svg">
<circle cx="9.34335" cy="2.43478" r="1.93478" stroke="#4033DE"/>
<circle cx="3.08163" cy="12.174" r="1.93478" stroke="#4033DE"/>
<mask id="path-3-inside-1_4959_5749" fill="white">
<path fill-rule="evenodd" clip-rule="evenodd" d="M6.90873 2.40601C4.08754 3.29313 2.04138 5.92929 2.04138 9.04335C2.04138 9.34963 2.06117 9.65128 2.09955 9.9471C2.39984 9.81394 2.73208 9.73975 3.08159 9.73919C3.05504 9.51093 3.04138 9.27874 3.04138 9.04335C3.04138 6.41544 4.74317 4.185 7.10482 3.39397C6.97851 3.0996 6.90857 2.77532 6.90857 2.43471L6.90873 2.40601ZM8.99789 15.9999C7.22267 15.9999 5.60275 15.3349 4.37363 14.2405C4.66041 14.0614 4.90721 13.8242 5.09759 13.5454C6.14257 14.4515 7.5062 14.9999 8.99789 14.9999C10.4906 14.9999 11.8551 14.4508 12.9003 13.5436C13.0904 13.8225 13.337 14.0599 13.6236 14.2392C12.3943 15.3344 10.7738 15.9999 8.99789 15.9999ZM15.8964 9.94567C15.9347 9.65031 15.9544 9.34913 15.9544 9.04335C15.9544 6.18584 14.2315 3.73073 11.7678 2.66017C11.736 3.00703 11.6314 3.33284 11.4694 3.6222C13.5255 4.56111 14.9544 6.63536 14.9544 9.04335C14.9544 9.27874 14.9407 9.51093 14.9142 9.73919C15.2637 9.73926 15.596 9.81298 15.8964 9.94567Z"/>
</mask>
<path fill-rule="evenodd" clip-rule="evenodd" d="M6.90873 2.40601C4.08754 3.29313 2.04138 5.92929 2.04138 9.04335C2.04138 9.34963 2.06117 9.65128 2.09955 9.9471C2.39984 9.81394 2.73208 9.73975 3.08159 9.73919C3.05504 9.51093 3.04138 9.27874 3.04138 9.04335C3.04138 6.41544 4.74317 4.185 7.10482 3.39397C6.97851 3.0996 6.90857 2.77532 6.90857 2.43471L6.90873 2.40601ZM8.99789 15.9999C7.22267 15.9999 5.60275 15.3349 4.37363 14.2405C4.66041 14.0614 4.90721 13.8242 5.09759 13.5454C6.14257 14.4515 7.5062 14.9999 8.99789 14.9999C10.4906 14.9999 11.8551 14.4508 12.9003 13.5436C13.0904 13.8225 13.337 14.0599 13.6236 14.2392C12.3943 15.3344 10.7738 15.9999 8.99789 15.9999ZM15.8964 9.94567C15.9347 9.65031 15.9544 9.34913 15.9544 9.04335C15.9544 6.18584 14.2315 3.73073 11.7678 2.66017C11.736 3.00703 11.6314 3.33284 11.4694 3.6222C13.5255 4.56111 14.9544 6.63536 14.9544 9.04335C14.9544 9.27874 14.9407 9.51093 14.9142 9.73919C15.2637 9.73926 15.596 9.81298 15.8964 9.94567Z" fill="#4033DE"/>
<path d="M6.90873 2.40601L7.90872 2.41177L7.91662 1.0408L6.60877 1.45206L6.90873 2.40601ZM2.09955 9.9471L1.10786 10.0757L1.28021 11.4043L2.50491 10.8613L2.09955 9.9471ZM3.08159 9.73919L3.08318 10.7392L4.20448 10.7374L4.07489 9.62362L3.08159 9.73919ZM7.10482 3.39397L7.42243 4.34219L8.4519 3.99737L8.02379 2.99965L7.10482 3.39397ZM6.90857 2.43471L5.90857 2.42894V2.43471H6.90857ZM4.37363 14.2405L3.84386 13.3924L2.71162 14.0996L3.70864 14.9873L4.37363 14.2405ZM5.09759 13.5454L5.7527 12.7899L4.90475 12.0547L4.27179 12.9815L5.09759 13.5454ZM12.9003 13.5436L13.7267 12.9804L13.0937 12.0517L12.2449 12.7884L12.9003 13.5436ZM13.6236 14.2392L14.2888 14.9859L15.2842 14.099L14.1542 13.3916L13.6236 14.2392ZM15.8964 9.94567L15.4924 10.8604L16.7163 11.401L16.8881 10.0741L15.8964 9.94567ZM11.7678 2.66017L12.1664 1.74302L10.8984 1.19204L10.772 2.56873L11.7678 2.66017ZM11.4694 3.6222L10.5968 3.13377L10.0666 4.08096L11.054 4.53185L11.4694 3.6222ZM14.9142 9.73919L13.9209 9.62362L13.7911 10.7389L14.914 10.7392L14.9142 9.73919ZM3.04138 9.04335C3.04138 6.37845 4.79215 4.11984 7.2087 3.35995L6.60877 1.45206C3.38294 2.46642 1.04138 5.48013 1.04138 9.04335H3.04138ZM3.09124 9.81845C3.05838 9.56518 3.04138 9.3065 3.04138 9.04335H1.04138C1.04138 9.39276 1.06396 9.73738 1.10786 10.0757L3.09124 9.81845ZM3.08001 8.73919C2.58875 8.73997 2.11919 8.84448 1.69419 9.03294L2.50491 10.8613C2.68049 10.7834 2.87541 10.7395 3.08318 10.7392L3.08001 8.73919ZM2.04138 9.04335C2.04138 9.31744 2.05728 9.58823 2.08829 9.85476L4.07489 9.62362C4.05279 9.43364 4.04138 9.24003 4.04138 9.04335H2.04138ZM6.78721 2.44574C4.03023 3.3692 2.04138 5.97271 2.04138 9.04335H4.04138C4.04138 6.85816 5.45611 5.00081 7.42243 4.34219L6.78721 2.44574ZM5.90857 2.43471C5.90857 2.91337 6.00707 3.37163 6.18585 3.78829L8.02379 2.99965C7.94996 2.82757 7.90857 2.63727 7.90857 2.43471H5.90857ZM5.90875 2.40024L5.90859 2.42894L7.90855 2.44047L7.90872 2.41177L5.90875 2.40024ZM3.70864 14.9873C5.1138 16.2385 6.96814 16.9999 8.99789 16.9999V14.9999C7.4772 14.9999 6.09171 14.4313 5.03863 13.4936L3.70864 14.9873ZM4.27179 12.9815C4.15924 13.1463 4.01317 13.2866 3.84386 13.3924L4.90341 15.0886C5.30765 14.8361 5.65517 14.5021 5.92338 14.1094L4.27179 12.9815ZM8.99789 13.9999C7.75589 13.9999 6.62278 13.5443 5.7527 12.7899L4.44247 14.301C5.66237 15.3587 7.25651 15.9999 8.99789 15.9999V13.9999ZM12.2449 12.7884C11.3746 13.5437 10.2407 13.9999 8.99789 13.9999V15.9999C10.7405 15.9999 12.3356 15.3578 13.5558 14.2988L12.2449 12.7884ZM14.1542 13.3916C13.985 13.2857 13.839 13.1453 13.7267 12.9804L12.074 14.1068C12.3419 14.4997 12.689 14.834 13.093 15.0869L14.1542 13.3916ZM8.99789 16.9999C11.0284 16.9999 12.8834 16.2379 14.2888 14.9859L12.9584 13.4926C11.9051 14.4309 10.5192 14.9999 8.99789 14.9999V16.9999ZM16.8881 10.0741C16.9319 9.73627 16.9544 9.39219 16.9544 9.04335H14.9544C14.9544 9.30608 14.9375 9.56435 14.9047 9.81722L16.8881 10.0741ZM16.9544 9.04335C16.9544 5.77351 14.9821 2.96657 12.1664 1.74302L11.3693 3.57732C13.4809 4.49489 14.9544 6.59816 14.9544 9.04335H16.9544ZM10.772 2.56873C10.7533 2.77291 10.6919 2.96383 10.5968 3.13377L12.342 4.11063C12.5708 3.70186 12.7187 3.24116 12.7636 2.7516L10.772 2.56873ZM11.054 4.53185C12.7672 5.31414 13.9544 7.04116 13.9544 9.04335H15.9544C15.9544 6.22957 14.2839 3.80807 11.8848 2.71255L11.054 4.53185ZM13.9544 9.04335C13.9544 9.24003 13.943 9.43364 13.9209 9.62362L15.9075 9.85476C15.9385 9.58822 15.9544 9.31744 15.9544 9.04335H13.9544ZM14.914 10.7392C15.1218 10.7392 15.3167 10.7828 15.4924 10.8604L16.3004 9.03092C15.8753 8.84313 15.4056 8.73929 14.9144 8.73919L14.914 10.7392Z" fill="#4033DE" mask="url(#path-3-inside-1_4959_5749)"/>
<circle cx="14.9058" cy="12.174" r="1.93478" stroke="#4033DE"/>
</svg>
