<svg width="18" height="19" viewBox="0 0 18 19" fill="none" xmlns="http://www.w3.org/2000/svg">
<path d="M4.84442 5.14282L11.7016 5.14282" stroke="currentColor" stroke-linecap="round"/>
<path fill-rule="evenodd" clip-rule="evenodd" d="M7.25477 11.4998H4.84418C4.56803 11.4998 4.34418 11.7236 4.34418 11.9998C4.34418 12.2759 4.56803 12.4998 4.84418 12.4998L7.37919 12.4998L7.25477 11.4998Z" fill="currentColor"/>
<path fill-rule="evenodd" clip-rule="evenodd" d="M9.95247 8.07129H4.84418C4.56803 8.07129 4.34418 8.29515 4.34418 8.57129C4.34418 8.84743 4.56803 9.07129 4.84418 9.07129H7.62989L9.95247 8.07129Z" fill="currentColor"/>
<path fill-rule="evenodd" clip-rule="evenodd" d="M3.55873 1H12.9873C13.8552 1 14.5587 1.70355 14.5587 2.57143V7.62599L15.5587 8.05655V2.57143C15.5587 1.15127 14.4075 0 12.9873 0H3.55873C2.13857 0 0.987305 1.15127 0.987305 2.57143V15.4286C0.987305 16.8487 2.13857 18 3.55873 18H10.2134L9.36604 17.2906C9.25533 17.1979 9.14897 17.1009 9.04714 17H3.55873C2.69086 17 1.9873 16.2964 1.9873 15.4286V2.57143C1.9873 1.70355 2.69086 1 3.55873 1Z" fill="currentColor"/>
<path d="M12.4223 8.20825C12.7294 8.11241 13.0623 8.1292 13.3608 8.25708L16.5561 9.62524L16.6577 9.67407C17.1186 9.91854 17.3991 10.4076 17.3774 10.929L17.3676 11.0413L17.1098 13.1018C16.9434 14.4329 16.3091 15.6581 15.3246 16.5608L15.1235 16.7366L13.6957 17.927C13.2239 18.3202 12.552 18.3442 12.0551 18.0002L11.9575 17.927L10.5297 16.7366C9.49935 15.8778 8.81068 14.6824 8.58246 13.3665L8.5434 13.1018L8.28558 11.0413C8.21067 10.4413 8.54136 9.86351 9.09711 9.62524L12.2924 8.25708L12.4223 8.20825Z" stroke="currentColor" stroke-linecap="round"/>
<path d="M11.2759 13.1085L12.3438 14.2918L14.5587 11.9798" stroke="currentColor" stroke-linecap="round" stroke-linejoin="round"/>
</svg>
