<svg width="20" height="19" viewBox="0 0 20 19" fill="none" xmlns="http://www.w3.org/2000/svg">
<path d="M5.96393 1V1C6.43939 1 6.67712 1 6.8941 1.04237C7.43952 1.14887 7.92746 1.45044 8.26664 1.89065C8.40158 2.06577 8.50789 2.27841 8.72052 2.70367L9.46232 4.18726C10.0771 5.41678 10.3845 6.03154 10.9368 6.37291C11.4892 6.71428 12.1765 6.71428 13.5511 6.71428H16.4877C17.5134 6.71428 18.3449 7.54577 18.3449 8.57146V8.57146" stroke="currentColor"/>
<path fill-rule="evenodd" clip-rule="evenodd" d="M6.91588 0.5L6.87806 0.5C5.56327 0.49999 4.52553 0.499982 3.7142 0.609064C2.88071 0.721123 2.21169 0.956481 1.68488 1.48328C1.15808 2.01009 0.922722 2.67911 0.810663 3.5126C0.701582 4.32393 0.70159 5.36166 0.701599 6.67645V6.67646L0.7016 6.71428V10.5238L0.701599 10.5616C0.70159 11.8764 0.701582 12.9142 0.810663 13.7255C0.922722 14.559 1.15808 15.228 1.68488 15.7548C2.21169 16.2816 2.88071 16.517 3.7142 16.629C4.52553 16.7381 5.56326 16.7381 6.87804 16.7381H6.91588H9.91893C9.6838 16.4285 9.48031 16.0936 9.31329 15.7381H6.91588C5.55488 15.7381 4.58442 15.737 3.84745 15.6379C3.12485 15.5408 2.70202 15.3577 2.39199 15.0477C2.08196 14.7377 1.8989 14.3148 1.80175 13.5922C1.70266 12.8553 1.7016 11.8848 1.7016 10.5238V6.71428C1.7016 5.35328 1.70266 4.38282 1.80175 3.64585C1.8989 2.92325 2.08196 2.50043 2.39199 2.19039C2.70202 1.88036 3.12485 1.6973 3.84745 1.60015C4.58442 1.50106 5.55488 1.5 6.91588 1.5H12.6302C13.9912 1.5 14.9616 1.50106 15.6986 1.60015C16.4212 1.6973 16.844 1.88036 17.1541 2.19039C17.4641 2.50043 17.6472 2.92325 17.7443 3.64585C17.8434 4.38282 17.8444 5.35328 17.8444 6.71428V9.02506C18.221 9.32744 18.5574 9.67774 18.8444 10.0667V6.71428V6.67644C18.8445 5.36166 18.8445 4.32393 18.7354 3.5126C18.6233 2.67911 18.388 2.01009 17.8612 1.48328C17.3344 0.956481 16.6653 0.721123 15.8318 0.609064C15.0205 0.499982 13.9828 0.49999 12.668 0.5L12.6302 0.5H6.91588Z" fill="currentColor"/>
<path d="M15.1882 9.5834L15.6857 9.53365L15.1882 9.5834ZM16.2431 10.0204L16.5597 10.4073L16.2431 10.0204ZM17.5377 11.3151L17.9246 11.6318L17.5377 11.3151ZM17.9746 12.3702L17.9249 12.8677L17.9746 12.3702ZM17.9749 14.2012L17.9252 13.7037L17.9749 14.2012ZM17.5383 15.2559L17.1513 15.5726L17.1513 15.5726L17.5383 15.2559ZM17.4951 16.1244L17.8486 16.478L17.4951 16.1244ZM17.1122 16.5073L16.7587 16.1537H16.7587L17.1122 16.5073ZM16.2435 16.5506L16.5602 16.1636L16.2435 16.5506ZM15.1882 16.9878L15.6857 17.0375L15.1882 16.9878ZM13.3572 16.9879L12.8597 17.0376L13.3572 16.9879ZM12.302 16.5508L11.9854 16.1638L12.302 16.5508ZM11.4334 16.5075L11.7869 16.1539L11.7869 16.1539L11.4334 16.5075ZM11.0505 16.1246L10.697 16.4782H10.697L11.0505 16.1246ZM11.0072 15.2562L11.3942 15.5728H11.3942L11.0072 15.2562ZM10.5702 14.2012L10.5204 14.6987H10.5204L10.5702 14.2012ZM10.5706 12.3702L10.6203 12.8677L10.5706 12.3702ZM11.0079 11.315L10.621 11.6316L11.0079 11.315ZM12.3025 10.0202L11.9859 10.4071L12.3025 10.0202ZM13.3572 9.5833L12.8597 9.53355L13.3572 9.5833ZM15.6857 9.53365C15.627 8.94687 15.1333 8.5 14.5435 8.5V9.5C14.6195 9.5 14.6831 9.55756 14.6907 9.63315L15.6857 9.53365ZM15.9264 9.63337C15.8352 9.70805 15.6974 9.65103 15.6857 9.53365L14.6907 9.63315C14.7818 10.5444 15.8509 10.9872 16.5597 10.4073L15.9264 9.63337ZM17.4649 9.71011C17.048 9.29312 16.3828 9.25995 15.9264 9.63337L16.5597 10.4073C16.6185 10.3592 16.7041 10.3635 16.7578 10.4172L17.4649 9.71011ZM17.8479 10.0931L17.4649 9.71011L16.7578 10.4172L17.1408 10.8002L17.8479 10.0931ZM17.9246 11.6318C18.2981 11.1753 18.2649 10.5101 17.8479 10.0931L17.1408 10.8002C17.1945 10.8539 17.1988 10.9397 17.1507 10.9985L17.9246 11.6318ZM18.0244 11.8727C17.907 11.861 17.8499 11.7232 17.9246 11.6318L17.1507 10.9985C16.5708 11.7073 17.0135 12.7766 17.9249 12.8677L18.0244 11.8727ZM19.0581 13.015C19.0581 12.4252 18.6112 11.9314 18.0244 11.8727L17.9249 12.8677C18.0005 12.8753 18.0581 12.939 18.0581 13.015H19.0581ZM19.0581 13.5567V13.015H18.0581V13.5567H19.0581ZM18.0247 14.6987C18.6114 14.64 19.0581 14.1464 19.0581 13.5567H18.0581C18.0581 13.6326 18.0006 13.6961 17.9252 13.7037L18.0247 14.6987ZM17.9253 14.9393C17.8504 14.8478 17.9079 14.7104 18.0247 14.6987L17.9252 13.7037C17.0137 13.7948 16.5718 14.8642 17.1513 15.5726L17.9253 14.9393ZM17.8486 16.478C18.2657 16.0609 18.2986 15.3956 17.9253 14.9393L17.1513 15.5726C17.1995 15.6315 17.1952 15.7173 17.1415 15.7709L17.8486 16.478ZM17.4658 16.8608L17.8486 16.478L17.1415 15.7709L16.7587 16.1537L17.4658 16.8608ZM15.9269 16.9376C16.3834 17.3111 17.0487 17.2779 17.4658 16.8608L16.7587 16.1537C16.7049 16.2075 16.6191 16.2118 16.5602 16.1636L15.9269 16.9376ZM15.6857 17.0375C15.6975 16.9199 15.8355 16.8628 15.9269 16.9376L16.5602 16.1636C15.8512 15.5836 14.7818 16.0266 14.6907 16.938L15.6857 17.0375ZM14.5433 18.0714C15.1332 18.0714 15.627 17.6244 15.6857 17.0375L14.6907 16.938C14.6831 17.0138 14.6194 17.0714 14.5433 17.0714V18.0714ZM14.002 18.0714H14.5433V17.0714H14.002V18.0714ZM12.8597 17.0376C12.9184 17.6245 13.4122 18.0714 14.002 18.0714V17.0714C13.926 17.0714 13.8623 17.0138 13.8547 16.9381L12.8597 17.0376ZM12.6186 16.9378C12.7101 16.863 12.8479 16.9201 12.8597 17.0376L13.8547 16.9381C13.7636 16.0267 12.6943 15.5838 11.9854 16.1638L12.6186 16.9378ZM11.0798 16.861C11.4969 17.2781 12.1621 17.3113 12.6186 16.9378L11.9854 16.1638C11.9265 16.212 11.8407 16.2077 11.7869 16.1539L11.0798 16.861ZM10.697 16.4782L11.0798 16.861L11.7869 16.1539L11.4041 15.7711L10.697 16.4782ZM10.6202 14.9396C10.2468 15.396 10.28 16.0612 10.697 16.4782L11.4041 15.7711C11.3503 15.7173 11.3461 15.6316 11.3942 15.5728L10.6202 14.9396ZM10.5204 14.6987C10.6379 14.7105 10.6949 14.8483 10.6202 14.9396L11.3942 15.5728C11.9742 14.864 11.5312 13.7948 10.6199 13.7037L10.5204 14.6987ZM9.48669 13.5565C9.48669 14.1463 9.93362 14.64 10.5204 14.6987L10.6199 13.7037C10.5443 13.6961 10.4867 13.6325 10.4867 13.5565H9.48669ZM9.48669 13.0152V13.5565H10.4867V13.0152H9.48669ZM10.5208 11.8727C9.93398 11.9313 9.48669 12.4252 9.48669 13.0152H10.4867C10.4867 12.9392 10.5444 12.8753 10.6203 12.8677L10.5208 11.8727ZM10.621 11.6316C10.6955 11.7227 10.6387 11.8609 10.5208 11.8727L10.6203 12.8677C11.5313 12.7766 11.9752 11.7076 11.3949 10.9984L10.621 11.6316ZM10.6977 10.0929C10.2807 10.5099 10.2475 11.1751 10.621 11.6316L11.3949 10.9984C11.3468 10.9395 11.351 10.8538 11.4048 10.8L10.6977 10.0929ZM11.0807 9.70991L10.6977 10.0929L11.4048 10.8L11.7878 10.417L11.0807 9.70991ZM12.6191 9.63319C12.1627 9.25979 11.4977 9.29294 11.0807 9.70991L11.7878 10.417C11.8415 10.3633 11.9271 10.3591 11.9859 10.4071L12.6191 9.63319ZM12.8597 9.53355C12.848 9.65081 12.7104 9.70786 12.6191 9.63319L11.9859 10.4071C12.6946 10.987 13.7636 10.5442 13.8548 9.63305L12.8597 9.53355ZM14.0018 8.5C13.4121 8.5 12.9184 8.94681 12.8597 9.53355L13.8548 9.63305C13.8623 9.55752 13.9259 9.5 14.0018 9.5V8.5ZM14.5435 8.5H14.0018V9.5H14.5435V8.5ZM15.487 13.2858C15.487 13.9564 14.9433 14.5 14.2727 14.5V15.5C15.4956 15.5 16.487 14.5087 16.487 13.2858H15.487ZM14.2727 12.0715C14.9433 12.0715 15.487 12.6151 15.487 13.2858H16.487C16.487 12.0628 15.4956 11.0715 14.2727 11.0715V12.0715ZM13.0584 13.2858C13.0584 12.6151 13.6021 12.0715 14.2727 12.0715V11.0715C13.0498 11.0715 12.0584 12.0628 12.0584 13.2858H13.0584ZM14.2727 14.5C13.6021 14.5 13.0584 13.9564 13.0584 13.2858H12.0584C12.0584 14.5087 13.0498 15.5 14.2727 15.5V14.5Z" fill="currentColor"/>
</svg>
