<svg width="25" height="24" viewBox="0 0 25 24" fill="none" xmlns="http://www.w3.org/2000/svg">
<path d="M13.4963 20.486C14.94 20.4162 16.3457 19.9997 17.5944 19.2716C18.8431 18.5436 19.8981 17.5255 20.6702 16.3035C21.4422 15.0815 21.9085 13.6916 22.0297 12.2512" stroke="currentColor" stroke-linecap="round"/>
<path d="M13.8794 19.2019L12.5391 20.3699L13.7071 21.7102" stroke="currentColor" stroke-linecap="round" stroke-linejoin="round"/>
<path d="M5.07054 7.38776C4.4081 8.67247 4.06483 10.0978 4.06979 11.5433C4.07474 12.9887 4.42777 14.4117 5.099 15.6918C5.77023 16.972 6.73991 18.0716 7.92603 18.8977" stroke="currentColor" stroke-linecap="round"/>
<path d="M5.99038 8.36234L5.65042 6.61727L3.90536 6.95724" stroke="currentColor" stroke-linecap="round" stroke-linejoin="round"/>
<path d="M20.6426 6.72304C19.8699 5.50149 18.8143 4.48403 17.5652 3.75674C16.316 3.02944 14.9101 2.61371 13.4663 2.54471C12.0225 2.47572 10.5833 2.75549 9.27051 3.36035" stroke="currentColor" stroke-linecap="round"/>
<path d="M19.3365 7.02318L21.0136 7.61319L21.6036 5.93608" stroke="currentColor" stroke-linecap="round" stroke-linejoin="round"/>
<path d="M14.1496 7.0446L14.6471 6.99485V6.99485L14.1496 7.0446ZM15.4154 7.56898L15.7321 7.95596V7.95596L15.4154 7.56898ZM16.4574 7.62096L16.811 7.2674L16.811 7.2674L16.4574 7.62096ZM16.917 8.08052L16.5635 8.43407V8.43407L16.917 8.08052ZM16.969 9.12269L17.356 9.43931L16.969 9.12269ZM17.4936 10.3888L17.4438 10.8863L17.4936 10.3888ZM17.4939 12.5859L17.4441 12.0884H17.4441L17.4939 12.5859ZM16.9697 13.8519L17.3567 13.5353H17.3567L16.9697 13.8519ZM15.4159 15.4055L15.0993 15.7925L15.4159 15.4055ZM14.1496 15.9299L14.6471 15.9797L14.1496 15.9299ZM11.9524 15.93L11.4549 15.9797L11.9524 15.93ZM10.6862 15.4055L11.0028 15.7925L10.6862 15.4055ZM9.64384 15.3535L9.99739 15V15L9.64384 15.3535ZM9.18442 14.8941L9.53798 14.5406H9.53797L9.18442 14.8941ZM9.13249 13.8519L9.51947 14.1685H9.51947L9.13249 13.8519ZM8.60826 12.5859L8.65801 12.0884H8.65801L8.60826 12.5859ZM8.60861 10.3887L8.55885 9.89123L8.60861 10.3887ZM9.13322 9.12277L8.74624 9.43939L9.13322 9.12277ZM9.18519 8.08068L8.83164 7.72712H8.83164L9.18519 8.08068ZM9.64487 7.621L9.99842 7.97455L9.64487 7.621ZM10.6867 7.56904L11.0033 7.18206L10.6867 7.56904ZM11.9524 7.04463L11.4549 6.99488L11.9524 7.04463ZM14.6471 6.99485C14.5818 6.34183 14.0323 5.84448 13.376 5.84448V6.84448C13.5185 6.84448 13.6379 6.9525 13.6521 7.09436L14.6471 6.99485ZM15.0988 7.18201C14.9276 7.32213 14.6691 7.21514 14.6471 6.99485L13.6521 7.09436C13.7535 8.10839 14.9432 8.60136 15.7321 7.95596L15.0988 7.18201ZM16.811 7.2674C16.3469 6.80334 15.6067 6.76643 15.0988 7.18201L15.7321 7.95596C15.8424 7.86571 16.0031 7.87373 16.1039 7.97451L16.811 7.2674ZM17.2706 7.72697L16.811 7.2674L16.1039 7.97451L16.5635 8.43407L17.2706 7.72697ZM17.356 9.43931C17.7716 8.93133 17.7347 8.19107 17.2706 7.72697L16.5635 8.43407C16.6643 8.5349 16.6723 8.69572 16.582 8.80607L17.356 9.43931ZM17.5433 9.89123C17.3228 9.86918 17.2159 9.61054 17.356 9.43931L16.582 8.80607C15.9365 9.59506 16.4298 10.7849 17.4438 10.8863L17.5433 9.89123ZM18.6939 11.1626C18.6939 10.5061 18.1964 9.95654 17.5433 9.89123L17.4438 10.8863C17.5858 10.9005 17.6939 11.02 17.6939 11.1626H18.6939ZM18.6939 11.8124V11.1626H17.6939V11.8124H18.6939ZM17.5436 13.0835C18.1966 13.0182 18.6939 12.4687 18.6939 11.8124H17.6939C17.6939 11.9549 17.5859 12.0742 17.4441 12.0884L17.5436 13.0835ZM17.3567 13.5353C17.2163 13.3638 17.3237 13.1054 17.5436 13.0835L17.4441 12.0884C16.4298 12.1899 15.9375 13.38 16.5827 14.1686L17.3567 13.5353ZM17.2713 15.2478C17.7355 14.7837 17.7722 14.0433 17.3567 13.5353L16.5827 14.1686C16.6731 14.279 16.665 14.44 16.5642 14.5407L17.2713 15.2478ZM16.812 15.7071L17.2713 15.2478L16.5642 14.5407L16.1049 15L16.812 15.7071ZM15.0993 15.7925C15.6073 16.2082 16.3478 16.1714 16.812 15.7071L16.1049 15C16.0041 15.1009 15.843 15.109 15.7326 15.0186L15.0993 15.7925ZM14.6471 15.9797C14.6691 15.7594 14.9277 15.6521 15.0993 15.7925L15.7326 15.0186C14.9438 14.3732 13.7535 14.8657 13.6521 15.8802L14.6471 15.9797ZM13.3758 17.1302C14.0322 17.1302 14.5818 16.6328 14.6471 15.9797L13.6521 15.8802C13.6379 16.0221 13.5184 16.1302 13.3758 16.1302V17.1302ZM12.7262 17.1302H13.3758V16.1302H12.7262V17.1302ZM11.4549 15.9797C11.5202 16.6328 12.0698 17.1302 12.7262 17.1302V16.1302C12.5835 16.1302 12.4641 16.0221 12.4499 15.8802L11.4549 15.9797ZM11.0028 15.7925C11.1743 15.6522 11.4328 15.7594 11.4549 15.9797L12.4499 15.8802C12.3485 14.8659 11.1584 14.3731 10.3696 15.0185L11.0028 15.7925ZM9.29028 15.7071C9.75444 16.1713 10.4948 16.2081 11.0028 15.7925L10.3696 15.0185C10.2591 15.1089 10.0982 15.1008 9.99739 15L9.29028 15.7071ZM8.83087 15.2477L9.29028 15.7071L9.99739 15L9.53798 14.5406L8.83087 15.2477ZM8.74551 13.5353C8.32993 14.0432 8.36672 14.7835 8.83087 15.2477L9.53797 14.5406C9.4372 14.4398 9.42914 14.2789 9.51947 14.1685L8.74551 13.5353ZM8.55851 13.0835C8.77856 13.1055 8.88578 13.3638 8.74551 13.5353L9.51947 14.1685C10.1647 13.3799 9.67228 12.1898 8.65801 12.0884L8.55851 13.0835ZM7.4082 11.8124C7.4082 12.4687 7.90549 13.0182 8.55851 13.0835L8.65801 12.0884C8.5162 12.0742 8.4082 11.9549 8.4082 11.8124H7.4082ZM7.4082 11.1626V11.8124H8.4082V11.1626H7.4082ZM8.55885 9.89123C7.9058 9.95653 7.4082 10.5061 7.4082 11.1626H8.4082C8.4082 11.02 8.51632 10.9005 8.65836 10.8863L8.55885 9.89123ZM8.74624 9.43939C8.88625 9.61051 8.77941 9.86917 8.55885 9.89123L8.65836 10.8863C9.67222 10.7849 10.1658 9.59517 9.5202 8.80615L8.74624 9.43939ZM8.83164 7.72712C8.36756 8.1912 8.33064 8.93143 8.74624 9.43939L9.5202 8.80615C9.42992 8.69582 9.43794 8.53503 9.53875 8.43423L8.83164 7.72712ZM9.29132 7.26745L8.83164 7.72712L9.53875 8.43423L9.99842 7.97455L9.29132 7.26745ZM11.0033 7.18206C10.4955 6.76652 9.75533 6.80343 9.29132 7.26745L9.99842 7.97455C10.0992 7.87381 10.2598 7.8658 10.3701 7.95601L11.0033 7.18206ZM11.4549 6.99488C11.4329 7.21519 11.1744 7.32204 11.0033 7.18206L10.3701 7.95601C11.1589 8.60143 12.3485 8.1082 12.4499 7.09438L11.4549 6.99488ZM12.726 5.84448C12.0696 5.84448 11.5202 6.34191 11.4549 6.99488L12.4499 7.09438C12.4641 6.9525 12.5835 6.84448 12.726 6.84448V5.84448ZM13.376 5.84448H12.726V6.84448H13.376V5.84448ZM14.6081 11.487C14.6081 12.347 13.9109 13.0441 13.0509 13.0441V14.0441C14.4632 14.0441 15.6081 12.8993 15.6081 11.487H14.6081ZM13.0509 9.92986C13.9109 9.92986 14.6081 10.627 14.6081 11.487H15.6081C15.6081 10.0747 14.4632 8.92986 13.0509 8.92986V9.92986ZM11.4938 11.487C11.4938 10.627 12.1909 9.92986 13.0509 9.92986V8.92986C11.6387 8.92986 10.4938 10.0747 10.4938 11.487H11.4938ZM13.0509 13.0441C12.1909 13.0441 11.4938 12.347 11.4938 11.487H10.4938C10.4938 12.8993 11.6387 14.0441 13.0509 14.0441V13.0441Z" fill="currentColor"/>
</svg>
