<svg width="20" height="20" viewBox="0 0 20 20" fill="none" xmlns="http://www.w3.org/2000/svg">
<path d="M17.2998 16.7866H6.89355L6.2373 14.1616" stroke="currentColor" stroke-miterlimit="10" stroke-linecap="round" stroke-linejoin="round"/>
<mask id="mask0_35727_19326" style="mask-type:luminance" maskUnits="userSpaceOnUse" x="0" y="0" width="20" height="20">
<path d="M0.387451 0.399122H19.5875V19.5991H0.387451V0.399122Z" fill="white"/>
</mask>
<g mask="url(#mask0_35727_19326)">
<path d="M4.54993 7.41162L3.42493 2.91162H1.92493" stroke="currentColor" stroke-miterlimit="10" stroke-linecap="round" stroke-linejoin="round"/>
<path d="M10.2124 17.9116C10.2124 18.5329 9.7087 19.0366 9.0874 19.0366C8.4661 19.0366 7.9624 18.5329 7.9624 17.9116C7.9624 17.2903 8.4661 16.7866 9.0874 16.7866C9.7087 16.7866 10.2124 17.2903 10.2124 17.9116Z" stroke="currentColor" stroke-miterlimit="10" stroke-linecap="round" stroke-linejoin="round"/>
<path d="M16.2124 17.9116C16.2124 18.5329 15.7087 19.0366 15.0874 19.0366C14.4661 19.0366 13.9624 18.5329 13.9624 17.9116C13.9624 17.2903 14.4661 16.7866 15.0874 16.7866C15.7087 16.7866 16.2124 17.2903 16.2124 17.9116Z" stroke="currentColor" stroke-miterlimit="10" stroke-linecap="round" stroke-linejoin="round"/>
</g>
<path d="M12.272 2.26748L11.7745 2.31723V2.31723L12.272 2.26748ZM13.3271 2.70428L13.6437 3.09126L13.3271 2.70428ZM14.1958 2.74753L14.5493 2.39398L14.5493 2.39398L14.1958 2.74753ZM14.5785 3.13028L14.225 3.48383L14.5785 3.13028ZM14.6218 3.99896L15.0088 4.31558L14.6218 3.99896ZM15.0591 5.05427L15.0094 5.55179L15.0591 5.05427ZM15.0598 6.88526L15.01 6.38774H15.01L15.0598 6.88526ZM14.623 7.93974L14.236 8.25636L14.236 8.25636L14.623 7.93974ZM14.1968 9.19062L13.8433 8.83707L14.1968 9.19062ZM13.3278 9.23396L13.6444 8.84699H13.6444L13.3278 9.23396ZM12.2721 9.67144L12.7696 9.72119L12.2721 9.67144ZM10.441 9.67184L9.94349 9.72159L10.441 9.67184ZM9.38611 9.23466L9.70273 9.62164L9.38611 9.23466ZM8.51777 9.19136L8.16421 9.54491H8.16421L8.51777 9.19136ZM8.13469 8.80828L8.48825 8.45473L8.48825 8.45473L8.13469 8.80828ZM8.09144 7.93995L8.47842 8.25657H8.47842L8.09144 7.93995ZM7.65474 6.88526L7.60499 7.38278H7.60499L7.65474 6.88526ZM7.65531 5.05428L7.60555 4.55676H7.60555L7.65531 5.05428ZM8.09253 3.99869L7.70555 4.31531L7.70555 4.31531L8.09253 3.99869ZM8.13587 3.12976L7.78232 2.7762L8.13587 3.12976ZM8.51883 2.7468L8.16527 2.39324L8.16527 2.39324L8.51883 2.7468ZM9.38681 2.70357L9.70343 2.31659L9.38681 2.70357ZM10.4411 2.26705L9.94356 2.2173L10.4411 2.26705ZM12.7695 2.21773C12.7108 1.63094 12.2171 1.18408 11.6274 1.18408V2.18408C11.7033 2.18408 11.7669 2.24164 11.7745 2.31723L12.7695 2.21773ZM13.0105 2.3173C12.9189 2.39221 12.7812 2.33478 12.7695 2.21773L11.7745 2.31723C11.8656 3.22879 12.9352 3.67096 13.6437 3.09126L13.0105 2.3173ZM14.5493 2.39398C14.1322 1.97684 13.4669 1.94388 13.0105 2.3173L13.6437 3.09126C13.7026 3.04303 13.7885 3.04738 13.8422 3.10109L14.5493 2.39398ZM14.9321 2.77672L14.5493 2.39398L13.8422 3.10109L14.225 3.48383L14.9321 2.77672ZM15.0088 4.31558C15.3823 3.85907 15.3492 3.1938 14.9321 2.77672L14.225 3.48383C14.2788 3.53763 14.283 3.62345 14.2349 3.68234L15.0088 4.31558ZM15.1089 4.55675C14.9911 4.54497 14.9342 4.40684 15.0088 4.31558L14.2349 3.68234C13.6547 4.39146 14.0982 5.46067 15.0094 5.55179L15.1089 4.55675ZM16.143 5.69931C16.143 5.10931 15.6958 4.61544 15.1089 4.55675L15.0094 5.55179C15.0852 5.55938 15.143 5.62323 15.143 5.69931H16.143ZM16.143 6.24085V5.69931H15.143V6.24085H16.143ZM15.1095 7.38278C15.6962 7.32411 16.143 6.83045 16.143 6.24085H15.143C15.143 6.31669 15.0855 6.38019 15.01 6.38774L15.1095 7.38278ZM15.01 7.62312C14.9354 7.53199 14.9923 7.3945 15.1095 7.38278L15.01 6.38774C14.099 6.47884 13.6562 7.54773 14.236 8.25636L15.01 7.62312ZM14.9332 9.16132C15.3501 8.74442 15.3833 8.07944 15.01 7.62312L14.236 8.25636C14.284 8.31505 14.2798 8.40059 14.2261 8.45421L14.9332 9.16132ZM14.5504 9.54418L14.9332 9.16132L14.2261 8.45421L13.8433 8.83707L14.5504 9.54418ZM13.0112 9.62094C13.4678 9.99454 14.1332 9.96135 14.5504 9.54418L13.8433 8.83707C13.7894 8.89097 13.7034 8.89525 13.6444 8.84699L13.0112 9.62094ZM12.7696 9.72119C12.7814 9.60316 12.9198 9.54615 13.0112 9.62094L13.6444 8.84699C12.9351 8.26666 11.8657 8.7103 11.7745 9.62169L12.7696 9.72119ZM11.6268 10.7555C12.2169 10.7555 12.7109 10.3082 12.7696 9.72119L11.7745 9.62169C11.7669 9.69769 11.703 9.75551 11.6268 9.75551V10.7555ZM11.0858 10.7555H11.6268V9.75551H11.0858V10.7555ZM9.94349 9.72159C10.0022 10.3084 10.4959 10.7555 11.0858 10.7555V9.75551C11.0099 9.75551 10.9461 9.69788 10.9385 9.62209L9.94349 9.72159ZM9.70273 9.62164C9.79377 9.54716 9.93172 9.6039 9.94349 9.72159L10.9385 9.62209C10.8474 8.71119 9.77851 8.26758 9.06949 8.84769L9.70273 9.62164ZM8.16421 9.54491C8.5812 9.9619 9.24632 9.99507 9.70273 9.62164L9.06949 8.84769C9.0107 8.89579 8.92503 8.89151 8.87132 8.8378L8.16421 9.54491ZM7.78114 9.16184L8.16421 9.54491L8.87132 8.8378L8.48825 8.45473L7.78114 9.16184ZM7.70447 7.62333C7.33111 8.07966 7.36412 8.74481 7.78114 9.16184L8.48825 8.45473C8.43462 8.4011 8.43029 8.3154 8.47842 8.25657L7.70447 7.62333ZM7.60499 7.38278C7.72196 7.39448 7.77921 7.53197 7.70447 7.62333L8.47842 8.25657C9.05807 7.54811 8.61581 6.47887 7.70449 6.38774L7.60499 7.38278ZM6.57153 6.24082C6.57153 6.83043 7.01831 7.32411 7.60499 7.38278L7.70449 6.38774C7.62901 6.38019 7.57153 6.31668 7.57153 6.24082H6.57153ZM6.57153 5.69934V6.24082H7.57153V5.69934H6.57153ZM7.60555 4.55676C7.01855 4.61546 6.57153 5.10941 6.57153 5.69934H7.57153C7.57153 5.62316 7.62926 5.55937 7.70506 5.55179L7.60555 4.55676ZM7.70555 4.31531C7.78048 4.40688 7.72325 4.54499 7.60555 4.55676L7.70506 5.55179C8.61664 5.46064 9.05962 4.39109 8.47951 3.68207L7.70555 4.31531ZM7.78232 2.7762C7.36516 3.19335 7.33199 3.85873 7.70555 4.31531L8.47951 3.68207C8.43127 3.6231 8.43556 3.53718 8.48942 3.48331L7.78232 2.7762ZM8.16527 2.39324L7.78232 2.7762L8.48942 3.48331L8.87238 3.10035L8.16527 2.39324ZM9.70343 2.31659C9.24721 1.94332 8.58221 1.97631 8.16527 2.39324L8.87238 3.10035C8.92591 3.04682 9.01146 3.04249 9.07019 3.09055L9.70343 2.31659ZM9.94356 2.2173C9.93188 2.33405 9.79463 2.39121 9.70343 2.31659L9.07019 3.09055C9.77848 3.67005 10.8475 3.22791 10.9386 2.3168L9.94356 2.2173ZM11.0852 1.18408C10.4958 1.18408 10.0022 1.63075 9.94356 2.2173L10.9386 2.3168C10.9461 2.24146 11.0095 2.18408 11.0852 2.18408V1.18408ZM11.6274 1.18408H11.0852V2.18408H11.6274V1.18408ZM12.5716 5.96917C12.5716 6.6398 12.028 7.18345 11.3574 7.18345V8.18345C12.5803 8.18345 13.5716 7.19208 13.5716 5.96917H12.5716ZM11.3574 4.75488C12.028 4.75488 12.5716 5.29854 12.5716 5.96917H13.5716C13.5716 4.74625 12.5803 3.75488 11.3574 3.75488V4.75488ZM10.1431 5.96917C10.1431 5.29854 10.6867 4.75488 11.3574 4.75488V3.75488C10.1344 3.75488 9.14307 4.74625 9.14307 5.96917H10.1431ZM11.3574 7.18345C10.6867 7.18345 10.1431 6.6398 10.1431 5.96917H9.14307C9.14307 7.19208 10.1344 8.18345 11.3574 8.18345V7.18345Z" fill="currentColor"/>
<path fill-rule="evenodd" clip-rule="evenodd" d="M5.86669 6.91162H4.54981C4.39584 6.91162 4.25046 6.98256 4.15571 7.10392C4.06095 7.22527 4.0274 7.38352 4.06474 7.53289L5.75224 14.2829C5.80788 14.5055 6.00788 14.6616 6.23731 14.6616H16.3623C16.5917 14.6616 16.7917 14.5055 16.8474 14.2829L18.5349 7.53289C18.5722 7.38352 18.5387 7.22527 18.4439 7.10392C18.3492 6.98256 18.2038 6.91162 18.0498 6.91162H16.8514C16.7927 7.25681 16.7022 7.59118 16.5831 7.91162H17.4094L15.9719 13.6616H6.6277L5.1902 7.91162H6.13494C6.01585 7.59118 5.9254 7.25681 5.86669 6.91162Z" fill="currentColor"/>
</svg>
