<svg width="20" height="20" viewBox="0 0 20 20" fill="none" xmlns="http://www.w3.org/2000/svg">
<path fill-rule="evenodd" clip-rule="evenodd" d="M4.9873 3.84009C4.71116 3.84009 4.4873 4.06395 4.4873 4.34009C4.4873 4.61623 4.71116 4.84009 4.9873 4.84009H4.99729C5.27343 4.84009 5.49729 4.61623 5.49729 4.34009C5.49729 4.06395 5.27343 3.84009 4.99729 3.84009H4.9873ZM8.98231 3.84009C8.70617 3.84009 8.48231 4.06395 8.48231 4.34009C8.48231 4.61623 8.70617 4.84009 8.98231 4.84009H8.9923C9.26844 4.84009 9.4923 4.61623 9.4923 4.34009C9.4923 4.06395 9.26844 3.84009 8.9923 3.84009H8.98231ZM12.9773 3.84009C12.7012 3.84009 12.4773 4.06395 12.4773 4.34009C12.4773 4.61623 12.7012 4.84009 12.9773 4.84009H12.9873C13.2634 4.84009 13.4873 4.61623 13.4873 4.34009C13.4873 4.06395 13.2634 3.84009 12.9873 3.84009H12.9773ZM4.9873 7.09009C4.71116 7.09009 4.4873 7.31395 4.4873 7.59009C4.4873 7.86623 4.71116 8.09009 4.9873 8.09009H4.99729C5.27343 8.09009 5.49729 7.86623 5.49729 7.59009C5.49729 7.31395 5.27343 7.09009 4.99729 7.09009H4.9873ZM8.98231 7.09009C8.70617 7.09009 8.48231 7.31395 8.48231 7.59009C8.48231 7.86623 8.70617 8.09009 8.98231 8.09009H8.9923C9.26844 8.09009 9.4923 7.86623 9.4923 7.59009C9.4923 7.31395 9.26844 7.09009 8.9923 7.09009H8.98231ZM12.4779 7.56536C12.4908 7.3007 12.7095 7.09009 12.9773 7.09009H12.9873C13.1879 7.09009 13.3608 7.20817 13.4405 7.3786C13.1111 7.41551 12.7895 7.47846 12.4779 7.56536ZM7.98816 13.5901H5.98606C5.70991 13.5901 5.48606 13.8139 5.48606 14.0901V17.8401C5.48606 18.1162 5.70991 18.3401 5.98606 18.3401H10.013C9.73563 18.0297 9.47114 17.6963 9.23024 17.3401H6.48606V14.5901H8.08351C8.02679 14.2677 7.99376 13.9343 7.98816 13.5901ZM4.9873 10.3401C4.71116 10.3401 4.4873 10.5639 4.4873 10.8401C4.4873 11.1162 4.71116 11.3401 4.9873 11.3401H4.99729C5.27343 11.3401 5.49729 11.1162 5.49729 10.8401C5.49729 10.5639 5.27343 10.3401 4.99729 10.3401H4.9873Z" fill="currentColor"/>
<path fill-rule="evenodd" clip-rule="evenodd" d="M2.9873 1.34009H14.9873C15.6413 1.34009 15.9873 1.79476 15.9873 2.14009V7.62503C16.335 7.735 16.6694 7.87507 16.9873 8.04217V2.14009C16.9873 1.14598 16.0919 0.340088 14.9873 0.340088H2.9873C1.88274 0.340088 0.987305 1.14598 0.987305 2.14009V16.5401C0.987305 17.5342 1.88274 18.3401 2.9873 18.3401H10.013C9.73563 18.0297 9.47114 17.6963 9.23024 17.3401H2.9873C2.33331 17.3401 1.9873 16.8854 1.9873 16.5401V2.14009C1.9873 1.79476 2.33331 1.34009 2.9873 1.34009Z" fill="currentColor"/>
<mask id="path-3-inside-1_28466_14465" fill="white">
<path fill-rule="evenodd" clip-rule="evenodd" d="M14.5298 19.9007C15.7369 19.2564 19.2773 17.0616 19.2773 13.4851C19.2773 10.6436 16.9738 8.34009 14.1323 8.34009C11.2908 8.34009 8.9873 10.6436 8.9873 13.4851C8.9873 17.0616 12.5277 19.2564 13.7348 19.9007C13.9861 20.0349 14.2786 20.0349 14.5298 19.9007ZM14.1323 14.9551C14.9442 14.9551 15.6023 14.2969 15.6023 13.4851C15.6023 12.6732 14.9442 12.0151 14.1323 12.0151C13.3204 12.0151 12.6623 12.6732 12.6623 13.4851C12.6623 14.2969 13.3204 14.9551 14.1323 14.9551Z"/>
</mask>
<path d="M14.5298 19.9007L14.0589 19.0186L14.0589 19.0186L14.5298 19.9007ZM13.7348 19.9007L13.2638 20.7829L13.2638 20.7829L13.7348 19.9007ZM18.2773 13.4851C18.2773 14.9219 17.5692 16.1293 16.6357 17.099C15.7018 18.0693 14.6165 18.7209 14.0589 19.0186L15.0008 20.7829C15.6502 20.4362 16.9386 19.6683 18.0767 18.486C19.2152 17.3031 20.2773 15.6248 20.2773 13.4851H18.2773ZM14.1323 9.34009C16.4215 9.34009 18.2773 11.1959 18.2773 13.4851H20.2773C20.2773 10.0913 17.5261 7.34009 14.1323 7.34009V9.34009ZM9.9873 13.4851C9.9873 11.1959 11.8431 9.34009 14.1323 9.34009V7.34009C10.7385 7.34009 7.9873 10.0913 7.9873 13.4851H9.9873ZM14.2057 19.0186C13.6481 18.7209 12.5628 18.0693 11.6289 17.099C10.6954 16.1293 9.9873 14.9219 9.9873 13.4851H7.9873C7.9873 15.6248 9.04939 17.3031 10.1879 18.486C11.326 19.6683 12.6144 20.4362 13.2638 20.7829L14.2057 19.0186ZM14.0589 19.0186C14.0768 19.009 14.1024 19.0014 14.1323 19.0014C14.1622 19.0014 14.1878 19.009 14.2057 19.0186L13.2638 20.7829C13.8094 21.0742 14.4552 21.0742 15.0008 20.7829L14.0589 19.0186ZM14.6023 13.4851C14.6023 13.7447 14.3919 13.9551 14.1323 13.9551V15.9551C15.4964 15.9551 16.6023 14.8492 16.6023 13.4851H14.6023ZM14.1323 13.0151C14.3919 13.0151 14.6023 13.2255 14.6023 13.4851H16.6023C16.6023 12.1209 15.4964 11.0151 14.1323 11.0151V13.0151ZM13.6623 13.4851C13.6623 13.2255 13.8727 13.0151 14.1323 13.0151V11.0151C12.7682 11.0151 11.6623 12.1209 11.6623 13.4851H13.6623ZM14.1323 13.9551C13.8727 13.9551 13.6623 13.7447 13.6623 13.4851H11.6623C11.6623 14.8492 12.7682 15.9551 14.1323 15.9551V13.9551Z" fill="currentColor" mask="url(#path-3-inside-1_28466_14465)"/>
</svg>
