<svg width="19" height="21" viewBox="0 0 19 21" fill="none" xmlns="http://www.w3.org/2000/svg">
<path d="M4.78729 2.5C4.78729 1.39543 5.68272 0.5 6.78729 0.5H8.78729C9.89186 0.5 10.7873 1.39543 10.7873 2.5C10.7873 3.60457 9.89186 4.5 8.78729 4.5H6.78729C5.68272 4.5 4.78729 3.60457 4.78729 2.5Z" stroke="currentColor"/>
<circle cx="13.3536" cy="15.5663" r="4.21429" stroke="currentColor"/>
<path d="M11.7046 15.6801L12.7724 16.8633L14.9873 14.5513" stroke="currentColor" stroke-linecap="round" stroke-linejoin="round"/>
<path fill-rule="evenodd" clip-rule="evenodd" d="M4.48731 2.00195L4.46618 2.00195C3.78124 2.00195 3.18581 2.00194 2.69894 2.04613C2.21383 2.09016 1.75791 2.18292 1.39818 2.42328C1.12521 2.60568 0.890833 2.84005 0.708436 3.11303C0.475862 3.4611 0.377965 3.85457 0.33181 4.30827C0.287097 4.74782 0.287103 5.29564 0.28711 5.97496V5.97498V6.00195V15.502V15.5385V15.5385C0.287096 16.4503 0.287086 17.1851 0.364792 17.7631C0.44547 18.3632 0.618066 18.8684 1.01934 19.2697C1.42062 19.671 1.92587 19.8436 2.52594 19.9243C3.10391 20.002 3.83878 20.002 4.75049 20.002H4.75051H4.78711H9.98052C9.60216 19.713 9.2619 19.3768 8.96859 19.002H4.78711C3.83017 19.002 3.16276 19.0009 2.65919 18.9332C2.17001 18.8674 1.91096 18.7471 1.72645 18.5626C1.54194 18.3781 1.42164 18.1191 1.35588 17.6299C1.28817 17.1263 1.28711 16.4589 1.28711 15.502V6.00195C1.28711 5.28932 1.28771 4.79247 1.32668 4.40948C1.36479 4.03484 1.43542 3.82497 1.53991 3.6686C1.64934 3.50481 1.78997 3.36419 1.95376 3.25475C2.09847 3.15805 2.34599 3.08228 2.78933 3.04204C3.2259 3.00242 3.77667 3.00195 4.48731 3.00195V2.00195ZM14.2871 10.0768C14.6322 10.1346 14.9666 10.2243 15.2871 10.3425V6.00195V5.97497V5.97495C15.2871 5.29563 15.2871 4.74782 15.2424 4.30827C15.1963 3.85457 15.0984 3.4611 14.8658 3.11303C14.6834 2.84005 14.449 2.60568 14.176 2.42328C13.8117 2.17981 13.3248 2.08914 12.8232 2.04593C12.3126 2.00195 11.6933 2.00195 11.0061 2.00195L10.9873 2.00195V3.00195C11.6971 3.00195 12.2744 3.00236 12.7374 3.04224C13.214 3.0833 13.4804 3.16116 13.6205 3.25475L13.8982 2.83901L13.6205 3.25475C13.7843 3.36419 13.9249 3.50481 14.0343 3.6686L14.45 3.39081L14.0343 3.6686C14.1388 3.82497 14.2094 4.03484 14.2475 4.40948C14.2865 4.79247 14.2871 5.28932 14.2871 6.00195V10.0768Z" fill="currentColor"/>
<path d="M4.78729 9.40015L10.7873 9.40015" stroke="currentColor" stroke-linecap="round"/>
<path fill-rule="evenodd" clip-rule="evenodd" d="M8.36437 13.1001H4.7876C4.51146 13.1001 4.2876 13.324 4.2876 13.6001C4.2876 13.8762 4.51146 14.1001 4.7876 14.1001L7.98396 14.1001C8.07903 13.752 8.20702 13.4175 8.36437 13.1001Z" fill="currentColor"/>
</svg>
