<svg width="19" height="19" viewBox="0 0 19 19" fill="none" xmlns="http://www.w3.org/2000/svg">
<ellipse cx="7.50395" cy="3.41675" rx="6.41667" ry="2.75" stroke="currentColor"/>
<path fill-rule="evenodd" clip-rule="evenodd" d="M1.58728 8.00008V7.99116V7.98221V7.97323V7.9642V7.95515V7.94606V7.93693V7.92777V7.91858V7.90936V7.9001V7.8908V7.88148V7.87212V7.86273V7.85331V7.84385V7.83437V7.82485V7.8153V7.80572V7.7961V7.78646V7.77679V7.76708V7.75735V7.74759V7.73779V7.72797V7.71811V7.70823V7.69832V7.68838V7.67841V7.66842V7.65839V7.64834V7.63826V7.62815V7.61801V7.60785V7.59766V7.58744V7.5772V7.56693V7.55663V7.54631V7.53596V7.52559V7.51519V7.50477V7.49432V7.48385V7.47335V7.46283V7.45229V7.44172V7.43113V7.42051V7.40987V7.39921V7.38852V7.37781V7.36708V7.35633V7.34556V7.33476V7.32394V7.3131V7.30224V7.29136V7.28046V7.26954V7.2586V7.24763V7.23665V7.22565V7.21463V7.20358V7.19252V7.18144V7.17035V7.15923V7.14809V7.13694V7.12577V7.11458V7.10338V7.09215V7.08091V7.06966V7.05838V7.04709V7.03579V7.02446V7.01313V7.00177V6.9904V6.97902V6.96762V6.95621V6.94478V6.93333V6.92188V6.91041V6.89892V6.88742V6.87591V6.86439V6.85285V6.8413V6.82974V6.81816V6.80657V6.79498V6.78336V6.77174V6.76011V6.74846V6.73681V6.72514V6.71347V6.70178V6.69008V6.67838V6.66666V6.65493V6.6432V6.63146V6.6197V6.60794V6.59617V6.58439V6.57261V6.56081V6.54901V6.5372V6.52539V6.51357V6.50174V6.4899V6.47806V6.46621V6.45436V6.4425V6.43063V6.41876V6.40689V6.39501V6.38312V6.37123V6.35934V6.34744V6.33554V6.32363V6.31172V6.29981V6.2879V6.27598V6.26406V6.25213V6.24021V6.22828V6.21635V6.20442V6.19249V6.18056V6.16862V6.15669V6.14475V6.13282V6.12088V6.10894V6.09701V6.08507V6.07314V6.06121V6.04927V6.03734V6.02541V6.01349V6.00156V5.98964V5.97771V5.9658V5.95388V5.94197V5.93006V5.91815V5.90625V5.89435V5.88245V5.87056V5.85867V5.84679V5.83491V5.82304V5.81118V5.79931V5.78746V5.77561V5.76376V5.75193V5.74009V5.72827V5.71645V5.70464V5.69284V5.68104V5.66925V5.65747V5.6457V5.63394V5.62218V5.61043V5.5987V5.58697V5.57525V5.56354V5.55184V5.54015V5.52847V5.5168V5.50514V5.49349V5.48185V5.47023V5.45861V5.44701V5.43542V5.42384V5.41227V5.40072V5.38918V5.37765V5.36613V5.35463V5.34314V5.33166V5.3202V5.30875V5.29732V5.2859V5.2745V5.26311V5.25174V5.24038V5.22903V5.21771V5.20639V5.1951V5.18382V5.17256V5.16131V5.15008V5.13887V5.12768V5.1165V5.10534V5.0942V5.08308V5.07197V5.06089V5.04982V5.03877V5.02775V5.01674V5.00575V4.99478V4.98383V4.9729V4.96199V4.9511V4.94023V4.92939V4.91856V4.90776V4.89698V4.88622V4.87548V4.86477V4.85407V4.8434V4.83276V4.82213V4.81153V4.80095V4.7904V4.77987V4.76937V4.75889V4.74843V4.738V4.72759V4.71721V4.70686V4.69653V4.68622V4.67594V4.66569V4.65547V4.64527V4.6351V4.62495V4.61483V4.60474V4.59468V4.58465V4.57464V4.56466V4.55471V4.54479V4.5349V4.52504V4.5152V4.5054V4.49563V4.48588V4.47617V4.46648V4.45683V4.44721V4.43762V4.42806V4.41853V4.40903V4.39956V4.39013V4.38073V4.37136V4.36203V4.35272V4.34345V4.33421V4.32501V4.31584V4.30671V4.2976V4.28854V4.2795V4.2705V4.26154V4.25261V4.24372V4.23486V4.22604V4.21725V4.2085V4.19979V4.19111V4.18247V4.17387V4.1653V4.15678V4.14828V4.13983V4.13142V4.12304V4.1147V4.1064V4.09814V4.08992V4.08173V4.07359V4.06549V4.05742V4.0494V4.04141V4.03347V4.02557V4.01771V4.00988V4.00211V3.99437V3.98667V3.97902V3.9714V3.96383V3.95631V3.94882V3.94138V3.93398V3.92663V3.91932V3.91205V3.90482V3.89764V3.89051V3.88342V3.87637V3.86937V3.86241V3.8555V3.84864V3.84182V3.83505V3.82832V3.82164V3.81501V3.80842V3.80188V3.79539V3.78894V3.78255V3.7762V3.76989V3.76364V3.75744V3.75128V3.74517V3.73912V3.73311V3.72715V3.72124V3.71538V3.70957V3.70381V3.69811V3.69245V3.68684V3.68129V3.67578V3.67033V3.66493V3.65958V3.65428V3.64904V3.64385V3.63871V3.63363V3.62859V3.62362V3.61869V3.61382V3.609V3.60424V3.59953V3.59488V3.59028V3.58574V3.58125V3.57681V3.57244V3.56812V3.56385V3.55964V3.55549V3.55139V3.54736V3.54337V3.53945V3.53558V3.53178V3.52802V3.52433V3.5207V3.51712V3.51361V3.51015V3.50675V3.50341V3.50013V3.49691V3.49375V3.49065V3.48761V3.48464V3.48172V3.47886V3.47607V3.47334V3.47066V3.46805V3.46551V3.46302V3.4606V3.45824V3.45594V3.45371V3.45154V3.44943V3.44738V3.44541V3.44349V3.44164V3.43985V3.43813V3.43647V3.43488V3.43336V3.4319V3.4305V3.42917V3.42791V3.42671V3.42559V3.42452V3.42353V3.4226V3.42174V3.42095V3.42022V3.41956V3.41898V3.41845V3.418V3.41762V3.41731V3.41706V3.41689V3.41678L1.08728 3.41675L0.58728 3.41678V3.41689V3.41706V3.41731V3.41762V3.418V3.41845V3.41898V3.41956V3.42022V3.42095V3.42174V3.4226V3.42353V3.42452V3.42559V3.42671V3.42791V3.42917V3.4305V3.4319V3.43336V3.43488V3.43647V3.43813V3.43985V3.44164V3.44349V3.44541V3.44738V3.44943V3.45154V3.45371V3.45594V3.45824V3.4606V3.46302V3.46551V3.46805V3.47066V3.47334V3.47607V3.47886V3.48172V3.48464V3.48761V3.49065V3.49375V3.49691V3.50013V3.50341V3.50675V3.51015V3.51361V3.51712V3.5207V3.52433V3.52802V3.53178V3.53558V3.53945V3.54337V3.54736V3.55139V3.55549V3.55964V3.56385V3.56812V3.57244V3.57681V3.58125V3.58574V3.59028V3.59488V3.59953V3.60424V3.609V3.61382V3.61869V3.62362V3.62859V3.63363V3.63871V3.64385V3.64904V3.65428V3.65958V3.66493V3.67033V3.67578V3.68129V3.68684V3.69245V3.69811V3.70381V3.70957V3.71538V3.72124V3.72715V3.73311V3.73912V3.74517V3.75128V3.75744V3.76364V3.76989V3.7762V3.78255V3.78894V3.79539V3.80188V3.80842V3.81501V3.82164V3.82832V3.83505V3.84182V3.84864V3.8555V3.86241V3.86937V3.87637V3.88342V3.89051V3.89764V3.90482V3.91205V3.91932V3.92663V3.93398V3.94138V3.94882V3.95631V3.96383V3.9714V3.97902V3.98667V3.99437V4.00211V4.00988V4.01771V4.02557V4.03347V4.04141V4.0494V4.05742V4.06549V4.07359V4.08173V4.08992V4.09814V4.1064V4.1147V4.12304V4.13142V4.13983V4.14828V4.15678V4.1653V4.17387V4.18247V4.19111V4.19979V4.2085V4.21725V4.22604V4.23486V4.24372V4.25261V4.26154V4.2705V4.2795V4.28854V4.2976V4.30671V4.31584V4.32501V4.33421V4.34345V4.35272V4.36203V4.37136V4.38073V4.39013V4.39956V4.40903V4.41853V4.42806V4.43762V4.44721V4.45683V4.46648V4.47617V4.48588V4.49563V4.5054V4.5152V4.52504V4.5349V4.54479V4.55471V4.56466V4.57464V4.58465V4.59468V4.60474V4.61483V4.62495V4.6351V4.64527V4.65547V4.66569V4.67594V4.68622V4.69653V4.70686V4.71721V4.72759V4.738V4.74843V4.75889V4.76937V4.77987V4.7904V4.80095V4.81153V4.82213V4.83276V4.8434V4.85407V4.86477V4.87548V4.88622V4.89698V4.90776V4.91856V4.92939V4.94023V4.9511V4.96199V4.9729V4.98383V4.99478V5.00575V5.01674V5.02775V5.03877V5.04982V5.06089V5.07197V5.08308V5.0942V5.10534V5.1165V5.12768V5.13887V5.15008V5.16131V5.17256V5.18382V5.1951V5.20639V5.21771V5.22903V5.24038V5.25174V5.26311V5.2745V5.2859V5.29732V5.30875V5.3202V5.33166V5.34314V5.35463V5.36613V5.37765V5.38918V5.40072V5.41227V5.42384V5.43542V5.44701V5.45861V5.47023V5.48185V5.49349V5.50514V5.5168V5.52847V5.54015V5.55184V5.56354V5.57525V5.58697V5.5987V5.61043V5.62218V5.63394V5.6457V5.65747V5.66925V5.68104V5.69284V5.70464V5.71645V5.72827V5.74009V5.75193V5.76376V5.77561V5.78746V5.79931V5.81118V5.82304V5.83491V5.84679V5.85867V5.87056V5.88245V5.89435V5.90625V5.91815V5.93006V5.94197V5.95388V5.9658V5.97771V5.98964V6.00156V6.01349V6.02541V6.03734V6.04927V6.06121V6.07314V6.08507V6.09701V6.10894V6.12088V6.13282V6.14475V6.15669V6.16862V6.18056V6.19249V6.20442V6.21635V6.22828V6.24021V6.25213V6.26406V6.27598V6.2879V6.29981V6.31172V6.32363V6.33554V6.34744V6.35934V6.37123V6.38312V6.39501V6.40689V6.41876V6.43063V6.4425V6.45436V6.46621V6.47806V6.4899V6.50174V6.51357V6.52539V6.5372V6.54901V6.56081V6.57261V6.58439V6.59617V6.60794V6.6197V6.63146V6.6432V6.65493V6.66666V6.67838V6.69008V6.70178V6.71347V6.72514V6.73681V6.74846V6.76011V6.77174V6.78336V6.79498V6.80657V6.81816V6.82974V6.8413V6.85285V6.86439V6.87591V6.88742V6.89892V6.91041V6.92188V6.93333V6.94478V6.95621V6.96762V6.97902V6.9904V7.00177V7.01313V7.02446V7.03579V7.04709V7.05838V7.06966V7.08091V7.09215V7.10338V7.11458V7.12577V7.13694V7.14809V7.15923V7.17035V7.18144V7.19252V7.20358V7.21463V7.22565V7.23665V7.24763V7.2586V7.26954V7.28046V7.29136V7.30224V7.3131V7.32394V7.33476V7.34556V7.35633V7.36708V7.37781V7.38852V7.39921V7.40987V7.42051V7.43113V7.44172V7.45229V7.46283V7.47335V7.48385V7.49432V7.50477V7.51519V7.52559V7.53596V7.54631V7.55663V7.56693V7.5772V7.58744V7.59766V7.60785V7.61801V7.62815V7.63826V7.64834V7.65839V7.66842V7.67841V7.68838V7.69832V7.70823V7.71811V7.72797V7.73779V7.74759V7.75735V7.76708V7.77679V7.78646V7.7961V7.80572V7.8153V7.82485V7.83437V7.84385V7.85331V7.86273V7.87212V7.88148V7.8908V7.9001V7.90936V7.91858V7.92777V7.93693V7.94606V7.95515V7.9642V7.97323V7.98221V7.99116V8.00008C0.58728 8.54886 0.848908 9.02984 1.23566 9.42172C1.62029 9.81145 2.15207 10.1395 2.76972 10.4042C4.00679 10.9344 5.68094 11.2501 7.50395 11.2501C7.67501 11.2501 7.84476 11.2473 8.01297 11.2418C8.18296 10.873 8.39207 10.526 8.63498 10.206C8.26943 10.2349 7.89142 10.2501 7.50395 10.2501C5.78313 10.2501 4.24894 9.95018 3.16364 9.48505C2.6201 9.25211 2.21218 8.98757 1.94741 8.71929C1.68476 8.45316 1.58728 8.2107 1.58728 8.00008ZM13.4205 8.01064C13.7605 8.03142 14.0922 8.08268 14.413 8.16173C14.418 8.10853 14.4206 8.05464 14.4206 8.00008V7.9956V7.99106V7.98644V7.98176V7.977V7.97218V7.96729V7.96233V7.9573V7.9522V7.94704V7.94181V7.93652V7.93116V7.92573V7.92023V7.91468V7.90905V7.90337V7.89761V7.8918V7.88592V7.87997V7.87397V7.8679V7.86177V7.85557V7.84932V7.843V7.83662V7.83018V7.82368V7.81712V7.8105V7.80382V7.79708V7.79028V7.78342V7.7765V7.76953V7.7625V7.75541V7.74826V7.74106V7.73379V7.72648V7.7191V7.71168V7.70419V7.69665V7.68906V7.68141V7.67371V7.66595V7.65814V7.65027V7.64236V7.63439V7.62637V7.61829V7.61017V7.60199V7.59376V7.58549V7.57716V7.56878V7.56035V7.55187V7.54334V7.53477V7.52614V7.51747V7.50874V7.49998V7.49116V7.48229V7.47338V7.46443V7.45542V7.44637V7.43728V7.42814V7.41895V7.40972V7.40045V7.39113V7.38177V7.37237V7.36292V7.35343V7.34389V7.33432V7.3247V7.31504V7.30534V7.2956V7.28582V7.276V7.26613V7.25623V7.24629V7.23631V7.22629V7.21623V7.20614V7.196V7.18583V7.17563V7.16538V7.1551V7.14478V7.13443V7.12404V7.11361V7.10315V7.09266V7.08213V7.07156V7.06097V7.05033V7.03967V7.02897V7.01824V7.00748V6.99669V6.98586V6.975V6.96412V6.9532V6.94225V6.93127V6.92026V6.90922V6.89815V6.88705V6.87593V6.86477V6.85359V6.84238V6.83115V6.81988V6.80859V6.79727V6.78593V6.77456V6.76317V6.75175V6.7403V6.72883V6.71734V6.70582V6.69428V6.68271V6.67112V6.65951V6.64788V6.63623V6.62455V6.61285V6.60113V6.58939V6.57763V6.56585V6.55405V6.54222V6.53038V6.51852V6.50665V6.49475V6.48283V6.4709V6.45895V6.44698V6.435V6.423V6.41098V6.39895V6.3869V6.37483V6.36275V6.35066V6.33855V6.32643V6.31429V6.30214V6.28998V6.2778V6.26561V6.25341V6.2412V6.22898V6.21674V6.20449V6.19224V6.17997V6.16769V6.1554V6.1431V6.1308V6.11848V6.10616V6.09382V6.08148V6.06914V6.05678V6.04442V6.03205V6.01967V6.00729V5.9949V5.98251V5.97011V5.95771V5.9453V5.93289V5.92047V5.90805V5.89563V5.88321V5.87078V5.85835V5.84591V5.83348V5.82104V5.8086V5.79617V5.78373V5.77129V5.75885V5.74641V5.73397V5.72153V5.7091V5.69666V5.68423V5.6718V5.65937V5.64695V5.63452V5.62211V5.60969V5.59728V5.58487V5.57247V5.56008V5.54769V5.5353V5.52292V5.51055V5.49818V5.48582V5.47347V5.46112V5.44878V5.43645V5.42413V5.41182V5.39951V5.38722V5.37493V5.36266V5.35039V5.33814V5.3259V5.31366V5.30144V5.28923V5.27704V5.26485V5.25268V5.24052V5.22838V5.21624V5.20412V5.19202V5.17993V5.16786V5.1558V5.14375V5.13172V5.11971V5.10772V5.09574V5.08378V5.07183V5.0599V5.04799V5.0361V5.02423V5.01238V5.00054V4.98873V4.97693V4.96516V4.9534V4.94167V4.92995V4.91826V4.90659V4.89494V4.88332V4.87171V4.86013V4.84858V4.83704V4.82553V4.81405V4.80258V4.79115V4.77973V4.76835V4.75699V4.74565V4.73434V4.72306V4.7118V4.70058V4.68937V4.6782V4.66706V4.65594V4.64485V4.63379V4.62276V4.61176V4.60079V4.58985V4.57894V4.56806V4.55722V4.5464V4.53562V4.52487V4.51415V4.50346V4.49281V4.48218V4.4716V4.46104V4.45053V4.44004V4.42959V4.41918V4.4088V4.39846V4.38815V4.37788V4.36765V4.35745V4.34729V4.33717V4.32709V4.31704V4.30703V4.29707V4.28714V4.27725V4.2674V4.25759V4.24782V4.23809V4.2284V4.21876V4.20915V4.19959V4.19007V4.18059V4.17116V4.16177V4.15242V4.14312V4.13386V4.12464V4.11547V4.10634V4.09726V4.08823V4.07924V4.0703V4.0614V4.05255V4.04375V4.03499V4.02629V4.01763V4.00902V4.00046V3.99194V3.98348V3.97507V3.9667V3.95839V3.95013V3.94192V3.93376V3.92565V3.91759V3.90959V3.90163V3.89373V3.88589V3.87809V3.87035V3.86267V3.85504V3.84746V3.83994V3.83247V3.82506V3.8177V3.8104V3.80316V3.79597V3.78884V3.78177V3.77476V3.7678V3.7609V3.75406V3.74728V3.74056V3.7339V3.7273V3.72076V3.71428V3.70786V3.7015V3.6952V3.68896V3.68279V3.67667V3.67062V3.66464V3.65871V3.65285V3.64706V3.64133V3.63566V3.63006V3.62452V3.61905V3.61364V3.6083V3.60302V3.59782V3.59267V3.5876V3.58259V3.57766V3.57279V3.56798V3.56325V3.55859V3.55399V3.54947V3.54501V3.54063V3.53631V3.53207V3.5279V3.5238V3.51977V3.51581V3.51193V3.50812V3.50438V3.50072V3.49712V3.49361V3.49017V3.4868V3.4835V3.48029V3.47714V3.47408V3.47109V3.46817V3.46534V3.46258V3.45989V3.45729V3.45476V3.45231V3.44994V3.44765V3.44544V3.44331V3.44125V3.43928V3.43739V3.43558V3.43385V3.4322V3.43063V3.42915V3.42774V3.42642V3.42519V3.42403V3.42296V3.42198V3.42107V3.42026V3.41952V3.41888V3.41831V3.41784V3.41745V3.41714V3.41692V3.41679L13.9206 3.41675L13.4206 3.41679V3.41692V3.41714V3.41745V3.41784V3.41831V3.41888V3.41952V3.42026V3.42107V3.42198V3.42296V3.42403V3.42519V3.42642V3.42774V3.42915V3.43063V3.4322V3.43385V3.43558V3.43739V3.43928V3.44125V3.44331V3.44544V3.44765V3.44994V3.45231V3.45476V3.45729V3.45989V3.46258V3.46534V3.46817V3.47109V3.47408V3.47714V3.48029V3.4835V3.4868V3.49017V3.49361V3.49712V3.50072V3.50438V3.50812V3.51193V3.51581V3.51977V3.5238V3.5279V3.53207V3.53631V3.54063V3.54501V3.54947V3.55399V3.55859V3.56325V3.56798V3.57279V3.57766V3.58259V3.5876V3.59267V3.59782V3.60302V3.6083V3.61364V3.61905V3.62452V3.63006V3.63566V3.64133V3.64706V3.65285V3.65871V3.66464V3.67062V3.67667V3.68279V3.68896V3.6952V3.7015V3.70786V3.71428V3.72076V3.7273V3.7339V3.74056V3.74728V3.75406V3.7609V3.7678V3.77476V3.78177V3.78884V3.79597V3.80316V3.8104V3.8177V3.82506V3.83247V3.83994V3.84746V3.85504V3.86267V3.87035V3.87809V3.88589V3.89373V3.90163V3.90959V3.91759V3.92565V3.93376V3.94192V3.95013V3.95839V3.9667V3.97507V3.98348V3.99194V4.00046V4.00902V4.01763V4.02629V4.03499V4.04375V4.05255V4.0614V4.0703V4.07924V4.08823V4.09726V4.10634V4.11547V4.12464V4.13386V4.14312V4.15242V4.16177V4.17116V4.18059V4.19007V4.19959V4.20915V4.21876V4.2284V4.23809V4.24782V4.25759V4.2674V4.27725V4.28714V4.29707V4.30703V4.31704V4.32709V4.33717V4.34729V4.35745V4.36765V4.37788V4.38815V4.39846V4.4088V4.41918V4.42959V4.44004V4.45053V4.46104V4.4716V4.48218V4.49281V4.50346V4.51415V4.52487V4.53562V4.5464V4.55722V4.56806V4.57894V4.58985V4.60079V4.61176V4.62276V4.63379V4.64485V4.65594V4.66706V4.6782V4.68937V4.70058V4.7118V4.72306V4.73434V4.74565V4.75699V4.76835V4.77973V4.79115V4.80258V4.81405V4.82553V4.83704V4.84858V4.86013V4.87171V4.88332V4.89494V4.90659V4.91826V4.92995V4.94167V4.9534V4.96516V4.97693V4.98873V5.00054V5.01238V5.02423V5.0361V5.04799V5.0599V5.07183V5.08378V5.09574V5.10772V5.11971V5.13172V5.14375V5.1558V5.16786V5.17993V5.19202V5.20412V5.21624V5.22838V5.24052V5.25268V5.26485V5.27704V5.28923V5.30144V5.31366V5.3259V5.33814V5.35039V5.36266V5.37493V5.38722V5.39951V5.41182V5.42413V5.43645V5.44878V5.46112V5.47347V5.48582V5.49818V5.51055V5.52292V5.5353V5.54769V5.56008V5.57247V5.58487V5.59728V5.60969V5.62211V5.63452V5.64695V5.65937V5.6718V5.68423V5.69666V5.7091V5.72153V5.73397V5.74641V5.75885V5.77129V5.78373V5.79617V5.8086V5.82104V5.83348V5.84591V5.85835V5.87078V5.88321V5.89563V5.90805V5.92047V5.93289V5.9453V5.95771V5.97011V5.98251V5.9949V6.00729V6.01967V6.03205V6.04442V6.05678V6.06914V6.08148V6.09382V6.10616V6.11848V6.1308V6.1431V6.1554V6.16769V6.17997V6.19224V6.20449V6.21674V6.22898V6.2412V6.25341V6.26561V6.2778V6.28998V6.30214V6.31429V6.32643V6.33855V6.35066V6.36275V6.37483V6.3869V6.39895V6.41098V6.423V6.435V6.44698V6.45895V6.4709V6.48283V6.49475V6.50665V6.51852V6.53038V6.54222V6.55405V6.56585V6.57763V6.58939V6.60113V6.61285V6.62455V6.63623V6.64788V6.65951V6.67112V6.68271V6.69428V6.70582V6.71734V6.72883V6.7403V6.75175V6.76317V6.77456V6.78593V6.79727V6.80859V6.81988V6.83115V6.84238V6.85359V6.86477V6.87593V6.88705V6.89815V6.90922V6.92026V6.93127V6.94225V6.9532V6.96412V6.975V6.98586V6.99669V7.00748V7.01824V7.02897V7.03967V7.05033V7.06097V7.07156V7.08213V7.09266V7.10315V7.11361V7.12404V7.13443V7.14478V7.1551V7.16538V7.17563V7.18583V7.196V7.20614V7.21623V7.22629V7.23631V7.24629V7.25623V7.26613V7.276V7.28582V7.2956V7.30534V7.31504V7.3247V7.33432V7.34389V7.35343V7.36292V7.37237V7.38177V7.39113V7.40045V7.40972V7.41895V7.42814V7.43728V7.44637V7.45542V7.46443V7.47338V7.48229V7.49116V7.49998V7.50874V7.51747V7.52614V7.53477V7.54334V7.55187V7.56035V7.56878V7.57716V7.58549V7.59376V7.60199V7.61017V7.61829V7.62637V7.63439V7.64236V7.65027V7.65814V7.66595V7.67371V7.68141V7.68906V7.69665V7.70419V7.71168V7.7191V7.72648V7.73379V7.74106V7.74826V7.75541V7.7625V7.76953V7.7765V7.78342V7.79028V7.79708V7.80382V7.8105V7.81712V7.82368V7.83018V7.83662V7.843V7.84932V7.85557V7.86177V7.8679V7.87397V7.87997V7.88592V7.8918V7.89761V7.90337V7.90905V7.91468V7.92023V7.92573V7.93116V7.93652V7.94181V7.94704V7.9522V7.9573V7.96233V7.96729V7.97218V7.977V7.98176V7.98644V7.99106V7.9956V8.00008C13.4206 8.00359 13.4206 8.00711 13.4205 8.01064Z" fill="currentColor"/>
<path fill-rule="evenodd" clip-rule="evenodd" d="M1.58728 7.71436V7.21436H0.58728V7.71436H1.08728L0.58728 7.71439V7.71451V7.7147V7.71497V7.71531V7.71573V7.71622V7.71679V7.71743V7.71815V7.71894V7.71981V7.72075V7.72176V7.72285V7.72401V7.72525V7.72655V7.72793V7.72938V7.73091V7.7325V7.73417V7.73591V7.73772V7.7396V7.74155V7.74357V7.74566V7.74782V7.75005V7.75235V7.75472V7.75716V7.75967V7.76224V7.76489V7.7676V7.77038V7.77323V7.77615V7.77913V7.78218V7.7853V7.78848V7.79173V7.79504V7.79842V7.80187V7.80538V7.80896V7.8126V7.81631V7.82008V7.82391V7.82781V7.83178V7.8358V7.83989V7.84404V7.84826V7.85254V7.85688V7.86128V7.86574V7.87027V7.87486V7.87951V7.88422V7.88899V7.89382V7.89871V7.90366V7.90867V7.91374V7.91887V7.92406V7.9293V7.93461V7.93997V7.94539V7.95088V7.95641V7.96201V7.96766V7.97337V7.97914V7.98496V7.99084V7.99677V8.00277V8.00881V8.01491V8.02107V8.02728V8.03355V8.03987V8.04625V8.05268V8.05916V8.0657V8.07229V8.07893V8.08563V8.09237V8.09918V8.10603V8.11293V8.11989V8.1269V8.13396V8.14107V8.14823V8.15544V8.1627V8.17001V8.17737V8.18479V8.19225V8.19976V8.20731V8.21492V8.22258V8.23028V8.23803V8.24583V8.25368V8.26157V8.26951V8.2775V8.28554V8.29362V8.30174V8.30992V8.31814V8.3264V8.33471V8.34306V8.35146V8.3599V8.36839V8.37692V8.3855V8.39412V8.40278V8.41149V8.42023V8.42902V8.43786V8.44673V8.45565V8.46461V8.47361V8.48265V8.49173V8.50086V8.51002V8.51923V8.52847V8.53775V8.54708V8.55644V8.56584V8.57529V8.58477V8.59428V8.60384V8.61344V8.62307V8.63274V8.64245V8.65219V8.66197V8.67179V8.68164V8.69153V8.70146V8.71142V8.72142V8.73145V8.74152V8.75162V8.76176V8.77193V8.78214V8.79237V8.80265V8.81295V8.82329V8.83367V8.84407V8.85451V8.86498V8.87548V8.88601V8.89658V8.90717V8.9178V8.92846V8.93914V8.94986V8.96061V8.97139V8.9822V8.99304V9.0039V9.0148V9.02572V9.03668V9.04766V9.05867V9.06971V9.08077V9.09186V9.10298V9.11413V9.1253V9.1365V9.14773V9.15898V9.17026V9.18156V9.19289V9.20424V9.21562V9.22702V9.23845V9.2499V9.26137V9.27287V9.28439V9.29594V9.3075V9.31909V9.33071V9.34234V9.354V9.36568V9.37738V9.3891V9.40084V9.41261V9.42439V9.4362V9.44802V9.45987V9.47173V9.48361V9.49552V9.50744V9.51938V9.53134V9.54332V9.55531V9.56733V9.57936V9.59141V9.60347V9.61556V9.62766V9.63977V9.6519V9.66405V9.67622V9.6884V9.70059V9.7128V9.72503V9.73726V9.74952V9.76179V9.77407V9.78636V9.79867V9.81099V9.82333V9.83568V9.84804V9.86041V9.87279V9.88519V9.8976V9.91002V9.92245V9.93489V9.94734V9.95981V9.97228V9.98476V9.99725V10.0098V10.0223V10.0348V10.0473V10.0599V10.0724V10.085V10.0975V10.1101V10.1227V10.1352V10.1478V10.1604V10.173V10.1856V10.1983V10.2109V10.2235V10.2362V10.2488V10.2614V10.2741V10.2867V10.2994V10.3121V10.3247V10.3374V10.3501V10.3627V10.3754V10.3881V10.4008V10.4134V10.4261V10.4388V10.4515V10.4642V10.4769V10.4896V10.5023V10.515V10.5277V10.5404V10.553V10.5657V10.5784V10.5911V10.6038V10.6165V10.6292V10.6419V10.6545V10.6672V10.6799V10.6926V10.7052V10.7179V10.7305V10.7432V10.7559V10.7685V10.7811V10.7938V10.8064V10.819V10.8317V10.8443V10.8569V10.8695V10.8821V10.8947V10.9073V10.9199V10.9324V10.945V10.9575V10.9701V10.9826V10.9952V11.0077V11.0202V11.0327V11.0452V11.0577V11.0701V11.0826V11.0951V11.1075V11.1199V11.1324V11.1448V11.1572V11.1695V11.1819V11.1943V11.2066V11.219V11.2313V11.2436V11.2559V11.2682V11.2804V11.2927V11.3049V11.3172V11.3294V11.3416V11.3538V11.3659V11.3781V11.3902V11.4023V11.4144V11.4265V11.4386V11.4506V11.4626V11.4747V11.4867V11.4986V11.5106V11.5225V11.5345V11.5464V11.5583V11.5701V11.582V11.5938V11.6056V11.6174V11.6292V11.6409V11.6526V11.6643V11.676V11.6877V11.6993V11.7109V11.7225V11.7341V11.7456V11.7571V11.7686V11.7801V11.7916V11.803V11.8144V11.8258V11.8371V11.8485V11.8598V11.871V11.8823V11.8935V11.9047V11.9159V11.9271V11.9382V11.9493V11.9603V11.9714V11.9824V11.9934V12.0043V12.0153V12.0261V12.037V12.0479V12.0587V12.0694V12.0802V12.0909V12.1016V12.1123V12.1229V12.1335V12.1441V12.1546V12.1651V12.1756V12.186V12.1964V12.2068V12.2171V12.2274V12.2377V12.248V12.2582V12.2683V12.2785V12.2886V12.2987V12.3087V12.3187V12.3287V12.3386V12.3485V12.3583V12.3682V12.3779V12.3877V12.3974V12.4071V12.4167V12.4263V12.4359V12.4454V12.4549V12.4643V12.4737V12.4831V12.4924V12.5017V12.5109V12.5201V12.5293V12.5384V12.5475V12.5566V12.5656V12.5745V12.5834C0.58728 13.1322 0.848908 13.6132 1.23566 14.0051C1.62029 14.3948 2.15207 14.7229 2.76972 14.9876C4.00679 15.5177 5.68094 15.8335 7.50395 15.8335C7.66348 15.8335 7.82188 15.831 7.97895 15.8263C7.83863 15.5095 7.72698 15.1773 7.64728 14.8328C7.59965 14.8332 7.55187 14.8335 7.50395 14.8335C5.78313 14.8335 4.24894 14.5336 3.16364 14.0684C2.6201 13.8355 2.21218 13.5709 1.94741 13.3027C1.68476 13.0365 1.58728 12.7941 1.58728 12.5834V12.5745V12.5656V12.5566V12.5475V12.5384V12.5293V12.5201V12.5109V12.5017V12.4924V12.4831V12.4737V12.4643V12.4549V12.4454V12.4359V12.4263V12.4167V12.4071V12.3974V12.3877V12.3779V12.3682V12.3583V12.3485V12.3386V12.3287V12.3187V12.3087V12.2987V12.2886V12.2785V12.2683V12.2582V12.248V12.2377V12.2274V12.2171V12.2068V12.1964V12.186V12.1756V12.1651V12.1546V12.1441V12.1335V12.1229V12.1123V12.1016V12.0909V12.0802V12.0694V12.0587V12.0479V12.037V12.0261V12.0153V12.0043V11.9934V11.9824V11.9714V11.9603V11.9493V11.9382V11.9271V11.9159V11.9047V11.8935V11.8823V11.871V11.8598V11.8485V11.8371V11.8258V11.8144V11.803V11.7916V11.7801V11.7686V11.7571V11.7456V11.7341V11.7225V11.7109V11.6993V11.6877V11.676V11.6643V11.6526V11.6409V11.6292V11.6174V11.6056V11.5938V11.582V11.5701V11.5583V11.5464V11.5345V11.5225V11.5106V11.4986V11.4867V11.4747V11.4626V11.4506V11.4386V11.4265V11.4144V11.4023V11.3902V11.3781V11.3659V11.3538V11.3416V11.3294V11.3172V11.3049V11.2927V11.2804V11.2682V11.2559V11.2436V11.2313V11.219V11.2066V11.1943V11.1819V11.1695V11.1572V11.1448V11.1324V11.1199V11.1075V11.0951V11.0826V11.0701V11.0577V11.0452V11.0327V11.0202V11.0077V10.9952V10.9826V10.9701V10.9575V10.945V10.9324V10.9199V10.9073V10.8947V10.8821V10.8695V10.8569V10.8443V10.8317V10.819V10.8064V10.7938V10.7811V10.7685V10.7559V10.7432V10.7305V10.7179V10.7052V10.6926V10.6799V10.6672V10.6545V10.6419V10.6292V10.6165V10.6038V10.5911V10.5784V10.5657V10.553V10.5404V10.5277V10.515V10.5023V10.4896V10.4769V10.4642V10.4515V10.4388V10.4261V10.4134V10.4008V10.3881V10.3754V10.3627V10.3501V10.3374V10.3247V10.3121V10.2994V10.2867V10.2741V10.2614V10.2488V10.2362V10.2235V10.2109V10.1983V10.1856V10.173V10.1604V10.1478V10.1352V10.1227V10.1101V10.0975V10.085V10.0724V10.0599V10.0473V10.0348V10.0223V10.0098V9.99725V9.98476V9.97228V9.95981V9.94734V9.93489V9.92245V9.91002V9.8976V9.88519V9.87279V9.86041V9.84804V9.83568V9.82333V9.81099V9.79867V9.78636V9.77407V9.76179V9.74952V9.73726V9.72503V9.7128V9.70059V9.6884V9.67622V9.66405V9.6519V9.63977V9.62766V9.61556V9.60347V9.59141V9.57936V9.56733V9.55531V9.54332V9.53134V9.51938V9.50744V9.49552V9.48361V9.47173V9.45987V9.44802V9.4362V9.42439V9.41261V9.40084V9.3891V9.37738V9.36568V9.354V9.34234V9.33071V9.31909V9.3075V9.29594V9.28439V9.27287V9.26137V9.2499V9.23845V9.22702V9.21562V9.20424V9.19289V9.18156V9.17026V9.15898V9.14773V9.1365V9.1253V9.11413V9.10298V9.09186V9.08077V9.06971V9.05867V9.04766V9.03668V9.02572V9.0148V9.0039V8.99304V8.9822V8.97139V8.96061V8.94986V8.93914V8.92846V8.9178V8.90717V8.89658V8.88601V8.87548V8.86498V8.85451V8.84407V8.83367V8.82329V8.81295V8.80265V8.79237V8.78214V8.77193V8.76176V8.75162V8.74152V8.73145V8.72142V8.71142V8.70146V8.69153V8.68164V8.67179V8.66197V8.65219V8.64245V8.63274V8.62307V8.61344V8.60384V8.59428V8.58477V8.57529V8.56584V8.55644V8.54708V8.53775V8.52847V8.51923V8.51002V8.50086V8.49173V8.48265V8.47361V8.46461V8.45565V8.44673V8.43786V8.42902V8.42023V8.41149V8.40278V8.39412V8.3855V8.37692V8.36839V8.3599V8.35146V8.34306V8.33471V8.3264V8.31814V8.30992V8.30174V8.29362V8.28554V8.2775V8.26951V8.26157V8.25368V8.24583V8.23803V8.23028V8.22258V8.21492V8.20731V8.19976V8.19225V8.18479V8.17737V8.17001V8.1627V8.15544V8.14823V8.14107V8.13396V8.1269V8.11989V8.11293V8.10603V8.09918V8.09237V8.08563V8.07893V8.07229V8.0657V8.05916V8.05268V8.04625V8.03987V8.03355V8.02728V8.02107V8.01491V8.00881V8.00277V7.99677V7.99084V7.98496V7.97914V7.97337V7.96766V7.96201V7.95641V7.95088V7.94539V7.93997V7.93461V7.9293V7.92406V7.91887V7.91374V7.90867V7.90366V7.89871V7.89382V7.88899V7.88422V7.87951V7.87486V7.87027V7.86574V7.86128V7.85688V7.85254V7.84826V7.84404V7.83989V7.8358V7.83178V7.82781V7.82391V7.82008V7.81631V7.8126V7.80896V7.80538V7.80187V7.79842V7.79504V7.79173V7.78848V7.7853V7.78218V7.77913V7.77615V7.77323V7.77038V7.7676V7.76489V7.76224V7.75967V7.75716V7.75472V7.75235V7.75005V7.74782V7.74566V7.74357V7.74155V7.7396V7.73772V7.73591V7.73417V7.7325V7.73091V7.72938V7.72793V7.72655V7.72525V7.72401V7.72285V7.72176V7.72075V7.71981V7.71894V7.71815V7.71743V7.71679V7.71622V7.71573V7.71531V7.71497V7.7147V7.71451V7.71439L1.08728 7.71436H1.58728Z" fill="currentColor"/>
<path d="M13.1049 11.0749C13.1049 10.9355 13.2179 10.8225 13.3573 10.8225C13.4967 10.8225 13.6096 10.9355 13.6096 11.0749V11.7806L13.7149 11.8077C14.0582 11.8959 14.3683 12.1038 14.5801 12.3587C14.6692 12.4659 14.6545 12.625 14.5473 12.714C14.4401 12.8031 14.281 12.7884 14.1919 12.6812C13.8989 12.3285 13.4137 12.1655 13.0314 12.3373C12.7876 12.4468 12.6683 12.6056 12.6288 12.7486C12.5893 12.8911 12.62 13.0477 12.7344 13.1823C12.7859 13.243 12.8908 13.3051 13.0675 13.369C13.1878 13.4125 13.312 13.4476 13.4449 13.4851L13.4477 13.4859C13.5122 13.5041 13.5791 13.523 13.6504 13.5441C13.8523 13.6039 14.074 13.6778 14.2526 13.79C14.4375 13.9062 14.6041 14.082 14.6365 14.3473C14.6911 14.7938 14.5083 15.1269 14.2338 15.3369C14.0793 15.4552 13.8984 15.5333 13.7168 15.5773L13.6096 15.6033V16.3182C13.6096 16.4576 13.4967 16.5706 13.3573 16.5706C13.2179 16.5706 13.1049 16.4576 13.1049 16.3182V15.6089L12.9925 15.5862C12.5481 15.4964 12.232 15.2415 12.0924 14.8821C12.0419 14.7522 12.1063 14.606 12.2362 14.5555C12.3662 14.505 12.5124 14.5694 12.5628 14.6994C12.6018 14.7996 12.6785 14.9065 12.8107 14.987C12.942 15.067 13.1204 15.1164 13.3568 15.1164C13.5491 15.1164 13.7707 15.0558 13.9271 14.9361C13.9942 14.8848 14.0568 14.8179 14.097 14.7265C14.1371 14.6353 14.1502 14.5305 14.1358 14.4103C14.135 14.4028 14.1331 14.3868 14.126 14.3672C14.1189 14.3475 14.1084 14.3291 14.0953 14.312C14.0702 14.2791 14.0335 14.2484 13.9841 14.2173C13.8696 14.1454 13.7074 14.0874 13.507 14.028C13.456 14.0129 13.4002 13.9971 13.3429 13.9809L13.3422 13.9807C13.1932 13.9386 13.0333 13.8933 12.8959 13.8436C12.7039 13.7742 12.4914 13.6758 12.3497 13.5091C12.1324 13.2533 12.0562 12.9255 12.1424 12.6139C12.2284 12.303 12.4674 12.0373 12.8246 11.8769C12.8839 11.8503 12.9435 11.8286 13.0032 11.8116L13.1049 11.7826V11.0749Z" fill="currentColor" stroke="currentColor" stroke-width="0.5" stroke-linecap="round"/>
<circle cx="13.3609" cy="13.7143" r="4.21429" stroke="currentColor"/>
</svg>
