<svg width="18" height="21" viewBox="0 0 18 21" fill="none" xmlns="http://www.w3.org/2000/svg">
<path d="M5.41571 15.2854L10.5586 15.2854" stroke="currentColor" stroke-linecap="round"/>
<path d="M4.55853 11.8569L11.4157 11.8569" stroke="currentColor" stroke-linecap="round"/>
<path d="M4.55853 8.42822L11.4157 8.42822" stroke="currentColor" stroke-linecap="round"/>
<rect x="1.20142" y="2.92822" width="13.5714" height="17" rx="2.92857" stroke="currentColor"/>
<path fill-rule="evenodd" clip-rule="evenodd" d="M5.41571 1.71387H14.8443C15.7122 1.71387 16.4157 2.41742 16.4157 3.2853V16.1424C16.4157 16.4786 16.3105 16.7904 16.13 17.0464V18.1651C16.13 18.2351 16.1279 18.3045 16.1238 18.3734C16.1723 18.3456 16.2198 18.3162 16.2662 18.2853C16.9591 17.8246 17.4157 17.0369 17.4157 16.1424V3.2853C17.4157 1.86514 16.2644 0.713867 14.8443 0.713867H5.41571C4.65414 0.713867 3.96989 1.04494 3.49905 1.57101C3.41266 1.66753 3.33345 1.77062 3.26227 1.87943C3.2658 1.87942 3.26934 1.87941 3.27287 1.87941H4.71235C4.92401 1.77327 5.16272 1.71387 5.41571 1.71387Z" fill="currentColor"/>
</svg>
