<svg width="25" height="24" viewBox="0 0 25 24" fill="none" xmlns="http://www.w3.org/2000/svg">
<path d="M16.4159 19.7144V3.42868C16.4159 2.95529 16.0321 2.57153 15.5587 2.57153H6.13015C5.65677 2.57153 5.27301 2.95529 5.27301 3.42868V19.7144" stroke="currentColor" stroke-width="0.857143"/>
<rect x="4.84446" y="19.2857" width="12" height="1.71429" rx="0.428571" stroke="currentColor" stroke-width="0.857143"/>
<rect x="7.41588" y="4.71422" width="6.85714" height="4.28571" rx="0.428571" stroke="currentColor" stroke-width="0.857143"/>
<rect x="18.5588" y="9.0001" width="2.57143" height="3.42857" rx="0.428571" stroke="currentColor" stroke-width="0.857143"/>
<path d="M21.8159 6.34286C22.0052 6.20084 22.0436 5.93221 21.9016 5.74286C21.7595 5.5535 21.4909 5.51513 21.3016 5.65714L21.8159 6.34286ZM20.273 8.57143V7.71429H19.4158V8.57143H20.273ZM20.4444 7.37143L21.8159 6.34286L21.3016 5.65714L19.9301 6.68571L20.4444 7.37143ZM20.273 7.71429C20.273 7.57939 20.3365 7.45237 20.4444 7.37143L19.9301 6.68571C19.6064 6.92853 19.4158 7.3096 19.4158 7.71429H20.273Z" fill="currentColor"/>
<path d="M19.8444 12.4285V16.4493C19.8444 16.8743 19.6043 17.2628 19.2242 17.4529L19.1992 17.4654C19.0599 17.5351 18.9062 17.5713 18.7504 17.5713V17.5713C18.3703 17.5713 18.0228 17.3566 17.8528 17.0166L17.82 16.9511C17.7421 16.7953 17.7016 16.6235 17.7016 16.4493V13.5887C17.7016 13.3946 17.6245 13.2085 17.4873 13.0713V13.0713C17.3501 12.9341 17.164 12.857 16.97 12.857H15.9873" stroke="currentColor" stroke-width="0.857143"/>
</svg>
