<svg width="21" height="19" viewBox="0 0 21 19" fill="none" xmlns="http://www.w3.org/2000/svg">
<path d="M17.0694 2.36382C15.8424 2.34288 14.7976 2.47289 13.3419 2.80163C11.8863 3.13037 10.3928 3.8866 9.09308 4.95302C7.79332 6.01944 6.75995 7.33646 6.15322 8.69981C5.54649 10.0632 5.24718 11.0093 5.26217 12.2134" stroke="currentColor" stroke-linecap="round"/>
<path d="M12.7033 7.82191C12.3194 8.56452 11.6875 9.47558 11.0112 10.3562C10.3349 11.2369 9.42404 12.1299 8.33713 12.9157C7.25021 13.7014 6.04793 14.336 4.99963 14.7021C3.95132 15.0682 3.26319 15.2486 2.51556 15.2386" stroke="currentColor" stroke-linecap="round"/>
<path d="M5.17725 5.1426C5.21011 5.66283 5.34235 6.34144 5.50754 7.01383C5.64307 7.56545 5.81973 8.05321 6.12946 8.64771" stroke="currentColor" stroke-linecap="round"/>
<path d="M6.15405 14.3707C7.60944 15.0984 9.19652 15.1306 11.0247 14.7379C12.8529 14.3451 14.4959 13.3599 15.699 11.935C16.9021 10.5101 17.5979 8.72519 17.6787 6.85704C17.7594 4.98889 17.7591 4.03788 17.0695 2.36374" stroke="currentColor" stroke-linecap="round"/>
<path d="M4.05358 0.931662C3.3437 1.80203 3.00129 2.25726 2.57881 3.344C2.15634 4.43073 2.10589 5.62425 2.43531 6.73945C2.76472 7.85465 3.45559 8.8292 4.40075 9.51195C4.82338 9.81724 4.97989 9.93027 5.40175 10.103" stroke="currentColor" stroke-linecap="round"/>
<path d="M8.01275 5.71618C7.87018 4.56212 7.34802 3.4877 6.52726 2.65955C5.7065 1.8314 5.21097 1.55045 4.21292 1.03532" stroke="currentColor" stroke-linecap="round"/>
</svg>
