<svg width="24" height="25" viewBox="0 0 24 25" fill="none" xmlns="http://www.w3.org/2000/svg">
<path d="M20.6933 17.4546C21.0506 16.1212 21.0964 14.7234 20.8271 13.3694C20.5577 12.0155 19.9806 10.7416 19.1402 9.64639C18.2998 8.55118 17.2187 7.66396 15.9806 7.05339C14.7425 6.44281 13.3805 6.12524 12 6.12524C10.6195 6.12524 9.25752 6.44281 8.0194 7.05339C6.78128 7.66396 5.70021 8.55118 4.85982 9.64639C4.01943 10.7416 3.44225 12.0155 3.17293 13.3694C2.90361 14.7234 2.94937 16.1212 3.30667 17.4546" stroke="currentColor" stroke-linecap="round" stroke-linejoin="round"/>
<path d="M12.7657 15.7075C13.2532 16.4169 12.9104 17.4991 12 18.1247C11.0897 18.7502 9.95652 18.6823 9.46906 17.973C8.94955 17.217 7.15616 12.9661 6.06713 10.3367C5.86203 9.84146 6.4677 9.42525 6.85648 9.79424C8.92077 11.7535 12.2462 14.9516 12.7657 15.7075Z" stroke="currentColor" stroke-linecap="round" stroke-linejoin="round"/>
<path d="M12 6.12524V8.12524" stroke="currentColor" stroke-linecap="round" stroke-linejoin="round"/>
<path d="M5.63599 8.76099L7.0502 10.1752" stroke="currentColor" stroke-linecap="round" stroke-linejoin="round"/>
<path d="M18.364 8.76099L16.9498 10.1752" stroke="currentColor" stroke-linecap="round" stroke-linejoin="round"/>
<path d="M20.6934 17.4543L18.7615 16.9367" stroke="currentColor" stroke-linecap="round" stroke-linejoin="round"/>
<path d="M3.30664 17.4543L5.23849 16.9367" stroke="currentColor" stroke-linecap="round" stroke-linejoin="round"/>
</svg>
