<svg width="24" height="25" viewBox="0 0 24 25" fill="none" xmlns="http://www.w3.org/2000/svg">
<path d="M22 8.77243C22 8.08212 21.4403 7.52243 20.75 7.52243H19.1038C18.925 7.52243 18.8299 7.29904 18.9371 7.15594C19.3016 6.66977 19.5219 6.07857 19.5219 5.38431C19.5219 4.30149 18.9 3.12524 17.1544 3.12524C14.9924 3.12524 13.1655 5.29199 12.2065 6.6898C12.1251 6.80835 11.9491 6.80842 11.8674 6.69015C10.9018 5.29261 9.02275 3.12556 6.86094 3.12556C5.11531 3.12556 4.49344 4.30181 4.49344 5.38462C4.49344 6.07766 4.71914 6.66834 5.09076 7.1542C5.2 7.29703 5.10518 7.52274 4.92536 7.52274H3.25C2.55969 7.52274 2 8.08243 2 8.77274V12.3143C2 12.4248 2.08954 12.5143 2.2 12.5143H3.06094C3.17139 12.5143 3.26094 12.6039 3.26094 12.7143V20.6502C3.26094 21.3406 3.82061 21.9002 4.51094 21.9002H19.5047C20.195 21.9002 20.7547 21.3406 20.7547 20.6502V12.714C20.7547 12.6035 20.8442 12.514 20.9547 12.514H21.8C21.9105 12.514 22 12.4245 22 12.314L22 8.77243ZM17.1544 4.37556C17.9272 4.37556 18.2719 4.70026 18.2719 5.38464C18.2719 6.77308 16.7222 7.52212 15.2647 7.52212H13.5245C13.3644 7.52212 13.2695 7.34405 13.3626 7.21368C14.2743 5.93591 15.7181 4.37556 17.1544 4.37556ZM6.86092 4.37558C8.29763 4.37558 9.79197 5.93624 10.7114 7.21384C10.8049 7.34384 10.7102 7.52183 10.5501 7.52183H8.80934C7.35184 7.52183 5.7434 6.75339 5.7434 5.36495C5.7434 4.68089 6.08809 4.37558 6.86092 4.37558ZM20.75 11.064C20.75 11.1745 20.6604 11.264 20.55 11.264H12.825C12.7145 11.264 12.625 11.1745 12.625 11.064V8.97243C12.625 8.86198 12.7145 8.77243 12.825 8.77243H20.55C20.6604 8.77243 20.75 8.86197 20.75 8.97243V11.064ZM3.24998 8.97243C3.24998 8.86198 3.33952 8.77243 3.44998 8.77243H11.175C11.2854 8.77243 11.375 8.86197 11.375 8.97243V11.064C11.375 11.1745 11.2854 11.264 11.175 11.264H3.44998C3.33952 11.264 3.24998 11.1745 3.24998 11.064V8.97243ZM4.51092 12.714C4.51092 12.6035 4.60046 12.514 4.71092 12.514H11.175C11.2854 12.514 11.375 12.6035 11.375 12.714V20.4499C11.375 20.5604 11.2854 20.6499 11.175 20.6499H4.71092C4.60046 20.6499 4.51092 20.5604 4.51092 20.4499V12.714ZM19.505 20.4499C19.505 20.5604 19.4154 20.6499 19.305 20.6499H12.825C12.7145 20.6499 12.625 20.5604 12.625 20.4499V12.714C12.625 12.6035 12.7145 12.514 12.825 12.514H19.305C19.4154 12.514 19.505 12.6035 19.505 12.714V20.4499Z" fill="currentColor"/>
</svg>
