<svg width="24" height="25" viewBox="0 0 24 25" fill="none" xmlns="http://www.w3.org/2000/svg">
<path fill-rule="evenodd" clip-rule="evenodd" d="M12 21.1252V21.1252C7.029 21.1252 3 17.0962 3 12.1252V12.1252C3 7.15424 7.029 3.12524 12 3.12524V3.12524C16.971 3.12524 21 7.15424 21 12.1252V12.1252C21 17.0962 16.971 21.1252 12 21.1252Z" stroke="currentColor" stroke-linecap="round" stroke-linejoin="round"/>
<path d="M12 13.3753V13.1253C12 12.3083 12.505 11.8653 13.011 11.5253C13.505 11.1923 14 10.7583 14 9.95825C14 8.85325 13.105 7.95825 12 7.95825C10.895 7.95825 10 8.85325 10 9.95825" stroke="currentColor" stroke-linecap="round" stroke-linejoin="round"/>
<path d="M11.999 16.1252C11.861 16.1252 11.749 16.2372 11.75 16.3752C11.75 16.5132 11.862 16.6252 12 16.6252C12.138 16.6252 12.25 16.5132 12.25 16.3752C12.25 16.2372 12.138 16.1252 11.999 16.1252" stroke="currentColor" stroke-linecap="round" stroke-linejoin="round"/>
</svg>
