<svg width="24" height="25" viewBox="0 0 24 25" fill="none" xmlns="http://www.w3.org/2000/svg">
<path d="M7.3424 13.0708C7.72187 10.794 9.69178 9.12524 12 9.12524V9.12524C14.3082 9.12524 16.2781 10.794 16.6576 13.0708L16.7605 13.6884C16.9163 14.6229 17.3601 15.4854 18.03 16.1553V16.1553C18.388 16.5132 18.1345 17.1252 17.6283 17.1252H6.37174C5.86553 17.1252 5.61202 16.5132 5.96997 16.1553V16.1553C6.63988 15.4854 7.08373 14.6229 7.23948 13.6884L7.3424 13.0708Z" stroke="currentColor" stroke-linecap="round" stroke-linejoin="round"/>
<path d="M11 9.12524L12 3.12524" stroke="currentColor" stroke-linecap="round" stroke-linejoin="round"/>
<path d="M13 9.12524L12 3.12524" stroke="currentColor" stroke-linecap="round" stroke-linejoin="round"/>
<path d="M10.0681 20.7547C10.1821 20.861 10.4332 20.9549 10.7825 21.0219C11.1318 21.0889 11.5597 21.1252 12 21.1252C12.4403 21.1252 12.8682 21.0889 13.2175 21.0219C13.5668 20.9549 13.8179 20.861 13.9319 20.7547" stroke="currentColor" stroke-linecap="round" stroke-linejoin="round"/>
</svg>
