<svg width="24" height="25" viewBox="0 0 24 25" fill="none" xmlns="http://www.w3.org/2000/svg">
<path fill-rule="evenodd" clip-rule="evenodd" d="M19.0029 21.1291H5.10117C4.00187 21.1294 3.10831 20.2425 3.10034 19.1433L2.99624 5.13742C2.99234 4.60418 3.20138 4.09142 3.57704 3.71295C3.95269 3.33448 4.46388 3.12158 4.99713 3.12158H16.1737C16.7044 3.12158 17.2132 3.33247 17.5883 3.70783L20.4175 6.537C20.7927 6.91219 21.0036 7.421 21.0037 7.95159V19.1282C21.0037 19.6589 20.7931 20.168 20.4179 20.5432C20.0426 20.9185 19.5336 21.1291 19.0029 21.1291Z" stroke="currentColor" stroke-linecap="round" stroke-linejoin="round"/>
<path d="M15.9947 3.12158V7.12325C15.9945 7.67568 15.5467 8.12347 14.9942 8.12367H8.99175C8.43932 8.12347 7.99153 7.67568 7.99133 7.12325V3.12158" stroke="currentColor" stroke-linecap="round" stroke-linejoin="round"/>
<circle cx="12" cy="14.6263" r="2.50104" stroke="currentColor" stroke-linecap="round" stroke-linejoin="round"/>
</svg>
