<svg width="24" height="25" viewBox="0 0 24 25" fill="none" xmlns="http://www.w3.org/2000/svg">
<path d="M6.99811 10.3719L7.43298 11.133C7.70983 11.6174 7.84825 11.8597 7.84825 12.1252C7.84825 12.3908 7.70983 12.633 7.43299 13.1175L7.43298 13.1175L6.99811 13.8785C5.75981 16.0456 5.14066 17.1291 5.62348 17.6664C6.1063 18.2037 7.24961 17.7035 9.53623 16.7031L15.8119 13.9576C17.6074 13.172 18.5051 12.7793 18.5051 12.1252C18.5051 11.4712 17.6074 11.0785 15.8119 10.2929L9.53624 7.54735C7.24962 6.54695 6.1063 6.04675 5.62348 6.58407C5.14066 7.12139 5.75981 8.20491 6.99811 10.3719Z" stroke="currentColor" stroke-linecap="round" stroke-linejoin="round"/>
</svg>
