<svg width="24" height="25" viewBox="0 0 24 25" fill="none" xmlns="http://www.w3.org/2000/svg">
<path d="M7.09607 8.14979L7.58647 8.24734L7.09607 8.14979ZM8.03323 6.08144L7.63656 5.77706V5.77706L8.03323 6.08144ZM9.78856 4.64088L10.0097 5.08932V5.08932L9.78856 4.64088ZM14.2114 4.64088L13.9903 5.08932V5.08932L14.2114 4.64088ZM15.9668 6.08144L15.5701 6.38582V6.38582L15.9668 6.08144ZM16.9039 8.14979L17.3943 8.05225V8.05225L16.9039 8.14979ZM7.02498 8.62608L6.52748 8.57616L7.02498 8.62608ZM7.92388 15.5079L8.38582 15.6993L7.92388 15.5079ZM7.38268 16.0491L7.57403 16.5111L7.38268 16.0491ZM16.6173 16.0491L16.8087 15.5872L16.6173 16.0491ZM16.0761 15.5079L16.5381 15.3166L16.0761 15.5079ZM16.975 8.62608L17.4725 8.57616L16.975 8.62608ZM17.5 9.62524C19.1569 9.62524 20.5 10.9684 20.5 12.6252H21.5C21.5 10.4161 19.7091 8.62524 17.5 8.62524V9.62524ZM20.5 12.6252C20.5 14.2821 19.1569 15.6252 17.5 15.6252V16.6252C19.7091 16.6252 21.5 14.8344 21.5 12.6252H20.5ZM16.5 14.6252V12.1808H15.5V14.6252H16.5ZM16.5 12.1808C16.5 11.3524 15.8284 10.6808 15 10.6808V11.6808C15.2761 11.6808 15.5 11.9047 15.5 12.1808H16.5ZM15 10.6808H9V11.6808H15V10.6808ZM9 10.6808C8.17157 10.6808 7.5 11.3524 7.5 12.1808H8.5C8.5 11.9047 8.72386 11.6808 9 11.6808V10.6808ZM7.5 12.1808V14.6252H8.5V12.1808H7.5ZM6.5 15.6252C4.84315 15.6252 3.5 14.2821 3.5 12.6252H2.5C2.5 14.8344 4.29086 16.6252 6.5 16.6252V15.6252ZM3.5 12.6252C3.5 10.9684 4.84315 9.62524 6.5 9.62524V8.62524C4.29086 8.62524 2.5 10.4161 2.5 12.6252H3.5ZM6.60568 8.05225C6.57114 8.22591 6.54508 8.40075 6.52748 8.57616L7.52248 8.67599C7.53688 8.53248 7.5582 8.38943 7.58647 8.24734L6.60568 8.05225ZM7.63656 5.77706C7.12299 6.44635 6.77027 7.22483 6.60568 8.05225L7.58647 8.24734C7.72113 7.57036 8.00972 6.93343 8.42991 6.38582L7.63656 5.77706ZM9.56741 4.19244C8.81078 4.56557 8.15013 5.10776 7.63656 5.77706L8.42991 6.38582C8.8501 5.83821 9.39064 5.3946 10.0097 5.08932L9.56741 4.19244ZM12 3.62524C11.1564 3.62524 10.324 3.81932 9.56741 4.19244L10.0097 5.08932C10.6288 4.78403 11.3098 4.62524 12 4.62524V3.62524ZM14.4326 4.19244C13.676 3.81932 12.8436 3.62524 12 3.62524V4.62524C12.6902 4.62524 13.3712 4.78403 13.9903 5.08932L14.4326 4.19244ZM16.3634 5.77706C15.8499 5.10776 15.1892 4.56557 14.4326 4.19244L13.9903 5.08932C14.6094 5.3946 15.1499 5.83821 15.5701 6.38582L16.3634 5.77706ZM17.3943 8.05225C17.2297 7.22483 16.877 6.44635 16.3634 5.77706L15.5701 6.38582C15.9903 6.93343 16.2789 7.57036 16.4135 8.24734L17.3943 8.05225ZM17.4725 8.57616C17.4549 8.40075 17.4289 8.22591 17.3943 8.05225L16.4135 8.24734C16.4418 8.38943 16.4631 8.53248 16.4775 8.67599L17.4725 8.57616ZM6.5 9.62524C7.06344 9.62524 7.47244 9.17477 7.52248 8.67599L6.52748 8.57616C6.52555 8.59537 6.51674 8.61091 6.50765 8.61973C6.50356 8.6237 6.50074 8.62502 6.5002 8.62525C6.5001 8.62529 6.50049 8.62524 6.5 8.62524V9.62524ZM7.5 14.6252C7.5 14.8651 7.49973 15.0199 7.49164 15.1384C7.48387 15.2524 7.47056 15.2958 7.46194 15.3166L8.38582 15.6993C8.45332 15.5363 8.47807 15.3713 8.48933 15.2064C8.50027 15.046 8.5 14.8514 8.5 14.6252H7.5ZM6.5 16.6252C6.72613 16.6252 6.92077 16.6255 7.08119 16.6146C7.24611 16.6033 7.41106 16.5786 7.57403 16.5111L7.19134 15.5872C7.17053 15.5958 7.12712 15.6091 7.01312 15.6169C6.89463 15.625 6.73981 15.6252 6.5 15.6252V16.6252ZM7.46194 15.3166C7.41119 15.4391 7.31386 15.5364 7.19134 15.5872L7.57403 16.5111C7.94157 16.3588 8.23358 16.0668 8.38582 15.6993L7.46194 15.3166ZM17.5 15.6252C17.2602 15.6252 17.1054 15.625 16.9869 15.6169C16.8729 15.6091 16.8295 15.5958 16.8087 15.5872L16.426 16.5111C16.5889 16.5786 16.7539 16.6033 16.9188 16.6146C17.0792 16.6255 17.2739 16.6252 17.5 16.6252V15.6252ZM15.5 14.6252C15.5 14.8514 15.4997 15.046 15.5107 15.2064C15.5219 15.3713 15.5467 15.5363 15.6142 15.6993L16.5381 15.3166C16.5294 15.2958 16.5161 15.2524 16.5084 15.1384C16.5003 15.0199 16.5 14.8651 16.5 14.6252H15.5ZM16.8087 15.5872C16.6861 15.5364 16.5888 15.4391 16.5381 15.3166L15.6142 15.6993C15.7664 16.0668 16.0584 16.3588 16.426 16.5111L16.8087 15.5872ZM17.5 8.62524C17.4995 8.62524 17.4999 8.62529 17.4998 8.62525C17.4993 8.62502 17.4964 8.6237 17.4924 8.61973C17.4833 8.61091 17.4745 8.59537 17.4725 8.57616L16.4775 8.67599C16.5276 9.17477 16.9366 9.62524 17.5 9.62524V8.62524Z" fill="currentColor"/>
<rect x="8" y="11.1252" width="8" height="10" rx="2" stroke="currentColor" stroke-linecap="round" stroke-linejoin="round"/>
<path d="M11.5 16.1252H12.5" stroke="currentColor" stroke-linecap="round" stroke-linejoin="round"/>
</svg>
