<svg width="24" height="24" viewBox="0 0 24 24" fill="none" xmlns="http://www.w3.org/2000/svg">
<path d="M13.1865 19.7676C13.3682 19.7676 13.5381 19.7266 13.6963 19.6445C13.8545 19.5684 14.0186 19.4512 14.1885 19.293L21.1055 12.8066C21.293 12.6309 21.416 12.4668 21.4746 12.3145C21.5391 12.1621 21.5713 12.0186 21.5713 11.8838C21.5713 11.749 21.5391 11.6055 21.4746 11.4531C21.416 11.3008 21.293 11.1367 21.1055 10.9609L14.1885 4.50977C14.0068 4.33398 13.8398 4.20508 13.6875 4.12305C13.541 4.04102 13.377 4 13.1953 4C12.9316 4 12.7178 4.09082 12.5537 4.27246C12.3955 4.44824 12.3164 4.65918 12.3164 4.90527V8.4209H12.0176C10.5293 8.4209 9.21973 8.64648 8.08887 9.09766C6.96387 9.54883 6.02344 10.2139 5.26758 11.0928C4.51758 11.9717 3.95215 13.0557 3.57129 14.3447C3.19043 15.6338 3 17.1162 3 18.792C3 19.1025 3.07617 19.3428 3.22852 19.5127C3.38672 19.6826 3.56836 19.7676 3.77344 19.7676C3.94336 19.7676 4.10449 19.7295 4.25684 19.6533C4.41504 19.583 4.55566 19.4248 4.67871 19.1787C5.14746 18.2295 5.71875 17.4795 6.39258 16.9287C7.06641 16.3721 7.86621 15.9766 8.79199 15.7422C9.71777 15.502 10.793 15.3818 12.0176 15.3818H12.3164V18.8887C12.3164 19.1406 12.3955 19.3486 12.5537 19.5127C12.7178 19.6826 12.9287 19.7676 13.1865 19.7676ZM13.5381 18.3613C13.4502 18.3613 13.4062 18.3086 13.4062 18.2031V14.626C13.4062 14.4443 13.3154 14.3535 13.1338 14.3535H12.1582C10.0371 14.3535 8.30859 14.6875 6.97266 15.3555C5.64258 16.0176 4.70801 16.9639 4.16895 18.1943C4.15137 18.2354 4.13379 18.2676 4.11621 18.291C4.09863 18.3145 4.0752 18.3262 4.0459 18.3262C3.9873 18.3262 3.95801 18.2881 3.95801 18.2119C3.98145 17.21 4.0957 16.2666 4.30078 15.3818C4.51172 14.4971 4.8252 13.6914 5.24121 12.9648C5.65723 12.2383 6.18457 11.6113 6.82324 11.084C7.46191 10.5566 8.22363 10.1523 9.1084 9.87109C9.99316 9.58984 11.0098 9.44922 12.1582 9.44922H13.1338C13.3154 9.44922 13.4062 9.3584 13.4062 9.17676V5.50293C13.4062 5.40918 13.4531 5.3623 13.5469 5.3623C13.5762 5.3623 13.6055 5.37109 13.6348 5.38867C13.6699 5.40625 13.7021 5.42676 13.7314 5.4502L20.209 11.5938C20.3203 11.6992 20.376 11.7959 20.376 11.8838C20.376 11.9248 20.3643 11.9688 20.3408 12.0156C20.3174 12.0566 20.2734 12.1094 20.209 12.1738L13.7227 18.2559C13.6582 18.3262 13.5967 18.3613 13.5381 18.3613Z" fill="currentColor"/>
</svg>
