<svg width="24" height="24" viewBox="0 0 24 24" fill="none" xmlns="http://www.w3.org/2000/svg">
<path d="M11.5527 3.65625C11.8924 3.55013 12.2607 3.56754 12.5908 3.70898L18.5049 6.24414L18.6172 6.29785C19.127 6.568 19.4371 7.10813 19.4131 7.68457L19.4023 7.80859L18.79 12.7129C18.5983 14.2461 17.8673 15.6575 16.7334 16.6973L16.501 16.8994L12.96 19.8506C12.4383 20.2852 11.6956 20.3122 11.1465 19.9316L11.04 19.8506L7.49902 16.8994C6.31208 15.9103 5.51881 14.5334 5.25586 13.0176L5.20996 12.7129L4.59766 7.80859C4.51479 7.14532 4.88072 6.50745 5.49512 6.24414L11.4092 3.70898L11.5527 3.65625Z" stroke="currentColor" stroke-linecap="round"/>
<path d="M9 12L11.5687 14.5687C11.7918 14.7918 12.1633 14.7551 12.3383 14.4925L16 9" stroke="currentColor" stroke-linecap="round"/>
</svg>
