<svg width="24" height="25" viewBox="0 0 24 25" fill="none" xmlns="http://www.w3.org/2000/svg">
<path d="M14.5 21.1252V16.1252C14.5 15.573 14.0523 15.1252 13.5 15.1252H10.5C9.94772 15.1252 9.5 15.573 9.5 16.1252V21.1252" stroke="currentColor" stroke-linecap="round" stroke-linejoin="round"/>
<path d="M5 11.1252V17.1252C5 19.0109 5 19.9537 5.58579 20.5395C6.17157 21.1252 7.11438 21.1252 9 21.1252H15C16.8856 21.1252 17.8284 21.1252 18.4142 20.5395C19 19.9537 19 19.0109 19 17.1252V11.1252" stroke="currentColor" stroke-linecap="round" stroke-linejoin="round"/>
<path d="M4.62127 4.64017C4.80316 3.91261 4.8941 3.54883 5.16536 3.33704C5.43663 3.12524 5.8116 3.12524 6.56155 3.12524H17.4384C18.1884 3.12524 18.5634 3.12524 18.8346 3.33704C19.1059 3.54883 19.1968 3.91261 19.3787 4.64017L20.5823 9.45463C20.6792 9.842 20.7276 10.0357 20.7169 10.193C20.6892 10.6009 20.416 10.9509 20.0269 11.0767C19.8769 11.1252 19.6726 11.1252 19.2641 11.1252V11.1252C18.7309 11.1252 18.4644 11.1252 18.2405 11.0731C17.6133 10.927 17.0948 10.4877 16.8475 9.89306C16.7593 9.68079 16.7164 9.4238 16.6308 8.90981V8.90981C16.6068 8.76601 16.5948 8.6941 16.5812 8.67518C16.5413 8.61963 16.4587 8.61963 16.4188 8.67518C16.4052 8.6941 16.3932 8.76601 16.3692 8.90981L16.2877 9.39906C16.2791 9.45092 16.2747 9.47685 16.2704 9.49957C16.0939 10.4258 15.2946 11.1029 14.352 11.1247C14.3289 11.1252 14.3026 11.1252 14.25 11.1252V11.1252C14.1974 11.1252 14.1711 11.1252 14.148 11.1247C13.2054 11.1029 12.4061 10.4258 12.2296 9.49957C12.2253 9.47685 12.2209 9.45092 12.2123 9.39906L12.1308 8.90981C12.1068 8.76601 12.0948 8.6941 12.0812 8.67518C12.0413 8.61963 11.9587 8.61963 11.9188 8.67518C11.9052 8.6941 11.8932 8.76601 11.8692 8.90981L11.7877 9.39906C11.7791 9.45092 11.7747 9.47685 11.7704 9.49957C11.5939 10.4258 10.7946 11.1029 9.85199 11.1247C9.82887 11.1252 9.80258 11.1252 9.75 11.1252V11.1252C9.69742 11.1252 9.67113 11.1252 9.64801 11.1247C8.70541 11.1029 7.90606 10.4258 7.7296 9.49957C7.72527 9.47685 7.72095 9.45092 7.7123 9.39906L7.63076 8.90981C7.60679 8.76601 7.59481 8.6941 7.58122 8.67518C7.54132 8.61963 7.45868 8.61963 7.41878 8.67518C7.40519 8.6941 7.39321 8.76601 7.36924 8.90981V8.90981C7.28357 9.4238 7.24074 9.68079 7.15249 9.89306C6.90524 10.4877 6.38675 10.927 5.75951 11.0731C5.53563 11.1252 5.26905 11.1252 4.73591 11.1252V11.1252C4.32737 11.1252 4.12309 11.1252 3.97306 11.0767C3.58403 10.9509 3.31078 10.6009 3.28307 10.193C3.27239 10.0357 3.32081 9.842 3.41765 9.45463L4.62127 4.64017Z" stroke="currentColor" stroke-linecap="round" stroke-linejoin="round"/>
</svg>
