<svg width="24" height="24" viewBox="0 0 24 24" fill="none" xmlns="http://www.w3.org/2000/svg">
<path fill-rule="evenodd" clip-rule="evenodd" d="M12 6.5C8.41015 6.5 5.5 9.41015 5.5 13C5.5 16.5899 8.41015 19.5 12 19.5C15.5899 19.5 18.5 16.5899 18.5 13C18.5 9.41015 15.5899 6.5 12 6.5ZM4.5 13C4.5 8.85786 7.85786 5.5 12 5.5C16.1421 5.5 19.5 8.85786 19.5 13C19.5 17.1421 16.1421 20.5 12 20.5C7.85786 20.5 4.5 17.1421 4.5 13Z" fill="currentColor"/>
<path fill-rule="evenodd" clip-rule="evenodd" d="M5.35355 4.64645C5.54882 4.84171 5.54882 5.15829 5.35355 5.35355L3.35355 7.35355C3.15829 7.54882 2.84171 7.54882 2.64645 7.35355C2.45118 7.15829 2.45118 6.84171 2.64645 6.64645L4.64645 4.64645C4.84171 4.45118 5.15829 4.45118 5.35355 4.64645Z" fill="currentColor"/>
<path fill-rule="evenodd" clip-rule="evenodd" d="M18.6464 4.64645C18.4512 4.84171 18.4512 5.15829 18.6464 5.35355L20.6464 7.35355C20.8417 7.54882 21.1583 7.54882 21.3536 7.35355C21.5488 7.15829 21.5488 6.84171 21.3536 6.64645L19.3536 4.64645C19.1583 4.45118 18.8417 4.45118 18.6464 4.64645Z" fill="currentColor"/>
<path fill-rule="evenodd" clip-rule="evenodd" d="M14.3123 10.1096C14.528 10.2821 14.5629 10.5967 14.3904 10.8124L12.5336 13.1334C12.2906 13.4372 11.8556 13.5047 11.5319 13.2889L8.72264 11.416C8.49288 11.2629 8.43079 10.9524 8.58397 10.7227C8.73714 10.4929 9.04758 10.4308 9.27734 10.584L11.8959 12.3297L13.6096 10.1877C13.7821 9.97204 14.0967 9.93708 14.3123 10.1096Z" fill="currentColor"/>
</svg>
