<svg width="20" height="20" viewBox="0 0 20 20" fill="none" xmlns="http://www.w3.org/2000/svg">
<g clip-path="url(#clip0_31505_24336)">
<path d="M0.510708 11.5786C0.221217 11.5786 -0.015625 11.8155 -0.015625 12.1049C-0.015625 12.3944 0.221217 12.6312 0.510708 12.6312C0.800198 12.6312 1.03704 12.3944 1.03704 12.1049C1.03699 11.8155 0.800149 11.5786 0.510708 11.5786Z" fill="currentColor"/>
<path d="M0.510708 7.36816C0.221217 7.36816 -0.015625 7.605 -0.015625 7.89449C-0.015625 8.18398 0.221217 8.42082 0.510708 8.42082C0.800198 8.42082 1.03704 8.18398 1.03704 7.89449C1.03699 7.605 0.800149 7.36816 0.510708 7.36816Z" fill="currentColor"/>
<path d="M7.87924 18.947C7.58975 18.947 7.35291 19.1839 7.35291 19.4733C7.35291 19.7628 7.58975 19.9997 7.87924 19.9997C8.16873 19.9997 8.40557 19.7628 8.40557 19.4733C8.40557 19.1839 8.16873 18.947 7.87924 18.947Z" fill="currentColor"/>
<path d="M3.6687 2.63135C3.08977 2.63135 2.61609 3.10503 2.61609 3.68396C2.61609 4.26288 3.08972 4.73661 3.6687 4.73661C4.24769 4.73661 4.72132 4.26293 4.72132 3.68401C4.72132 3.10508 4.24764 2.63135 3.6687 2.63135Z" fill="currentColor"/>
<path d="M3.6687 6.8418C3.08977 6.8418 2.61609 7.31548 2.61609 7.8944C2.61609 8.47333 3.08977 8.94701 3.6687 8.94701C4.24764 8.94701 4.72132 8.47333 4.72132 7.8944C4.72132 7.31548 4.24764 6.8418 3.6687 6.8418Z" fill="currentColor"/>
<path d="M3.6687 11.0522C3.08977 11.0522 2.61609 11.5259 2.61609 12.1049C2.61609 12.6838 3.08977 13.1575 3.6687 13.1575C4.24764 13.1575 4.72132 12.6838 4.72132 12.1049C4.72132 11.5259 4.24764 11.0522 3.6687 11.0522Z" fill="currentColor"/>
<path d="M19.4581 8.42082C19.7476 8.42082 19.9844 8.18398 19.9844 7.89449C19.9844 7.605 19.7476 7.36816 19.4581 7.36816C19.1686 7.36816 18.9318 7.605 18.9318 7.89449C18.9318 8.18398 19.1686 8.42082 19.4581 8.42082Z" fill="currentColor"/>
<path d="M12.0896 1.05236C12.3791 1.05236 12.6159 0.815524 12.6159 0.526035C12.6159 0.236596 12.3791 -0.000244141 12.0896 -0.000244141C11.8001 -0.000244141 11.5632 0.236596 11.5632 0.526085C11.5633 0.815524 11.8001 1.05236 12.0896 1.05236Z" fill="currentColor"/>
<path d="M7.87897 4.73656C8.4579 4.73656 8.93159 4.26288 8.93159 3.68396C8.93159 3.10503 8.4579 2.63135 7.87897 2.63135C7.30004 2.63135 6.82635 3.10503 6.82635 3.68396C6.82635 4.26288 7.30004 4.73656 7.87897 4.73656Z" fill="currentColor"/>
<path d="M7.87924 1.05236C8.16873 1.05236 8.40557 0.815524 8.40557 0.526035C8.40557 0.236596 8.16873 -0.000244141 7.87924 -0.000244141C7.58975 -0.000244141 7.35291 0.236596 7.35291 0.526085C7.35291 0.815524 7.58975 1.05236 7.87924 1.05236Z" fill="currentColor"/>
<path d="M12.0896 4.73656C12.6685 4.73656 13.1422 4.26288 13.1422 3.68396C13.1422 3.10503 12.6685 2.63135 12.0896 2.63135C11.5107 2.63135 11.037 3.10503 11.037 3.68396C11.037 4.26288 11.5107 4.73656 12.0896 4.73656Z" fill="currentColor"/>
<path d="M3.6687 15.2627C3.08977 15.2627 2.61609 15.7364 2.61609 16.3153C2.61609 16.8942 3.08977 17.3679 3.6687 17.3679C4.24764 17.3679 4.72132 16.8943 4.72132 16.3154C4.72132 15.7364 4.24764 15.2627 3.6687 15.2627Z" fill="currentColor"/>
<path d="M12.0898 6.31543C11.2161 6.31543 10.5108 7.02067 10.5108 7.89437C10.5108 8.76806 11.2161 9.4733 12.0898 9.4733C12.9635 9.4733 13.6687 8.76806 13.6687 7.89437C13.6687 7.02067 12.9635 6.31543 12.0898 6.31543Z" fill="currentColor"/>
<path d="M16.3003 11.0522C15.7214 11.0522 15.2477 11.5259 15.2477 12.1049C15.2477 12.6838 15.7214 13.1575 16.3003 13.1575C16.8792 13.1575 17.3529 12.6838 17.3529 12.1049C17.3529 11.5259 16.8792 11.0522 16.3003 11.0522Z" fill="currentColor"/>
<path d="M16.3003 15.2627C15.7214 15.2627 15.2477 15.7364 15.2477 16.3153C15.2477 16.8942 15.7214 17.3679 16.3003 17.3679C16.8792 17.368 17.3529 16.8943 17.3529 16.3154C17.3529 15.7364 16.8792 15.2627 16.3003 15.2627Z" fill="currentColor"/>
<path d="M16.3003 6.8418C15.7214 6.8418 15.2477 7.31548 15.2477 7.8944C15.2477 8.47333 15.7214 8.94701 16.3003 8.94701C16.8792 8.94701 17.3529 8.47333 17.3529 7.8944C17.3529 7.31548 16.8792 6.8418 16.3003 6.8418Z" fill="currentColor"/>
<path d="M19.4581 11.5786C19.1686 11.5786 18.9318 11.8155 18.9318 12.1049C18.9318 12.3944 19.1686 12.6312 19.4581 12.6312C19.7476 12.6312 19.9844 12.3944 19.9844 12.1049C19.9844 11.8155 19.7475 11.5786 19.4581 11.5786Z" fill="currentColor"/>
<path d="M16.3003 2.63135C15.7214 2.63135 15.2477 3.10503 15.2477 3.68396C15.2477 4.26288 15.7213 4.73661 16.3003 4.73661C16.8792 4.73661 17.3529 4.26293 17.3529 3.68401C17.3529 3.10508 16.8792 2.63135 16.3003 2.63135Z" fill="currentColor"/>
<path d="M7.87912 10.5259C7.00542 10.5259 6.30017 11.2311 6.30017 12.1048C6.30017 12.9785 7.00542 13.6838 7.87912 13.6838C8.75282 13.6838 9.45807 12.9785 9.45807 12.1048C9.45807 11.2311 8.75282 10.5259 7.87912 10.5259Z" fill="currentColor"/>
<path d="M7.87897 15.2627C7.30004 15.2627 6.82635 15.7364 6.82635 16.3153C6.82635 16.8942 7.30004 17.3679 7.87897 17.3679C8.4579 17.3679 8.93159 16.8942 8.93159 16.3153C8.93159 15.7364 8.4579 15.2627 7.87897 15.2627Z" fill="currentColor"/>
<path d="M7.87912 6.31543C7.00542 6.31543 6.30017 7.02067 6.30017 7.89437C6.30017 8.76806 7.00542 9.4733 7.87912 9.4733C8.75282 9.4733 9.45807 8.76806 9.45807 7.89437C9.45807 7.02067 8.75282 6.31543 7.87912 6.31543Z" fill="currentColor"/>
<path d="M12.0896 15.2627C11.5107 15.2627 11.037 15.7364 11.037 16.3153C11.037 16.8943 11.5107 17.368 12.0896 17.368C12.6685 17.368 13.1422 16.8943 13.1422 16.3154C13.1423 15.7364 12.6686 15.2627 12.0896 15.2627Z" fill="currentColor"/>
<path d="M12.0896 18.947C11.8001 18.947 11.5632 19.1839 11.5632 19.4733C11.5632 19.7628 11.8001 19.9997 12.0896 19.9997C12.3791 19.9997 12.6159 19.7628 12.6159 19.4733C12.6159 19.1839 12.3791 18.947 12.0896 18.947Z" fill="currentColor"/>
<path d="M12.0898 10.5259C11.2161 10.5259 10.5108 11.2311 10.5108 12.1048C10.5108 12.9785 11.2161 13.6838 12.0898 13.6838C12.9635 13.6838 13.6687 12.9785 13.6687 12.1048C13.6687 11.2311 12.9635 10.5259 12.0898 10.5259Z" fill="currentColor"/>
</g>
<defs>
<clipPath id="clip0_31505_24336">
<rect width="20" height="19.9999" fill="currentColor"/>
</clipPath>
</defs>
</svg>
