<svg width="17" height="17" viewBox="0 0 17 17" fill="none" xmlns="http://www.w3.org/2000/svg">
<path d="M8.92114 1C11.4354 1.00006 13.4739 3.03842 13.4739 5.55273C13.4738 8.06699 11.4354 10.1054 8.92114 10.1055C6.40683 10.1055 4.36847 8.06703 4.36841 5.55273C4.36841 3.03839 6.40679 1 8.92114 1Z" stroke="currentColor"/>
<path fill-rule="evenodd" clip-rule="evenodd" d="M3.98621 6.64233C1.9625 7.3016 0.5 9.20373 0.5 11.4474C0.5 14.2379 2.76214 16.5001 5.55263 16.5001C8.34312 16.5001 10.6053 14.2379 10.6053 11.4474C10.6053 11.0734 10.5646 10.7088 10.4875 10.3578C10.223 10.444 9.94902 10.5089 9.66743 10.5506C9.73013 10.8396 9.76316 11.1397 9.76316 11.4474C9.76316 13.7729 7.87804 15.658 5.55263 15.658C3.22722 15.658 1.3421 13.7729 1.3421 11.4474C1.3421 9.58203 2.55519 7.99995 4.23552 7.44703C4.13099 7.18872 4.0472 6.9198 3.98621 6.64233Z" fill="currentColor"/>
<path fill-rule="evenodd" clip-rule="evenodd" d="M13.4703 7.75395C14.7741 8.46954 15.6579 9.85534 15.6579 11.4476C15.6579 13.773 13.7728 15.6581 11.4474 15.6581C10.6046 15.6581 9.81963 15.4105 9.1613 14.984C8.95782 15.1916 8.73656 15.3818 8.5 15.5519C9.32958 16.1487 10.3474 16.5002 11.4474 16.5002C14.2379 16.5002 16.5 14.2381 16.5 11.4476C16.5 9.49636 15.394 7.80348 13.7747 6.96167C13.6951 7.23611 13.593 7.50092 13.4703 7.75395Z" fill="currentColor"/>
</svg>
