<svg width="25" height="25" viewBox="0 0 25 25" fill="none" xmlns="http://www.w3.org/2000/svg">
<path d="M24.9999 12.1252C24.9999 18.7527 19.6273 24.1252 12.9999 24.1252C6.37246 24.1252 0.999878 18.7527 0.999878 12.1252C0.999878 5.49783 6.37246 0.125244 12.9999 0.125244C19.6273 0.125244 24.9999 5.49783 24.9999 12.1252Z" fill="currentColor"/>
<path d="M13.4687 18.1877C13.4687 18.4466 13.2588 18.6565 12.9999 18.6565C12.7411 18.6565 12.5312 18.4466 12.5312 18.1877C12.5312 17.9289 12.7411 17.719 12.9999 17.719C13.2588 17.719 13.4687 17.9289 13.4687 18.1877Z" fill="white"/>
<path fill-rule="evenodd" clip-rule="evenodd" d="M9.49988 8.62524C9.49988 6.69225 11.0669 5.12524 12.9999 5.12524C14.9329 5.12524 16.4999 6.69225 16.4999 8.62524V8.86994C16.4999 10.2883 15.6985 11.5849 14.4299 12.2193L14.1748 12.3468C13.7612 12.5536 13.4999 12.9763 13.4999 13.4387V14.829C13.4999 15.1052 13.2761 15.329 12.9999 15.329C12.7238 15.329 12.4999 15.1052 12.4999 14.829V13.4387C12.4999 12.5976 12.9752 11.8286 13.7275 11.4524L13.9827 11.3249C14.9125 10.8599 15.4999 9.90954 15.4999 8.86994V8.62524C15.4999 7.24453 14.3806 6.12524 12.9999 6.12524C11.6192 6.12524 10.4999 7.24453 10.4999 8.62524C10.4999 8.90139 10.276 9.12524 9.99988 9.12524C9.72374 9.12524 9.49988 8.90139 9.49988 8.62524Z" fill="white"/>
<path d="M13.4687 18.1877C13.4687 18.4466 13.2588 18.6565 12.9999 18.6565C12.7411 18.6565 12.5312 18.4466 12.5312 18.1877C12.5312 17.9289 12.7411 17.719 12.9999 17.719C13.2588 17.719 13.4687 17.9289 13.4687 18.1877Z" stroke="white"/>
<path fill-rule="evenodd" clip-rule="evenodd" d="M9.49988 8.62524C9.49988 6.69225 11.0669 5.12524 12.9999 5.12524C14.9329 5.12524 16.4999 6.69225 16.4999 8.62524V8.86994C16.4999 10.2883 15.6985 11.5849 14.4299 12.2193L14.1748 12.3468C13.7612 12.5536 13.4999 12.9763 13.4999 13.4387V14.829C13.4999 15.1052 13.2761 15.329 12.9999 15.329C12.7238 15.329 12.4999 15.1052 12.4999 14.829V13.4387C12.4999 12.5976 12.9752 11.8286 13.7275 11.4524L13.9827 11.3249C14.9125 10.8599 15.4999 9.90954 15.4999 8.86994V8.62524C15.4999 7.24453 14.3806 6.12524 12.9999 6.12524C11.6192 6.12524 10.4999 7.24453 10.4999 8.62524C10.4999 8.90139 10.276 9.12524 9.99988 9.12524C9.72374 9.12524 9.49988 8.90139 9.49988 8.62524Z" stroke="white"/>
</svg>
