<svg width="25" height="24" viewBox="0 0 25 24" fill="none" xmlns="http://www.w3.org/2000/svg">
<path d="M13.4686 18.0312C13.4686 18.2901 13.2588 18.5 12.9999 18.5C12.741 18.5 12.5311 18.2901 12.5311 18.0312C12.5311 17.7724 12.741 17.5625 12.9999 17.5625C13.2588 17.5625 13.4686 17.7724 13.4686 18.0312Z" fill="currentColor"/>
<path fill-rule="evenodd" clip-rule="evenodd" d="M9.49988 8.5C9.49988 6.567 11.0669 5 12.9999 5C14.9329 5 16.4999 6.567 16.4999 8.5V8.74469C16.4999 10.1631 15.6985 11.4597 14.4299 12.094L14.1748 12.2216C13.7612 12.4284 13.4999 12.8511 13.4999 13.3135V14.7038C13.4999 14.9799 13.2761 15.2038 12.9999 15.2038C12.7238 15.2038 12.4999 14.9799 12.4999 14.7038V13.3135C12.4999 12.4723 12.9752 11.7034 13.7275 11.3272L13.9827 11.1996C14.9125 10.7347 15.4999 9.78429 15.4999 8.74469V8.5C15.4999 7.11929 14.3806 6 12.9999 6C11.6192 6 10.4999 7.11929 10.4999 8.5C10.4999 8.77614 10.276 9 9.99988 9C9.72374 9 9.49988 8.77614 9.49988 8.5Z" fill="currentColor"/>
<path fill-rule="evenodd" clip-rule="evenodd" d="M12.9999 23C19.075 23 23.9999 18.0751 23.9999 12C23.9999 5.92487 19.075 1 12.9999 1C6.92475 1 1.99988 5.92487 1.99988 12C1.99988 18.0751 6.92475 23 12.9999 23ZM12.9999 24C19.6273 24 24.9999 18.6274 24.9999 12C24.9999 5.37258 19.6273 0 12.9999 0C6.37246 0 0.999878 5.37258 0.999878 12C0.999878 18.6274 6.37246 24 12.9999 24Z" fill="currentColor"/>
</svg>
