<svg width="24" height="24" viewBox="0 0 24 24" fill="none" xmlns="http://www.w3.org/2000/svg">
<path fill-rule="evenodd" clip-rule="evenodd" d="M6.90055 1.723C6.785 1.47219 6.89464 1.17519 7.14543 1.05963C8.73029 0.329374 10.4677 -0.00840046 12.2107 0.0748825C13.9537 0.158165 15.651 0.660055 17.159 1.53809C18.3833 2.25097 19.4536 3.19477 20.3122 4.31387C20.5413 4.22588 20.7901 4.17766 21.0502 4.17766C22.1875 4.17766 23.1094 5.09962 23.1094 6.23689C23.1094 7.37416 22.1875 8.29611 21.0502 8.29611C19.9129 8.29611 18.991 7.37416 18.991 6.23689C18.991 5.72157 19.1803 5.25046 19.4931 4.88929C18.7179 3.88777 17.7553 3.04249 16.6558 2.40231C15.2866 1.60508 13.7455 1.14938 12.1629 1.07376C10.5804 0.998147 9.00287 1.30483 7.56388 1.96788C7.31308 2.08344 7.0161 1.9738 6.90055 1.723ZM9.58227 6.76627C9.58227 8.10196 10.6846 9.14388 11.9935 9.14388C13.3023 9.14388 14.4046 8.10196 14.4046 6.76627C14.4046 5.4306 13.3023 4.38866 11.9935 4.38866C10.6846 4.38866 9.58227 5.43059 9.58227 6.76627ZM12.1795 9.69731C12.0612 9.7307 11.9351 9.72974 11.8175 9.69462L11.3747 9.56239C10.388 9.26771 9.31798 9.85209 9.08807 10.8911L8.50206 13.5394C8.24887 14.6837 9.144 15.7089 10.2667 15.7089H13.7516C14.8596 15.7089 15.7497 14.7096 15.524 13.5762L14.9942 10.916C14.7855 9.86782 13.7206 9.26217 12.7261 9.54297L12.1795 9.69731ZM5.52069 19.8211C5.74729 19.9789 6.05892 19.9232 6.21674 19.6966C6.37456 19.47 6.31881 19.1583 6.09221 19.0005C4.79207 18.095 3.72916 16.8896 2.9934 15.4864C2.25764 14.0832 1.87067 12.5234 1.86524 10.9389C1.86081 9.64527 2.11084 8.36626 2.59802 7.17387C2.76024 7.21495 2.93014 7.23678 3.10514 7.23678C4.24242 7.23678 5.16436 6.31483 5.16436 5.17756C5.16436 4.04029 4.24242 3.11833 3.10514 3.11833C1.96786 3.11833 1.04593 4.04029 1.04593 5.17756C1.04593 5.77842 1.30327 6.31917 1.71376 6.69561C1.14994 8.03724 0.860247 9.48131 0.865252 10.9424C0.871232 12.6874 1.29742 14.4053 2.10776 15.9507C2.9181 17.4962 4.08876 18.8238 5.52069 19.8211ZM22.0905 11.2563C22.3656 11.2794 22.5699 11.5213 22.5468 11.7964C22.4005 13.5353 21.8375 15.2134 20.9054 16.6886C19.9734 18.1639 18.6998 19.393 17.1923 20.2719C15.732 21.1233 14.094 21.6218 12.4087 21.7289C12.1327 22.5409 11.3638 23.1251 10.4585 23.1251C9.32121 23.1251 8.39928 22.2032 8.39928 21.0659C8.39928 19.9286 9.32121 19.0067 10.4585 19.0067C11.4781 19.0067 12.3247 19.7478 12.4889 20.7207C13.9685 20.605 15.4043 20.1568 16.6886 19.408C18.0574 18.61 19.2138 17.494 20.06 16.1545C20.9063 14.815 21.4174 13.2914 21.5503 11.7126C21.5735 11.4374 21.8153 11.2331 22.0905 11.2563Z" fill="currentColor"/>
</svg>
