<svg width="25" height="25" viewBox="0 0 25 25" fill="none" xmlns="http://www.w3.org/2000/svg">
<path d="M12.1553 3.0625C13.1923 3.0625 13.8837 3.0625 16.0442 3.0625C16.6923 3.0625 17.9886 3.46252 17.9886 5.06262" stroke="currentColor" stroke-width="2"/>
<path d="M13.8193 3.0625C12.7823 3.0625 12.0909 3.0625 9.93045 3.0625C9.2823 3.0625 7.986 3.46252 7.986 5.06262" stroke="currentColor" stroke-width="2"/>
<mask id="path-3-inside-1_28987_12925" fill="white">
<path fill-rule="evenodd" clip-rule="evenodd" d="M2.9873 7.06226C2.9873 5.95769 3.88274 5.06226 4.9873 5.06226H20.9873C22.0919 5.06226 22.9873 5.95769 22.9873 7.06226V10.0624L2.9873 10.0624V7.06226ZM2.9873 12.0624V19.0632C2.9873 20.1678 3.88274 21.0632 4.98731 21.0632H20.9873C22.0919 21.0632 22.9873 20.1678 22.9873 19.0632V12.0624L15.4873 12.0624V14.0626C15.4873 14.6149 15.0396 15.0626 14.4873 15.0626H11.4873C10.935 15.0626 10.4873 14.6149 10.4873 14.0626V12.0624H2.9873Z"/>
</mask>
<path fill-rule="evenodd" clip-rule="evenodd" d="M2.9873 7.06226C2.9873 5.95769 3.88274 5.06226 4.9873 5.06226H20.9873C22.0919 5.06226 22.9873 5.95769 22.9873 7.06226V10.0624L2.9873 10.0624V7.06226ZM2.9873 12.0624V19.0632C2.9873 20.1678 3.88274 21.0632 4.98731 21.0632H20.9873C22.0919 21.0632 22.9873 20.1678 22.9873 19.0632V12.0624L15.4873 12.0624V14.0626C15.4873 14.6149 15.0396 15.0626 14.4873 15.0626H11.4873C10.935 15.0626 10.4873 14.6149 10.4873 14.0626V12.0624H2.9873Z" fill="currentColor"/>
<path d="M22.9873 10.0624V12.0624H24.9873V10.0624H22.9873ZM2.9873 10.0624H0.987305V12.0624H2.9873L2.9873 10.0624ZM2.9873 12.0624V10.0624H0.987305V12.0624H2.9873ZM22.9873 12.0624H24.9873V10.0624L22.9873 10.0624V12.0624ZM15.4873 12.0624V10.0624L13.4873 10.0624V12.0624H15.4873ZM10.4873 12.0624H12.4873V10.0624H10.4873V12.0624ZM4.9873 3.06226C2.77816 3.06226 0.987305 4.85312 0.987305 7.06226H4.9873V7.06226V3.06226ZM20.9873 3.06226H4.9873V7.06226H20.9873V3.06226ZM24.9873 7.06226C24.9873 4.85312 23.1964 3.06226 20.9873 3.06226V7.06226H24.9873ZM24.9873 10.0624V7.06226H20.9873V10.0624H24.9873ZM2.9873 12.0624L22.9873 12.0624V8.06242L2.9873 8.06242L2.9873 12.0624ZM0.987305 7.06226V10.0624H4.9873V7.06226H0.987305ZM0.987305 12.0624V19.0632H4.9873V12.0624H0.987305ZM0.987305 19.0632C0.987305 21.2723 2.77817 23.0632 4.98731 23.0632V19.0632H4.9873H0.987305ZM4.98731 23.0632H20.9873V19.0632H4.98731V23.0632ZM20.9873 23.0632C23.1964 23.0632 24.9873 21.2723 24.9873 19.0632H20.9873V19.0632V23.0632ZM24.9873 19.0632V12.0624H20.9873V19.0632H24.9873ZM22.9873 10.0624L15.4873 10.0624V14.0624L22.9873 14.0624V10.0624ZM17.4873 14.0626V12.0624H13.4873V14.0626H17.4873ZM14.4873 17.0626C16.1442 17.0626 17.4873 15.7195 17.4873 14.0626H13.4873C13.4873 13.5103 13.935 13.0626 14.4873 13.0626V17.0626ZM11.4873 17.0626H14.4873V13.0626H11.4873V17.0626ZM8.4873 14.0626C8.4873 15.7195 9.83045 17.0626 11.4873 17.0626V13.0626C12.0396 13.0626 12.4873 13.5103 12.4873 14.0626H8.4873ZM8.4873 12.0624V14.0626H12.4873V12.0624H8.4873ZM10.4873 10.0624H2.9873V14.0624H10.4873V10.0624Z" fill="currentColor" mask="url(#path-3-inside-1_28987_12925)"/>
</svg>
