<svg width="25" height="25" viewBox="0 0 25 25" fill="none" xmlns="http://www.w3.org/2000/svg">
<mask id="path-1-inside-1_28987_12924" fill="white">
<path fill-rule="evenodd" clip-rule="evenodd" d="M3.57309 2.64829C2.9873 3.23407 2.9873 4.17688 2.9873 6.0625V18.0625C2.9873 19.9481 2.9873 20.8909 3.57309 21.4767C4.15888 22.0625 5.10169 22.0625 6.9873 22.0625H18.9873C20.8729 22.0625 21.8157 22.0625 22.4015 21.4767C22.9873 20.8909 22.9873 19.9481 22.9873 18.0625V6.0625C22.9873 4.17688 22.9873 3.23407 22.4015 2.64829C21.8157 2.0625 20.8729 2.0625 18.9873 2.0625H6.9873C5.10169 2.0625 4.15888 2.0625 3.57309 2.64829ZM16.9873 7.0625C17.5396 7.0625 17.9873 7.51022 17.9873 8.0625V16.0625C17.9873 16.6148 17.5396 17.0625 16.9873 17.0625C16.435 17.0625 15.9873 16.6148 15.9873 16.0625V8.0625C15.9873 7.51022 16.435 7.0625 16.9873 7.0625ZM9.9873 11.0625C9.9873 10.5102 9.53959 10.0625 8.9873 10.0625C8.43502 10.0625 7.9873 10.5102 7.9873 11.0625V16.0625C7.98731 16.6148 8.43502 17.0625 8.98731 17.0625C9.53959 17.0625 9.98731 16.6148 9.9873 16.0625V11.0625ZM13.9873 12.0625C13.9873 11.5102 13.5396 11.0625 12.9873 11.0625C12.435 11.0625 11.9873 11.5102 11.9873 12.0625V16.0625C11.9873 16.6148 12.435 17.0625 12.9873 17.0625C13.5396 17.0625 13.9873 16.6148 13.9873 16.0625V12.0625Z"/>
</mask>
<path fill-rule="evenodd" clip-rule="evenodd" d="M3.57309 2.64829C2.9873 3.23407 2.9873 4.17688 2.9873 6.0625V18.0625C2.9873 19.9481 2.9873 20.8909 3.57309 21.4767C4.15888 22.0625 5.10169 22.0625 6.9873 22.0625H18.9873C20.8729 22.0625 21.8157 22.0625 22.4015 21.4767C22.9873 20.8909 22.9873 19.9481 22.9873 18.0625V6.0625C22.9873 4.17688 22.9873 3.23407 22.4015 2.64829C21.8157 2.0625 20.8729 2.0625 18.9873 2.0625H6.9873C5.10169 2.0625 4.15888 2.0625 3.57309 2.64829ZM16.9873 7.0625C17.5396 7.0625 17.9873 7.51022 17.9873 8.0625V16.0625C17.9873 16.6148 17.5396 17.0625 16.9873 17.0625C16.435 17.0625 15.9873 16.6148 15.9873 16.0625V8.0625C15.9873 7.51022 16.435 7.0625 16.9873 7.0625ZM9.9873 11.0625C9.9873 10.5102 9.53959 10.0625 8.9873 10.0625C8.43502 10.0625 7.9873 10.5102 7.9873 11.0625V16.0625C7.98731 16.6148 8.43502 17.0625 8.98731 17.0625C9.53959 17.0625 9.98731 16.6148 9.9873 16.0625V11.0625ZM13.9873 12.0625C13.9873 11.5102 13.5396 11.0625 12.9873 11.0625C12.435 11.0625 11.9873 11.5102 11.9873 12.0625V16.0625C11.9873 16.6148 12.435 17.0625 12.9873 17.0625C13.5396 17.0625 13.9873 16.6148 13.9873 16.0625V12.0625Z" fill="currentColor"/>
<path d="M7.9873 16.0625H5.9873V16.0625L7.9873 16.0625ZM9.9873 16.0625H7.9873V16.0625L9.9873 16.0625ZM4.9873 6.0625C4.9873 5.06315 4.99155 4.51484 5.04269 4.13445C5.0861 3.8116 5.12795 3.92186 4.9873 4.0625L2.15888 1.23407C1.43245 1.9605 1.1814 2.83506 1.07836 3.60146C0.983057 4.31033 0.987305 5.17623 0.987305 6.0625H4.9873ZM4.9873 18.0625V6.0625H0.987305V18.0625H4.9873ZM4.98731 20.0625C5.12795 20.2031 5.0861 20.3134 5.04269 19.9905C4.99155 19.6102 4.9873 19.0618 4.9873 18.0625H0.987305C0.987305 18.9488 0.983057 19.8147 1.07836 20.5235C1.1814 21.2899 1.43245 22.1645 2.15888 22.8909L4.98731 20.0625ZM6.9873 20.0625C5.98796 20.0625 5.43964 20.0583 5.05926 20.0071C4.73641 19.9637 4.84666 19.9219 4.98731 20.0625L2.15888 22.8909C2.88531 23.6174 3.75986 23.8684 4.52627 23.9714C5.23514 24.0667 6.10104 24.0625 6.9873 24.0625V20.0625ZM18.9873 20.0625H6.9873V24.0625H18.9873V20.0625ZM20.9873 20.0625C21.1279 19.9219 21.2382 19.9637 20.9154 20.0071C20.535 20.0583 19.9867 20.0625 18.9873 20.0625V24.0625C19.8736 24.0625 20.7395 24.0667 21.4483 23.9714C22.2147 23.8684 23.0893 23.6174 23.8157 22.8909L20.9873 20.0625ZM20.9873 18.0625C20.9873 19.0618 20.9831 19.6102 20.9319 19.9905C20.8885 20.3134 20.8467 20.2031 20.9873 20.0625L23.8157 22.8909C24.5422 22.1645 24.7932 21.2899 24.8962 20.5235C24.9916 19.8147 24.9873 18.9488 24.9873 18.0625H20.9873ZM20.9873 6.0625V18.0625H24.9873V6.0625H20.9873ZM20.9873 4.0625C20.8467 3.92186 20.8885 3.8116 20.9319 4.13445C20.9831 4.51484 20.9873 5.06315 20.9873 6.0625H24.9873C24.9873 5.17623 24.9916 4.31033 24.8962 3.60146C24.7932 2.83506 24.5422 1.9605 23.8157 1.23407L20.9873 4.0625ZM18.9873 4.0625C19.9867 4.0625 20.535 4.06675 20.9154 4.11789C21.2382 4.16129 21.1279 4.20314 20.9873 4.0625L23.8157 1.23407C23.0893 0.507642 22.2147 0.256598 21.4483 0.153558C20.7395 0.0582526 19.8736 0.0625 18.9873 0.0625V4.0625ZM6.9873 4.0625H18.9873V0.0625H6.9873V4.0625ZM4.9873 4.0625C4.84666 4.20314 4.73641 4.16129 5.05926 4.11789C5.43964 4.06675 5.98796 4.0625 6.9873 4.0625V0.0625C6.10104 0.0625 5.23514 0.0582526 4.52627 0.153558C3.75986 0.256598 2.88531 0.507642 2.15888 1.23407L4.9873 4.0625ZM19.9873 8.0625C19.9873 6.40565 18.6442 5.0625 16.9873 5.0625V9.0625C16.435 9.0625 15.9873 8.61478 15.9873 8.0625H19.9873ZM19.9873 16.0625V8.0625H15.9873V16.0625H19.9873ZM16.9873 19.0625C18.6442 19.0625 19.9873 17.7194 19.9873 16.0625H15.9873C15.9873 15.5102 16.435 15.0625 16.9873 15.0625V19.0625ZM13.9873 16.0625C13.9873 17.7194 15.3305 19.0625 16.9873 19.0625V15.0625C17.5396 15.0625 17.9873 15.5102 17.9873 16.0625H13.9873ZM13.9873 8.0625V16.0625H17.9873V8.0625H13.9873ZM16.9873 5.0625C15.3304 5.0625 13.9873 6.40565 13.9873 8.0625H17.9873C17.9873 8.61478 17.5396 9.0625 16.9873 9.0625V5.0625ZM8.9873 12.0625C8.43502 12.0625 7.9873 11.6148 7.9873 11.0625H11.9873C11.9873 9.40564 10.6442 8.0625 8.9873 8.0625V12.0625ZM9.9873 11.0625C9.9873 11.6148 9.53959 12.0625 8.9873 12.0625V8.0625C7.33045 8.0625 5.9873 9.40564 5.9873 11.0625H9.9873ZM9.9873 16.0625V11.0625H5.9873V16.0625H9.9873ZM8.98731 15.0625C9.53959 15.0625 9.9873 15.5102 9.9873 16.0625L5.9873 16.0625C5.98731 17.7194 7.33045 19.0625 8.98731 19.0625V15.0625ZM7.9873 16.0625C7.9873 15.5102 8.43502 15.0625 8.98731 15.0625V19.0625C10.6442 19.0625 11.9873 17.7194 11.9873 16.0625L7.9873 16.0625ZM7.9873 11.0625V16.0625H11.9873V11.0625H7.9873ZM12.9873 13.0625C12.435 13.0625 11.9873 12.6148 11.9873 12.0625H15.9873C15.9873 10.4056 14.6442 9.0625 12.9873 9.0625V13.0625ZM13.9873 12.0625C13.9873 12.6148 13.5396 13.0625 12.9873 13.0625V9.0625C11.3305 9.0625 9.9873 10.4056 9.9873 12.0625H13.9873ZM13.9873 16.0625V12.0625H9.9873V16.0625H13.9873ZM12.9873 15.0625C13.5396 15.0625 13.9873 15.5102 13.9873 16.0625H9.9873C9.9873 17.7194 11.3304 19.0625 12.9873 19.0625V15.0625ZM11.9873 16.0625C11.9873 15.5102 12.435 15.0625 12.9873 15.0625V19.0625C14.6442 19.0625 15.9873 17.7194 15.9873 16.0625H11.9873ZM11.9873 12.0625V16.0625H15.9873V12.0625H11.9873Z" fill="currentColor" mask="url(#path-1-inside-1_28987_12924)"/>
</svg>
