<svg width="25" height="25" viewBox="0 0 25 25" fill="none" xmlns="http://www.w3.org/2000/svg">
<path d="M5.71458 20.0602H4.98731C3.88274 20.0602 2.9873 19.1647 2.9873 18.0602V6.66016H4.45584H5.71458" stroke="currentColor" stroke-width="2"/>
<mask id="path-2-inside-1_28987_12923" fill="white">
<path fill-rule="evenodd" clip-rule="evenodd" d="M20.9894 3.0625H6.80762C5.70305 3.0625 4.80762 3.95793 4.80762 5.0625V21.0625H20.9894C22.094 21.0625 22.9894 20.1671 22.9894 19.0625V5.0625C22.9894 3.95793 22.094 3.0625 20.9894 3.0625ZM9.26074 10.2637C9.26074 9.71139 9.70846 9.26367 10.2607 9.26367H17.5335C18.0858 9.26367 18.5335 9.71139 18.5335 10.2637C18.5335 10.816 18.0858 11.2637 17.5335 11.2637H10.2607C9.70846 11.2637 9.26074 10.816 9.26074 10.2637ZM10.2607 13.041C9.70846 13.041 9.26074 13.4887 9.26074 14.041C9.26074 14.5933 9.70846 15.041 10.2607 15.041H17.5335C18.0858 15.041 18.5335 14.5933 18.5335 14.041C18.5335 13.4887 18.0858 13.041 17.5335 13.041H10.2607Z"/>
</mask>
<path fill-rule="evenodd" clip-rule="evenodd" d="M20.9894 3.0625H6.80762C5.70305 3.0625 4.80762 3.95793 4.80762 5.0625V21.0625H20.9894C22.094 21.0625 22.9894 20.1671 22.9894 19.0625V5.0625C22.9894 3.95793 22.094 3.0625 20.9894 3.0625ZM9.26074 10.2637C9.26074 9.71139 9.70846 9.26367 10.2607 9.26367H17.5335C18.0858 9.26367 18.5335 9.71139 18.5335 10.2637C18.5335 10.816 18.0858 11.2637 17.5335 11.2637H10.2607C9.70846 11.2637 9.26074 10.816 9.26074 10.2637ZM10.2607 13.041C9.70846 13.041 9.26074 13.4887 9.26074 14.041C9.26074 14.5933 9.70846 15.041 10.2607 15.041H17.5335C18.0858 15.041 18.5335 14.5933 18.5335 14.041C18.5335 13.4887 18.0858 13.041 17.5335 13.041H10.2607Z" fill="currentColor"/>
<path d="M4.80762 21.0625H2.80762V23.0625H4.80762V21.0625ZM6.80762 5.0625H20.9894V1.0625H6.80762V5.0625ZM6.80762 5.0625L6.80762 5.0625V1.0625C4.59848 1.0625 2.80762 2.85336 2.80762 5.0625H6.80762ZM6.80762 21.0625V5.0625H2.80762V21.0625H6.80762ZM20.9894 19.0625H4.80762V23.0625H20.9894V19.0625ZM20.9894 19.0625V23.0625C23.1986 23.0625 24.9894 21.2716 24.9894 19.0625H20.9894ZM20.9894 5.0625V19.0625H24.9894V5.0625H20.9894ZM20.9894 5.0625H24.9894C24.9894 2.85336 23.1986 1.0625 20.9894 1.0625V5.0625ZM10.2607 7.26367C8.60389 7.26367 7.26074 8.60682 7.26074 10.2637H11.2607C11.2607 10.816 10.813 11.2637 10.2607 11.2637V7.26367ZM17.5335 7.26367H10.2607V11.2637H17.5335V7.26367ZM20.5335 10.2637C20.5335 8.60682 19.1903 7.26367 17.5335 7.26367V11.2637C16.9812 11.2637 16.5335 10.816 16.5335 10.2637H20.5335ZM17.5335 13.2637C19.1903 13.2637 20.5335 11.9205 20.5335 10.2637H16.5335C16.5335 9.71139 16.9812 9.26367 17.5335 9.26367V13.2637ZM10.2607 13.2637H17.5335V9.26367H10.2607V13.2637ZM7.26074 10.2637C7.26074 11.9205 8.60389 13.2637 10.2607 13.2637V9.26367C10.813 9.26367 11.2607 9.71139 11.2607 10.2637H7.26074ZM11.2607 14.041C11.2607 14.5933 10.813 15.041 10.2607 15.041V11.041C8.60389 11.041 7.26074 12.3842 7.26074 14.041H11.2607ZM10.2607 13.041C10.813 13.041 11.2607 13.4887 11.2607 14.041H7.26074C7.26074 15.6979 8.60389 17.041 10.2607 17.041V13.041ZM17.5335 13.041H10.2607V17.041H17.5335V13.041ZM16.5335 14.041C16.5335 13.4887 16.9812 13.041 17.5335 13.041V17.041C19.1903 17.041 20.5335 15.6979 20.5335 14.041H16.5335ZM17.5335 15.041C16.9812 15.041 16.5335 14.5933 16.5335 14.041H20.5335C20.5335 12.3842 19.1903 11.041 17.5335 11.041V15.041ZM10.2607 15.041H17.5335V11.041H10.2607V15.041Z" fill="currentColor" mask="url(#path-2-inside-1_28987_12923)"/>
</svg>
