<svg width="25" height="25" viewBox="0 0 25 25" fill="none" xmlns="http://www.w3.org/2000/svg">
<path fill-rule="evenodd" clip-rule="evenodd" d="M17.4999 5.5625C17.4999 7.15346 16.6743 8.55159 15.4281 9.3518C15.2832 9.44483 15.1327 9.52978 14.9771 9.606C14.5594 9.8106 14.1054 9.9524 13.6274 10.0191C13.4223 10.0477 13.2128 10.0625 12.9999 10.0625C12.7913 10.0625 12.5861 10.0483 12.385 10.0208C11.9975 9.96789 11.6256 9.8656 11.2761 9.7205C11.0305 9.61858 10.7959 9.49553 10.5745 9.35363C9.32677 8.55373 8.49988 7.15468 8.49988 5.5625C8.49988 3.07722 10.5146 1.0625 12.9999 1.0625C15.4852 1.0625 17.4999 3.07722 17.4999 5.5625Z" fill="currentColor"/>
<path fill-rule="evenodd" clip-rule="evenodd" d="M15.2132 10.4223C15.3979 10.3689 15.5832 10.334 15.7674 10.3165C17.2712 10.1736 18.6919 11.1901 18.9916 12.7317L20.3054 19.4901C20.6654 21.342 19.2471 23.0626 17.3605 23.0626H8.7171C6.80515 23.0626 5.38105 21.2981 5.78474 19.4292L7.23815 12.7007C7.55126 11.2512 8.85452 10.2896 10.2636 10.3346C10.5234 10.3429 10.7867 10.3854 11.0482 10.4654L12.1462 10.8013C12.4244 10.8865 12.712 10.9302 12.9999 10.9325C13.2884 10.9348 13.5773 10.8955 13.8574 10.8145L15.2132 10.4223Z" fill="currentColor"/>
<path d="M7.64746 8.91734C7.80717 9.14472 7.65356 9.48843 7.38307 9.42485C5.84758 9.06398 4.70446 7.68536 4.70446 6.03975C4.70446 4.4501 5.77116 3.10959 7.22783 2.69497C7.51118 2.61431 7.66556 2.99394 7.4885 3.22941C6.32069 4.78255 6.59291 7.41596 7.64746 8.91734Z" fill="currentColor"/>
<path d="M18.271 8.98078C18.1138 9.19289 18.2564 9.49976 18.5151 9.44712C20.1015 9.12431 21.2953 7.72145 21.2953 6.03975C21.2953 4.39883 20.1587 3.02339 18.6298 2.65776C18.358 2.59276 18.1981 2.94601 18.3559 3.17664C19.2348 4.46082 19.8243 6.88468 18.271 8.98078Z" fill="currentColor"/>
<path d="M19.5255 10.8256C19.3839 10.634 19.4536 10.3382 19.6909 10.3172C21.0687 10.1951 22.0949 11.2434 22.4175 12.7369L23.2151 16.4293C23.5206 17.8439 23.2034 18.9376 22.0623 19.4716C21.9007 19.5472 21.718 19.4443 21.6793 19.2702C21.2434 17.3092 20.7789 15.0522 20.3054 13.158C20.081 12.2602 20.0012 11.469 19.5255 10.8256Z" fill="currentColor"/>
<path d="M4.31568 19.1121C4.27735 19.283 4.1001 19.3862 3.93825 19.3194C2.75758 18.8316 2.47236 17.8753 2.78471 16.4293L3.5823 12.7369C3.88998 11.3125 4.92655 10.3184 6.23408 10.3405C6.50854 10.3451 6.61155 10.7861 6.45512 11.0117C6.23449 11.3298 5.98508 11.82 5.78474 12.5625L4.31568 19.1121Z" fill="currentColor"/>
</svg>
