<svg width="25" height="25" viewBox="0 0 25 25" fill="none" xmlns="http://www.w3.org/2000/svg">
<path fill-rule="evenodd" clip-rule="evenodd" d="M3.37939 8.5116C2.9873 9.25525 2.9873 10.1013 2.9873 11.7933V17.0777C2.9873 19.4276 2.9873 20.6025 3.82414 21.3325C4.66098 22.0625 6.00785 22.0625 8.70159 22.0625H8.9873V21.0625V15.0625C8.9873 13.4056 10.3305 12.0625 11.9873 12.0625H13.9873C15.6442 12.0625 16.9873 13.4056 16.9873 15.0625V21.0625V22.0625H17.273C19.9668 22.0625 21.3136 22.0625 22.1505 21.3325C22.9873 20.6025 22.9873 19.4276 22.9873 17.0777V17.0777V11.7933C22.9873 10.1013 22.9873 9.25525 22.5952 8.5116C22.2031 7.76794 21.4668 7.21736 19.9941 6.11619L18.5655 5.04802C15.9036 3.05767 14.5727 2.0625 12.9873 2.0625C11.4019 2.0625 10.071 3.05767 7.40909 5.04802L5.98052 6.11619C4.50783 7.21735 3.77148 7.76794 3.37939 8.5116ZM14.9873 22.0625V21.0625V15.0625C14.9873 14.5102 14.5396 14.0625 13.9873 14.0625H11.9873C11.435 14.0625 10.9873 14.5102 10.9873 15.0625V21.0625V22.0625H14.9873Z" fill="currentColor"/>
</svg>
