<svg width="17" height="4" viewBox="0 0 17 4" fill="none" xmlns="http://www.w3.org/2000/svg">
<path fill-rule="evenodd" clip-rule="evenodd" d="M15.654 3.39591C14.9176 3.39591 14.3206 2.79896 14.3206 2.06258C14.3206 1.3262 14.9176 0.729248 15.654 0.729248C16.3904 0.729248 16.9873 1.3262 16.9873 2.06258C16.9873 2.79896 16.3904 3.39591 15.654 3.39591ZM8.98731 3.39591C8.25093 3.39591 7.65397 2.79896 7.65397 2.06258C7.65397 1.3262 8.25093 0.729248 8.98731 0.729248C9.72369 0.729248 10.3206 1.3262 10.3206 2.06258C10.3206 2.79896 9.72369 3.39591 8.98731 3.39591ZM0.987303 2.06258C0.987303 2.79896 1.58426 3.39591 2.32064 3.39591C3.05702 3.39591 3.65397 2.79896 3.65397 2.06258C3.65397 1.3262 3.05702 0.729247 2.32064 0.729247C1.58426 0.729247 0.987303 1.3262 0.987303 2.06258Z" fill="currentColor"/>
</svg>
