<svg width="24" height="24" viewBox="0 0 24 24" fill="none" xmlns="http://www.w3.org/2000/svg">
<path fill-rule="evenodd" clip-rule="evenodd" d="M6.90055 1.6605C6.785 1.40969 6.89464 1.11269 7.14543 0.99713C8.73029 0.266874 10.4677 -0.0709005 12.2107 0.0123825C13.9537 0.0956654 15.651 0.597555 17.159 1.47559C18.3833 2.18847 19.4536 3.13227 20.3122 4.25137C20.5413 4.16338 20.7901 4.11516 21.0502 4.11516C22.1875 4.11516 23.1094 5.03712 23.1094 6.17439C23.1094 7.31166 22.1875 8.23361 21.0502 8.23361C19.9129 8.23361 18.991 7.31166 18.991 6.17439C18.991 5.65907 19.1803 5.18796 19.4931 4.82679C18.7179 3.82527 17.7553 2.97999 16.6558 2.33981C15.2866 1.54258 13.7455 1.08688 12.1629 1.01126C10.5804 0.935647 9.00287 1.24233 7.56388 1.90538C7.31308 2.02094 7.0161 1.9113 6.90055 1.6605ZM20.6716 5.18482L20.3194 5.40763C20.1171 5.60054 19.991 5.87274 19.991 6.17439C19.991 6.75938 20.4652 7.23361 21.0502 7.23361C21.6352 7.23361 22.1094 6.75938 22.1094 6.17439C22.1094 5.5894 21.6352 5.11516 21.0502 5.11516C20.9168 5.11516 20.7892 5.13982 20.6716 5.18482ZM11.9935 9.08138C10.6846 9.08138 9.58227 8.03946 9.58227 6.70377C9.58227 5.36809 10.6846 4.32616 11.9935 4.32616C13.3023 4.32616 14.4046 5.3681 14.4046 6.70377C14.4046 8.03946 13.3023 9.08138 11.9935 9.08138ZM11.8175 9.63212C11.9351 9.66724 12.0612 9.6682 12.1795 9.63481L12.7261 9.48047C13.7206 9.19967 14.7855 9.80533 14.9942 10.8535L15.524 13.5137C15.7497 14.6471 14.8596 15.6464 13.7516 15.6464H10.2667C9.144 15.6464 8.24887 14.6212 8.50206 13.4769L9.08807 10.8286C9.31798 9.78959 10.388 9.20521 11.3747 9.49989L11.8175 9.63212ZM11.5313 10.5903C11.8308 10.6797 12.1504 10.6821 12.4512 10.5972L12.9979 10.4428C13.453 10.3143 13.9231 10.5948 14.0135 11.0488L14.5432 13.709C14.64 14.1949 14.2587 14.6464 13.7516 14.6464H10.2667C9.75273 14.6464 9.36994 14.1834 9.47845 13.693L10.0645 11.0446C10.1641 10.5942 10.6371 10.3232 11.0886 10.4581L11.5313 10.5903ZM10.5823 6.70377C10.5823 7.46461 11.2141 8.08138 11.9935 8.08138C12.7728 8.08138 13.4046 7.46461 13.4046 6.70377C13.4046 5.94294 12.7728 5.32616 11.9935 5.32616C11.2141 5.32616 10.5823 5.94294 10.5823 6.70377ZM5.52069 19.7586C5.74729 19.9164 6.05892 19.8607 6.21674 19.6341C6.37456 19.4075 6.31881 19.0958 6.09221 18.938C4.79207 18.0325 3.72916 16.8271 2.9934 15.4239C2.25764 14.0207 1.87067 12.4609 1.86524 10.8764C1.86081 9.58277 2.11084 8.30376 2.59802 7.11137C2.76024 7.15245 2.93014 7.17428 3.10514 7.17428C4.24242 7.17428 5.16436 6.25233 5.16436 5.11506C5.16436 3.97779 4.24242 3.05583 3.10514 3.05583C1.96786 3.05583 1.04593 3.97779 1.04593 5.11506C1.04593 5.71592 1.30327 6.25667 1.71376 6.63311C1.14994 7.97474 0.860247 9.41881 0.865252 10.8799C0.871232 12.6249 1.29742 14.3428 2.10776 15.8882C2.9181 17.4337 4.08876 18.7613 5.52069 19.7586ZM22.0905 11.1938C22.3656 11.2169 22.5699 11.4588 22.5468 11.7339C22.4005 13.4728 21.8375 15.1509 20.9054 16.6261C19.9734 18.1014 18.6998 19.3305 17.1923 20.2094C15.732 21.0608 14.094 21.5593 12.4087 21.6664C12.1327 22.4784 11.3638 23.0626 10.4585 23.0626C9.32121 23.0626 8.39928 22.1407 8.39928 21.0034C8.39928 19.8661 9.32121 18.9442 10.4585 18.9442C11.4781 18.9442 12.3247 19.6853 12.4889 20.6582C13.9685 20.5425 15.4043 20.0943 16.6886 19.3455C18.0574 18.5475 19.2138 17.4315 20.06 16.092C20.9063 14.7525 21.4174 13.2289 21.5503 11.6501C21.5735 11.3749 21.8153 11.1706 22.0905 11.1938ZM4.16436 5.11506C4.16436 5.70005 3.69013 6.17428 3.10514 6.17428C2.52015 6.17428 2.04593 5.70005 2.04593 5.11506C2.04593 4.53006 2.52015 4.05583 3.10514 4.05583C3.69013 4.05583 4.16436 4.53006 4.16436 5.11506ZM11.5177 21.0034C11.5177 21.5884 11.0435 22.0626 10.4585 22.0626C9.87351 22.0626 9.39928 21.5884 9.39928 21.0034C9.39928 20.4184 9.87351 19.9442 10.4585 19.9442C11.0435 19.9442 11.5177 20.4184 11.5177 21.0034Z" fill="currentColor"/>
</svg>
