<svg width="25" height="24" viewBox="0 0 25 24" fill="none" xmlns="http://www.w3.org/2000/svg">
<path d="M7.76647 12.6108L10.3725 13.3316C10.906 13.4792 11.1727 13.5529 11.3591 13.7394C11.5456 13.9258 11.6193 14.1925 11.7669 14.726L12.4877 17.332C13.1526 19.7358 13.485 20.9377 14.2063 20.9738C14.9276 21.0099 15.3784 19.8472 16.2801 17.5219L20.1533 7.53294C20.8568 5.71888 21.2085 4.81185 20.7476 4.35095C20.2866 3.89004 19.3796 4.24175 17.5656 4.94516L7.57659 8.81843C5.25127 9.72009 4.08861 10.1709 4.12472 10.8922C4.16083 11.6135 5.36271 11.9459 7.76647 12.6108Z" stroke="currentColor"/>
<path d="M11.3678 13.5957L16.4916 8.78437" stroke="currentColor" stroke-linecap="round"/>
</svg>
