<svg width="16" height="20" viewBox="0 0 16 20" fill="none" xmlns="http://www.w3.org/2000/svg">
<path d="M9.15888 1H4.9873C3.10169 1 2.15888 1 1.57309 1.58579C0.987305 2.17157 0.987305 3.11438 0.987305 5V15C0.987305 16.8856 0.987305 17.8284 1.57309 18.4142C2.15888 19 3.10169 19 4.9873 19H10.9873C12.8729 19 13.8157 19 14.4015 18.4142C14.9873 17.8284 14.9873 16.8856 14.9873 15V6.82843C14.9873 6.41968 14.9873 6.2153 14.9112 6.03153C14.8351 5.84776 14.6905 5.70324 14.4015 5.41421L10.5731 1.58579C10.2841 1.29676 10.1395 1.15224 9.95577 1.07612C9.772 1 9.56763 1 9.15888 1Z" stroke="currentColor"/>
<path d="M8.9873 1V5C8.9873 5.94281 8.9873 6.41421 9.2802 6.70711C9.57309 7 10.0445 7 10.9873 7H14.9873" stroke="currentColor"/>
</svg>
