<svg width="25" height="25" viewBox="0 0 25 25" fill="none" xmlns="http://www.w3.org/2000/svg">
<mask id="path-1-inside-1_28987_12926" fill="white">
<path fill-rule="evenodd" clip-rule="evenodd" d="M4.9873 3.0625C3.88274 3.0625 2.9873 3.95793 2.9873 5.0625V19.0625C2.9873 20.1671 3.88274 21.0625 4.98731 21.0625H20.9873C22.0919 21.0625 22.9873 20.1671 22.9873 19.0625V5.0625C22.9873 3.95793 22.0919 3.0625 20.9873 3.0625H4.9873ZM12.8936 7.16379C10.8585 6.04406 8.36883 7.41385 8.36883 9.65331L8.36883 14.2963C8.36883 16.5768 10.9414 18.0435 12.977 16.9235L17.1963 14.602C19.232 13.482 19.1854 10.6255 17.1129 9.48526L12.8936 7.16379ZM10.4046 9.69423C10.4046 8.94775 11.2345 8.49115 11.9129 8.86439L16.1322 11.1859C16.823 11.566 16.8386 12.5181 16.16 12.8915L11.9407 15.2129C11.2622 15.5863 10.4046 15.0974 10.4046 14.3372V9.69423Z"/>
</mask>
<path fill-rule="evenodd" clip-rule="evenodd" d="M4.9873 3.0625C3.88274 3.0625 2.9873 3.95793 2.9873 5.0625V19.0625C2.9873 20.1671 3.88274 21.0625 4.98731 21.0625H20.9873C22.0919 21.0625 22.9873 20.1671 22.9873 19.0625V5.0625C22.9873 3.95793 22.0919 3.0625 20.9873 3.0625H4.9873ZM12.8936 7.16379C10.8585 6.04406 8.36883 7.41385 8.36883 9.65331L8.36883 14.2963C8.36883 16.5768 10.9414 18.0435 12.977 16.9235L17.1963 14.602C19.232 13.482 19.1854 10.6255 17.1129 9.48526L12.8936 7.16379ZM10.4046 9.69423C10.4046 8.94775 11.2345 8.49115 11.9129 8.86439L16.1322 11.1859C16.823 11.566 16.8386 12.5181 16.16 12.8915L11.9407 15.2129C11.2622 15.5863 10.4046 15.0974 10.4046 14.3372V9.69423Z" fill="currentColor"/>
<path d="M8.36883 9.65331H7.36883H8.36883ZM12.8936 7.16379L12.4115 8.03993L12.8936 7.16379ZM8.36883 14.2963H9.36883H8.36883ZM12.977 16.9235L13.4591 17.7996L12.977 16.9235ZM17.1963 14.602L16.7143 13.7259H16.7143L17.1963 14.602ZM17.1129 9.48526L17.595 8.60912L17.1129 9.48526ZM11.9129 8.86439L11.4308 9.74054L11.9129 8.86439ZM16.1322 11.1859L15.6502 12.062L15.6502 12.062L16.1322 11.1859ZM16.16 12.8915L15.678 12.0153H15.678L16.16 12.8915ZM11.9407 15.2129L12.4227 16.0891H12.4228L11.9407 15.2129ZM3.9873 5.0625C3.9873 4.51022 4.43502 4.0625 4.9873 4.0625V2.0625C3.33045 2.0625 1.9873 3.40565 1.9873 5.0625H3.9873ZM3.9873 19.0625V5.0625H1.9873V19.0625H3.9873ZM4.98731 20.0625C4.43502 20.0625 3.9873 19.6148 3.9873 19.0625H1.9873C1.9873 20.7194 3.33045 22.0625 4.98731 22.0625V20.0625ZM20.9873 20.0625H4.98731V22.0625H20.9873V20.0625ZM21.9873 19.0625C21.9873 19.6148 21.5396 20.0625 20.9873 20.0625V22.0625C22.6442 22.0625 23.9873 20.7194 23.9873 19.0625H21.9873ZM21.9873 5.0625V19.0625H23.9873V5.0625H21.9873ZM20.9873 4.0625C21.5396 4.0625 21.9873 4.51022 21.9873 5.0625H23.9873C23.9873 3.40565 22.6442 2.0625 20.9873 2.0625V4.0625ZM4.9873 4.0625H20.9873V2.0625H4.9873V4.0625ZM9.36883 9.65331C9.36883 8.25474 10.9713 7.2475 12.4115 8.03993L13.3756 6.28765C10.7456 4.84061 7.36883 6.57296 7.36883 9.65331H9.36883ZM9.36883 14.2963L9.36883 9.65331H7.36883L7.36883 14.2963H9.36883ZM12.495 16.0473C11.0895 16.8206 9.36883 15.7751 9.36883 14.2963H7.36883C7.36883 17.3785 10.7933 19.2663 13.4591 17.7996L12.495 16.0473ZM16.7143 13.7259L12.495 16.0473L13.4591 17.7996L17.6784 15.4782L16.7143 13.7259ZM16.6309 10.3614C18.0524 11.1436 18.02 13.0075 16.7143 13.7259L17.6784 15.4782C20.444 13.9566 20.3184 10.1075 17.595 8.60912L16.6309 10.3614ZM12.4115 8.03993L16.6309 10.3614L17.595 8.60912L13.3756 6.28765L12.4115 8.03993ZM12.3949 7.98825C11.1217 7.2877 9.40463 8.10686 9.40463 9.69423H11.4046C11.4046 9.69399 11.4046 9.69515 11.4043 9.69749C11.404 9.69982 11.4034 9.70283 11.4024 9.70629C11.4003 9.71352 11.3972 9.72026 11.3937 9.72579C11.3871 9.73649 11.3825 9.73769 11.3864 9.73556C11.3903 9.73342 11.3962 9.73163 11.4025 9.73155C11.4052 9.73152 11.4083 9.73181 11.4121 9.73274C11.4157 9.73363 11.4219 9.73561 11.4308 9.74054L12.3949 7.98825ZM16.6143 10.3097L12.3949 7.98825L11.4308 9.74054L15.6502 12.062L16.6143 10.3097ZM16.6421 13.7676C18.0505 12.9927 17.956 11.048 16.6143 10.3097L15.6502 12.062C15.6595 12.0672 15.6633 12.0708 15.664 12.0714C15.6647 12.0721 15.6641 12.0716 15.6631 12.0699C15.6612 12.0667 15.6598 12.0626 15.6598 12.0575C15.6597 12.0524 15.6609 12.0424 15.6677 12.0303C15.6712 12.0242 15.6751 12.0192 15.6786 12.0158C15.6822 12.0122 15.6829 12.0126 15.678 12.0153L16.6421 13.7676ZM12.4228 16.0891L16.6421 13.7676L15.678 12.0153L11.4586 14.3368L12.4228 16.0891ZM9.40463 14.3372C9.40463 15.8991 11.114 16.8091 12.4227 16.0891L11.4586 14.3368C11.4537 14.3395 11.451 14.3402 11.45 14.3404C11.4488 14.3407 11.447 14.341 11.4441 14.3409C11.4372 14.3407 11.4256 14.3383 11.4135 14.3314C11.4013 14.3244 11.398 14.3184 11.3993 14.3206C11.4003 14.3221 11.4019 14.3253 11.4032 14.3298C11.4046 14.3345 11.4046 14.3375 11.4046 14.3372H9.40463ZM9.40463 9.69423V14.3372H11.4046V9.69423H9.40463Z" fill="currentColor" mask="url(#path-1-inside-1_28987_12926)"/>
</svg>
