<svg width="25" height="25" viewBox="0 0 25 25" fill="none" xmlns="http://www.w3.org/2000/svg">
<mask id="path-1-inside-1_28987_12922" fill="white">
<path fill-rule="evenodd" clip-rule="evenodd" d="M3.31898 5.95906L3.53596 6.10145L12.4386 11.9438C12.7718 12.1624 13.2029 12.1624 13.536 11.9438L22.4386 6.10145L22.6556 5.95906C22.2976 5.41877 21.684 5.0625 20.9873 5.0625H4.9873C4.29058 5.0625 3.67706 5.41877 3.31898 5.95906ZM22.9873 8.1336L14.6333 13.6159C13.6339 14.2717 12.3407 14.2717 11.3413 13.6159L2.9873 8.1336V18.0625C2.9873 19.1671 3.88274 20.0625 4.98731 20.0625H20.9873C22.0919 20.0625 22.9873 19.1671 22.9873 18.0625V8.1336Z"/>
</mask>
<path fill-rule="evenodd" clip-rule="evenodd" d="M3.31898 5.95906L3.53596 6.10145L12.4386 11.9438C12.7718 12.1624 13.2029 12.1624 13.536 11.9438L22.4386 6.10145L22.6556 5.95906C22.2976 5.41877 21.684 5.0625 20.9873 5.0625H4.9873C4.29058 5.0625 3.67706 5.41877 3.31898 5.95906ZM22.9873 8.1336L14.6333 13.6159C13.6339 14.2717 12.3407 14.2717 11.3413 13.6159L2.9873 8.1336V18.0625C2.9873 19.1671 3.88274 20.0625 4.98731 20.0625H20.9873C22.0919 20.0625 22.9873 19.1671 22.9873 18.0625V8.1336Z" fill="currentColor"/>
<path d="M3.31898 5.95906L1.65187 4.8542L0.541999 6.52887L2.22167 7.63116L3.31898 5.95906ZM3.53596 6.10145L2.43865 7.77355H2.43865L3.53596 6.10145ZM12.4386 11.9438L11.3413 13.6159H11.3413L12.4386 11.9438ZM13.536 11.9438L14.6333 13.6159L13.536 11.9438ZM22.4386 6.10145L21.3413 4.42935L21.3413 4.42936L22.4386 6.10145ZM22.6556 5.95906L23.7529 7.63116L25.4326 6.52887L24.3227 4.8542L22.6556 5.95906ZM22.9873 8.1336H24.9873V4.4289L21.89 6.46151L22.9873 8.1336ZM14.6333 13.6159L13.536 11.9438L13.536 11.9438L14.6333 13.6159ZM11.3413 13.6159L10.244 15.288L10.244 15.288L11.3413 13.6159ZM2.9873 8.1336L4.08462 6.46151L0.987305 4.4289V8.1336H2.9873ZM2.22167 7.63116L2.43865 7.77355L4.63327 4.42936L4.4163 4.28696L2.22167 7.63116ZM2.43865 7.77355L11.3413 13.6159L13.536 10.2717L4.63327 4.42936L2.43865 7.77355ZM11.3413 13.6159C12.3407 14.2717 13.6339 14.2717 14.6333 13.6159L12.4386 10.2717C12.7718 10.0531 13.2029 10.0531 13.536 10.2717L11.3413 13.6159ZM14.6333 13.6159L23.536 7.77355L21.3413 4.42936L12.4386 10.2717L14.6333 13.6159ZM23.536 7.77355L23.7529 7.63116L21.5583 4.28696L21.3413 4.42935L23.536 7.77355ZM20.9873 7.0625C20.9904 7.0625 20.9905 7.06282 20.9888 7.06237C20.9873 7.062 20.9863 7.06152 20.9859 7.06131C20.9857 7.06118 20.9861 7.06141 20.9869 7.06215C20.9878 7.06291 20.9883 7.06361 20.9885 7.06392L24.3227 4.8542C23.61 3.77868 22.3827 3.0625 20.9873 3.0625V7.0625ZM4.9873 7.0625H20.9873V3.0625H4.9873V7.0625ZM4.9861 7.06392C4.98631 7.06361 4.98685 7.0629 4.98767 7.06215C4.98848 7.06141 4.98893 7.06118 4.9887 7.06131C4.98831 7.06152 4.98728 7.062 4.98585 7.06237C4.98415 7.06282 4.98421 7.0625 4.9873 7.0625V3.0625C3.59189 3.0625 2.36465 3.77868 1.65187 4.8542L4.9861 7.06392ZM21.89 6.46151L13.536 11.9438L15.7306 15.288L24.0846 9.8057L21.89 6.46151ZM13.536 11.9438C13.2029 12.1624 12.7718 12.1624 12.4386 11.9438L10.244 15.288C11.9096 16.381 14.065 16.381 15.7306 15.288L13.536 11.9438ZM12.4386 11.9438L4.08462 6.46151L1.88999 9.8057L10.244 15.288L12.4386 11.9438ZM4.9873 18.0625V8.1336H0.987305V18.0625H4.9873ZM4.98731 18.0625H4.9873H0.987305C0.987305 20.2716 2.77817 22.0625 4.98731 22.0625V18.0625ZM20.9873 18.0625H4.98731V22.0625H20.9873V18.0625ZM20.9873 18.0625V22.0625C23.1964 22.0625 24.9873 20.2716 24.9873 18.0625H20.9873ZM20.9873 8.1336V18.0625H24.9873V8.1336H20.9873Z" fill="currentColor" mask="url(#path-1-inside-1_28987_12922)"/>
</svg>
