<svg width="24" height="25" viewBox="0 0 24 25" fill="none" xmlns="http://www.w3.org/2000/svg">
<path d="M12 4.12524L10.8522 6.03827C9.94978 7.54228 9.49857 8.29429 9.49857 9.12524C9.49857 9.9562 9.94978 10.7082 10.8522 12.2122L11.5713 13.4107C11.7627 13.7298 11.8585 13.8893 12 13.8893C12.1415 13.8893 12.2373 13.7298 12.4287 13.4107L13.1478 12.2122C14.0502 10.7082 14.5014 9.9562 14.5014 9.12524C14.5014 8.29429 14.0502 7.54228 13.1478 6.03827L12 4.12524ZM12 4.12524V2.12524" stroke="currentColor" stroke-linecap="round" stroke-linejoin="round"/>
<path d="M20.1603 12.7233L17.9296 12.6858C16.1759 12.6563 15.2991 12.6415 14.5794 13.057C13.8598 13.4725 13.4342 14.2393 12.5828 15.7728L11.9045 16.9947C11.7239 17.3201 11.6336 17.4828 11.7043 17.6054C11.7751 17.7279 11.9612 17.7311 12.3332 17.7373L13.7307 17.7608C15.4844 17.7903 16.3612 17.8051 17.0809 17.3896C17.8005 16.9741 18.2262 16.2074 19.0775 14.6739L20.1603 12.7233ZM20.1603 12.7233L21.8923 11.7233" stroke="currentColor" stroke-linecap="round" stroke-linejoin="round"/>
<path d="M3.83972 12.7233L6.07035 12.6858C7.82407 12.6563 8.70093 12.6415 9.42056 13.057C10.1402 13.4725 10.5658 14.2393 11.4172 15.7728L12.0955 16.9947C12.2761 17.3201 12.3664 17.4828 12.2957 17.6054C12.2249 17.7279 12.0388 17.7311 11.6668 17.7373L10.2693 17.7608C8.51561 17.7903 7.63876 17.8051 6.91913 17.3896C6.1995 16.9741 5.77385 16.2074 4.92254 14.6739L3.83972 12.7233ZM3.83972 12.7233L2.10767 11.7233" stroke="currentColor" stroke-linecap="round" stroke-linejoin="round"/>
<path d="M12 15.1252V22.6252" stroke="currentColor" stroke-linecap="round" stroke-linejoin="round"/>
</svg>
