<svg width="24" height="25" viewBox="0 0 24 25" fill="none" xmlns="http://www.w3.org/2000/svg">
<path d="M14.5 10.1255C14.5 9.334 15.5528 9.12419 15.8321 9.86481C16.5077 11.6563 17 13.259 17 14.1255C17 16.8869 14.7614 19.1255 12 19.1255C9.23858 19.1255 7 16.8869 7 14.1255C7 13.1946 7.56822 11.4139 8.32156 9.46223C9.29743 6.93403 9.78536 5.66994 10.3877 5.60185C10.5804 5.58006 10.7907 5.61923 10.9626 5.70896C11.5 5.98937 11.5 7.36809 11.5 10.1255C11.5 10.954 12.1716 11.6255 13 11.6255C13.8284 11.6255 14.5 10.954 14.5 10.1255Z" stroke="currentColor" stroke-linecap="round" stroke-linejoin="round"/>
<path d="M11 19.1252L10.7372 18.4683C10.2816 17.3292 10.4737 16.0332 11.24 15.0752V15.0752C11.6296 14.5882 12.3704 14.5882 12.76 15.0752V15.0752C13.5263 16.0332 13.7184 17.3292 13.2628 18.4683L13 19.1252" stroke="currentColor" stroke-linecap="round" stroke-linejoin="round"/>
</svg>
