<svg width="24" height="25" viewBox="0 0 24 25" fill="none" xmlns="http://www.w3.org/2000/svg">
<path d="M12 18.1252C11.5597 18.1252 11.1318 17.98 10.7825 17.712C10.4332 17.4439 10.1821 17.0681 10.0681 16.6429" stroke="currentColor" stroke-linecap="round" stroke-linejoin="round"/>
<path d="M10.4243 4.80392C11.0553 3.73131 11.3707 3.195 11.8223 3.11346C11.9398 3.09225 12.0602 3.09225 12.1777 3.11346C12.6293 3.195 12.9447 3.73131 13.5757 4.80392L15.244 7.64006C16.41 9.62217 17.3197 11.7442 17.9515 13.9553V13.9553C18.9781 17.5485 16.2801 21.1252 12.5432 21.1252H11.4568C7.71989 21.1252 5.02193 17.5485 6.04854 13.9553V13.9553C6.6803 11.7442 7.59004 9.62217 8.75599 7.64006L10.4243 4.80392Z" stroke="currentColor" stroke-linecap="round" stroke-linejoin="round"/>
</svg>
