<svg width="24" height="25" viewBox="0 0 24 25" fill="none" xmlns="http://www.w3.org/2000/svg">
<path d="M5 8.12524C5 7.18244 5 6.71103 5.29289 6.41814C5.58579 6.12524 6.05719 6.12524 7 6.12524H13.0633C13.5239 6.12524 13.7542 6.12524 13.9558 6.21965C14.1574 6.31407 14.3048 6.491 14.5997 6.84488L17.933 10.8449C18.4432 11.4571 18.6983 11.7632 18.6983 12.1252C18.6983 12.4873 18.4432 12.7934 17.933 13.4056L14.5997 17.4056C14.3048 17.7595 14.1574 17.9364 13.9558 18.0308C13.7542 18.1252 13.5239 18.1252 13.0633 18.1252H7C6.05719 18.1252 5.58579 18.1252 5.29289 17.8324C5 17.5395 5 17.0681 5 16.1252V8.12524Z" stroke="currentColor" stroke-linecap="round" stroke-linejoin="round"/>
</svg>
