<svg width="24" height="25" viewBox="0 0 24 25" fill="none" xmlns="http://www.w3.org/2000/svg">
<path fill-rule="evenodd" clip-rule="evenodd" d="M18.9809 9.37807C18.2198 7.44555 16.6794 5.90524 14.7469 5.14421C14.5229 5.39882 14.3413 5.69171 14.2133 6.0118C16.0226 6.66696 17.4581 8.10243 18.1133 9.91165C18.4334 9.78365 18.7263 9.6021 18.9809 9.37807ZM12.2276 5.62916C12.1521 5.62656 12.0762 5.62524 12 5.62524C8.41015 5.62524 5.5 8.53539 5.5 12.1252C5.5 15.7151 8.41015 18.6252 12 18.6252C15.5899 18.6252 18.5 15.7151 18.5 12.1252C18.5 12.049 18.4987 11.973 18.4961 11.8974C18.8387 11.7901 19.1655 11.6469 19.472 11.4722C19.4905 11.6874 19.5 11.9052 19.5 12.1252C19.5 16.2674 16.1421 19.6252 12 19.6252C7.85786 19.6252 4.5 16.2674 4.5 12.1252C4.5 7.98311 7.85786 4.62524 12 4.62524C12.2199 4.62524 12.4376 4.63471 12.6527 4.65325C12.4781 4.95976 12.3349 5.28652 12.2276 5.62916Z" fill="currentColor"/>
<circle cx="17" cy="7.12524" r="3" fill="currentColor"/>
</svg>
