<svg width="24" height="25" viewBox="0 0 24 25" fill="none" xmlns="http://www.w3.org/2000/svg">
<rect x="4" y="4.12524" width="16" height="7" rx="1" stroke="currentColor" stroke-linecap="round" stroke-linejoin="round"/>
<path d="M4 16.1252C4 15.1824 4 14.711 4.29289 14.4181C4.58579 14.1252 5.05719 14.1252 6 14.1252H10V18.1252C10 19.0681 10 19.5395 9.70711 19.8324C9.41421 20.1252 8.94281 20.1252 8 20.1252H6C5.05719 20.1252 4.58579 20.1252 4.29289 19.8324C4 19.5395 4 19.0681 4 18.1252V16.1252Z" stroke="currentColor" stroke-linecap="round" stroke-linejoin="round"/>
<path d="M14 14.1252H18C18.9428 14.1252 19.4142 14.1252 19.7071 14.4181C20 14.711 20 15.1824 20 16.1252V18.1252C20 19.0681 20 19.5395 19.7071 19.8324C19.4142 20.1252 18.9428 20.1252 18 20.1252H16C15.0572 20.1252 14.5858 20.1252 14.2929 19.8324C14 19.5395 14 19.0681 14 18.1252V14.1252Z" stroke="currentColor" stroke-linecap="round" stroke-linejoin="round"/>
</svg>
