<svg width="24" height="25" viewBox="0 0 24 25" fill="none" xmlns="http://www.w3.org/2000/svg">
<path fill-rule="evenodd" clip-rule="evenodd" d="M7.38655 4.00024C7.27849 4.00024 7.17532 4.03896 7.09907 4.11644C7.02252 4.19422 6.98182 4.30211 6.98182 4.42458V5.36487H3.702C3.62 5.36487 3.54281 5.40302 3.48662 5.45552C3.42898 5.50936 3.38322 5.5872 3.37511 5.68025L3.37501 5.68974C3.37353 5.82223 3.36743 6.49644 3.52922 7.33377C3.70352 8.23584 4.06423 9.27906 4.79057 10.0322C5.31699 10.5759 5.96344 10.9094 6.74371 11.0336L7.00812 11.0757L7.05417 11.3394C7.25633 12.4972 7.74806 13.4314 8.49559 14.1082C9.17219 14.7131 10.0917 15.1144 11.1365 15.2427L11.4658 15.2832V19.4016H9.45321C9.21192 19.4016 9.02888 19.5846 9.02888 19.8259C9.02888 20.0672 9.21188 20.2502 9.45321 20.2502H14.3465C14.5878 20.2502 14.7708 20.0672 14.7708 19.8259C14.7708 19.5846 14.5878 19.4016 14.3465 19.4016H12.3143V15.283L12.6436 15.2426C13.689 15.1141 14.6089 14.7126 15.2857 14.1071L15.2877 14.1052C16.0533 13.4285 16.5418 12.5167 16.7249 11.3459L16.767 11.0763L17.0364 11.0334C17.8166 10.9093 18.4631 10.5758 18.9895 10.0321C19.4571 9.54739 19.7731 8.9425 19.9854 8.33238C20.0132 8.25725 20.0393 8.18123 20.0637 8.10404C20.1338 7.88264 20.1904 7.65248 20.2362 7.40746C20.2412 7.38279 20.2461 7.35822 20.2508 7.33376C20.4114 6.50248 20.4068 5.83201 20.4052 5.69281L20.4047 5.6851C20.3978 5.59076 20.3525 5.51163 20.2946 5.45693C20.2383 5.40364 20.1604 5.36487 20.0778 5.36487H16.7981V4.42458C16.7981 4.30212 16.7573 4.19425 16.6808 4.11648C16.6045 4.03901 16.5014 4.00024 16.3933 4.00024H7.38655ZM7.83024 10.2537V4.84892H15.9494V10.2537C15.9494 11.2297 15.6907 12.2715 15.0401 13.0773C14.3791 13.8959 13.3457 14.4302 11.8898 14.4302C10.4339 14.4302 9.4006 13.8959 8.73959 13.0773C8.089 12.2715 7.83024 11.2297 7.83024 10.2537ZM4.82581 8.77011C4.36074 8.0214 4.1419 7.06999 4.12594 6.01856H6.98189L6.99059 10.3112C5.98657 10.057 5.2843 9.50822 4.82581 8.77011ZM16.7981 10.3259V6.01856H19.7015C19.5288 7.30988 19.2518 8.29889 18.7893 9.00955C18.3387 9.70188 17.707 10.1379 16.7981 10.3259Z" fill="currentColor"/>
</svg>
