<svg width="24" height="25" viewBox="0 0 24 25" fill="none" xmlns="http://www.w3.org/2000/svg">
<path d="M4 8.12524C4 5.9161 5.79086 4.12524 8 4.12524H17C19.2091 4.12524 21 5.91611 21 8.12524V19.2567C21 20.0554 20.1099 20.5318 19.4453 20.0888L16.5 18.1252H8C5.79086 18.1252 4 16.3344 4 14.1252V8.12524Z" stroke="currentColor"/>
<path d="M12.5 12.9421V12.6921C12.5 11.8751 13.005 11.4321 13.511 11.0921C14.005 10.7591 14.5 10.3251 14.5 9.52515C14.5 8.42015 13.605 7.52515 12.5 7.52515C11.395 7.52515 10.5 8.42015 10.5 9.52515" stroke="currentColor" stroke-linecap="round" stroke-linejoin="round"/>
<path d="M12.499 14.6921C12.361 14.6921 12.249 14.8041 12.25 14.9421C12.25 15.0801 12.362 15.1921 12.5 15.1921C12.638 15.1921 12.75 15.0801 12.75 14.9421C12.75 14.8041 12.638 14.6921 12.499 14.6921" stroke="currentColor" stroke-linecap="round" stroke-linejoin="round"/>
</svg>
