<svg width="24" height="25" viewBox="0 0 24 25" fill="none" xmlns="http://www.w3.org/2000/svg">
<path d="M15.3839 12.4443L15.0454 12.8123L15.3839 12.4443ZM9.5 6.12524C9.5 4.74453 10.6193 3.62524 12 3.62524V2.62524C10.067 2.62524 8.5 4.19225 8.5 6.12524H9.5ZM9.5 11.6253V6.12524H8.5V11.6253H9.5ZM7.5 16.1252C7.5 14.8146 8.05969 13.6354 8.95461 12.8123L8.27764 12.0762C7.1855 13.0808 6.5 14.5233 6.5 16.1252H7.5ZM12 20.6252C9.51472 20.6252 7.5 18.6105 7.5 16.1252H6.5C6.5 19.1628 8.96243 21.6252 12 21.6252V20.6252ZM16.5 16.1252C16.5 18.6105 14.4853 20.6252 12 20.6252V21.6252C15.0376 21.6252 17.5 19.1628 17.5 16.1252H16.5ZM15.0454 12.8123C15.9403 13.6354 16.5 14.8146 16.5 16.1252H17.5C17.5 14.5233 16.8145 13.0808 15.7224 12.0762L15.0454 12.8123ZM14.5 6.12524V11.6253H15.5V6.12524H14.5ZM12 3.62524C13.3807 3.62524 14.5 4.74453 14.5 6.12524H15.5C15.5 4.19225 13.933 2.62524 12 2.62524V3.62524ZM15.7224 12.0762C15.5736 11.9394 15.5 11.7746 15.5 11.6253H14.5C14.5 12.105 14.7312 12.5233 15.0454 12.8123L15.7224 12.0762ZM8.5 11.6253C8.5 11.7746 8.42644 11.9394 8.27764 12.0762L8.95461 12.8123C9.26876 12.5233 9.5 12.105 9.5 11.6253H8.5Z" fill="currentColor"/>
<circle cx="12" cy="16.1252" r="2.5" stroke="currentColor" stroke-linecap="round" stroke-linejoin="round"/>
</svg>
