<svg width="24" height="25" viewBox="0 0 24 25" fill="none" xmlns="http://www.w3.org/2000/svg">
<path d="M3 8.62524C3 7.22742 3 6.52851 3.22836 5.97719C3.53284 5.24211 4.11687 4.65809 4.85195 4.35361C5.40326 4.12524 6.10218 4.12524 7.5 4.12524H16.5C17.8978 4.12524 18.5967 4.12524 19.1481 4.35361C19.8831 4.65809 20.4672 5.24211 20.7716 5.97719C21 6.52851 21 7.22742 21 8.62524V9.37524C21 9.78946 20.6642 10.1252 20.25 10.1252H20C18.8954 10.1252 18 11.0207 18 12.1252V12.1252C18 13.2298 18.8954 14.1252 20 14.1252H20.25C20.6642 14.1252 21 14.461 21 14.8752V15.6252C21 17.0231 21 17.722 20.7716 18.2733C20.4672 19.0084 19.8831 19.5924 19.1481 19.8969C18.5967 20.1252 17.8978 20.1252 16.5 20.1252H7.5C6.10218 20.1252 5.40326 20.1252 4.85195 19.8969C4.11687 19.5924 3.53284 19.0084 3.22836 18.2733C3 17.722 3 17.0231 3 15.6252V14.8752C3 14.461 3.33579 14.1252 3.75 14.1252H4C5.10457 14.1252 6 13.2298 6 12.1252V12.1252C6 11.0207 5.10457 10.1252 4 10.1252H3.75C3.33579 10.1252 3 9.78946 3 9.37524V8.62524Z" stroke="currentColor" stroke-linecap="round" stroke-linejoin="round"/>
<path d="M11.5568 10.8138C11.7249 10.3788 11.809 10.1613 11.9455 10.1312C11.9814 10.1233 12.0186 10.1233 12.0545 10.1312C12.191 10.1613 12.2751 10.3788 12.4432 10.8138C12.5389 11.0612 12.5867 11.1848 12.6761 11.269C12.7012 11.2926 12.7284 11.3136 12.7574 11.3317C12.8608 11.3964 12.9899 11.4084 13.248 11.4324C13.685 11.473 13.9035 11.4933 13.9702 11.6226C13.984 11.6493 13.9934 11.6783 13.998 11.7083C14.0201 11.8532 13.8595 12.0048 13.5383 12.3081L13.449 12.3923C13.2989 12.5341 13.2238 12.605 13.1803 12.6935C13.1543 12.7466 13.1368 12.8038 13.1286 12.8627C13.115 12.961 13.137 13.0638 13.1809 13.2696L13.1967 13.343C13.2755 13.7119 13.315 13.8964 13.2657 13.9871C13.2215 14.0685 13.1401 14.1206 13.0501 14.1251C12.9499 14.1301 12.8088 14.0107 12.5265 13.772C12.3406 13.6148 12.2476 13.5361 12.1443 13.5054C12.05 13.4773 11.95 13.4773 11.8557 13.5054C11.7524 13.5361 11.6594 13.6148 11.4735 13.772C11.1912 14.0107 11.0501 14.1301 10.9499 14.1251C10.8599 14.1206 10.7785 14.0685 10.7343 13.9871C10.685 13.8964 10.7245 13.7119 10.8033 13.343L10.8191 13.2696C10.863 13.0638 10.885 12.961 10.8714 12.8627C10.8632 12.8038 10.8457 12.7466 10.8197 12.6935C10.7762 12.605 10.7011 12.5341 10.551 12.3923L10.4617 12.3081C10.1405 12.0048 9.97989 11.8532 10.002 11.7083C10.0066 11.6783 10.016 11.6493 10.0298 11.6226C10.0965 11.4933 10.315 11.473 10.752 11.4324C11.0101 11.4084 11.1392 11.3964 11.2426 11.3317C11.2716 11.3136 11.2988 11.2926 11.3239 11.269C11.4133 11.1848 11.4611 11.0612 11.5568 10.8138Z" fill="currentColor" stroke="currentColor" stroke-linecap="round" stroke-linejoin="round"/>
</svg>
