<svg width="24" height="25" viewBox="0 0 24 25" fill="none" xmlns="http://www.w3.org/2000/svg">
<path d="M13.7007 11.1434L18.2393 8.52299C18.6198 8.30332 19.1063 8.43368 19.326 8.81416L19.4227 8.98165C20.0482 10.0651 20.0715 11.3944 19.4842 12.4991C18.7688 13.8449 17.1343 14.4083 15.7416 13.789L13.7944 12.9231C13.0476 12.5911 12.9929 11.552 13.7007 11.1434Z" stroke="currentColor" stroke-linecap="round" stroke-linejoin="round"/>
<path d="M12 14.089V19.3297C12 19.7691 11.6438 20.1252 11.2045 20.1252H11.0111C9.76002 20.1252 8.59719 19.4807 7.93412 18.4198C7.12631 17.1273 7.45569 15.4302 8.68835 14.5337L10.4118 13.2803C11.0728 12.7996 12 13.2717 12 14.089Z" stroke="currentColor" stroke-linecap="round" stroke-linejoin="round"/>
<path d="M13.7007 13.1071L18.2393 15.7275C18.6198 15.9472 18.7501 16.4337 18.5305 16.8142L18.4338 16.9817C17.8082 18.0651 16.6687 18.7499 15.4183 18.7937C13.8951 18.847 12.59 17.7132 12.43 16.1975L12.2062 14.0782C12.1204 13.2654 12.9929 12.6985 13.7007 13.1071Z" stroke="currentColor" stroke-linecap="round" stroke-linejoin="round"/>
<path d="M10.2993 13.1071L5.7607 15.7275C5.38022 15.9472 4.8937 15.8168 4.67403 15.4363L4.57733 15.2688C3.95179 14.1854 3.92852 12.8561 4.51577 11.7514C5.2312 10.4055 6.86566 9.84223 8.25835 10.4615L10.2056 11.3274C10.9524 11.6594 11.0071 12.6985 10.2993 13.1071Z" stroke="currentColor" stroke-linecap="round" stroke-linejoin="round"/>
<path d="M10.2991 11.1434L5.76045 8.52299C5.37997 8.30332 5.24961 7.8168 5.46928 7.43633L5.56598 7.26884C6.19152 6.18537 7.33109 5.50057 8.58141 5.45679C10.1046 5.40346 11.4097 6.53728 11.5698 8.05303L11.7935 10.1723C11.8794 10.9851 11.0069 11.552 10.2991 11.1434Z" stroke="currentColor" stroke-linecap="round" stroke-linejoin="round"/>
<path d="M12 10.1615V4.92074C12 4.4814 12.3562 4.12524 12.7955 4.12524H12.9889C14.24 4.12524 15.4028 4.76974 16.0659 5.83066C16.8737 7.12315 16.5443 8.82029 15.3117 9.71677L13.5882 10.9702C12.9272 11.4509 12 10.9788 12 10.1615Z" stroke="currentColor" stroke-linecap="round" stroke-linejoin="round"/>
</svg>
