<svg width="27" height="18" viewBox="0 0 27 18" fill="none" xmlns="http://www.w3.org/2000/svg">
<path d="M24.9878 2.37078C24.3464 1.93743 23.5344 1.84676 22.813 2.1361L17.9741 4.07087C17.5941 4.22288 17.3447 4.5909 17.3447 4.99892V12.9993C17.3447 13.4087 17.5941 13.7754 17.9741 13.9274L22.813 15.8621C23.093 15.9742 23.3877 16.0302 23.6797 16.0302C24.1384 16.0302 24.5958 15.8928 24.9865 15.6275C25.6278 15.1941 26.0118 14.4714 26.0118 13.6967V4.30022C26.0118 3.52551 25.6292 2.8028 24.9865 2.36945L24.9878 2.37078Z" fill="url(#paint0_linear_35394_18242)"/>
<path d="M15.6802 0H3.67955C1.6544 0 0.0126953 1.64171 0.0126953 3.66686V14.3341C0.0126953 16.3592 1.6544 18.0009 3.67955 18.0009H15.6802C17.7053 18.0009 19.347 16.3592 19.347 14.3341V3.66686C19.347 1.64171 17.7053 0 15.6802 0Z" fill="url(#paint1_linear_35394_18242)"/>
<path d="M11.7301 9.33921C12.156 9.09329 12.156 8.47849 11.7301 8.23257L8.85492 6.57261C8.42897 6.3267 7.89655 6.6341 7.89655 7.12594L7.89655 10.4458C7.89655 10.9377 8.42898 11.2451 8.85492 10.9992L11.7301 9.33921Z" fill="white"/>
<defs>
<linearGradient id="paint0_linear_35394_18242" x1="26.5127" y1="0.500549" x2="17.4676" y2="9.39566" gradientUnits="userSpaceOnUse">
<stop stop-color="#FAAD66"/>
<stop offset="1" stop-color="#F77600"/>
</linearGradient>
<linearGradient id="paint1_linear_35394_18242" x1="19.0137" y1="-0.999572" x2="10.0127" y2="18" gradientUnits="userSpaceOnUse">
<stop stop-color="#FAAD66"/>
<stop offset="1" stop-color="#F77600"/>
</linearGradient>
</defs>
</svg>
