<svg width="26" height="26" viewBox="0 0 26 26" fill="none" xmlns="http://www.w3.org/2000/svg">
<path d="M24.0404 21.1826L19.255 15.4196C18.9906 15.1012 18.5185 15.0575 18.2002 15.3219L15.8948 17.2361L17.6353 22.3748L21.6374 24.1519L23.9427 22.2374C24.261 21.973 24.3048 21.501 24.0404 21.1826Z" fill="url(#paint0_linear_35394_18246)"/>
<path fill-rule="evenodd" clip-rule="evenodd" d="M12.4551 8.40447C12.7734 8.1401 12.8171 7.66802 12.5528 7.34968L7.76738 1.58667C7.51357 1.28104 7.01823 1.23517 6.71262 1.48899L4.4073 3.40353L4.42215 3.42952L4.40482 3.40865L4.38862 3.4222C2.7097 4.81656 2.06018 7.11871 2.78923 9.15731C3.7315 11.8175 5.28334 15.0457 7.82678 18.125C9.81397 20.5509 12.3832 22.8653 15.7426 24.7713C17.7754 25.8818 20.066 25.469 21.5896 24.1843L21.6386 24.1437L21.6098 24.109L21.6517 24.1414L23.957 22.2267C24.2754 21.9624 24.3191 21.4903 24.0547 21.1719L19.2693 15.4089C19.0155 15.1033 18.5202 15.0574 18.2146 15.3113L15.9093 17.2258L15.9442 17.2869L15.899 17.2326L15.1818 17.8282C13.9557 16.9322 12.8615 15.9131 11.9017 14.7408C10.9257 13.5822 10.0964 12.3015 9.44214 10.917L10.1445 10.32L10.1332 10.3064L10.1497 10.3191L12.4551 8.40447Z" fill="url(#paint1_linear_35394_18246)"/>
<defs>
<linearGradient id="paint0_linear_35394_18246" x1="23.4317" y1="16.3136" x2="19.4215" y2="23.7842" gradientUnits="userSpaceOnUse">
<stop stop-color="#3A8FFC"/>
<stop offset="1" stop-color="#2361E2"/>
</linearGradient>
<linearGradient id="paint1_linear_35394_18246" x1="19.9965" y1="-2.6949" x2="14.0426" y2="30.4888" gradientUnits="userSpaceOnUse">
<stop stop-color="#AC89D7"/>
<stop offset="1" stop-color="#753BBD"/>
</linearGradient>
</defs>
</svg>
