<svg width="24" height="24" viewBox="0 0 24 24" fill="none" xmlns="http://www.w3.org/2000/svg">
<path fill-rule="evenodd" clip-rule="evenodd" d="M9.71117 4.28223H14.2888C15.8469 4.28222 17.0681 4.28221 18.021 4.41235C18.9969 4.54565 19.7655 4.8238 20.3678 5.43567C20.969 6.04645 21.2414 6.82402 21.3721 7.81169C21.5 8.77811 21.5 10.0173 21.5 11.6016V13.9629C21.5 15.5471 21.5 16.7863 21.3721 17.7528C21.2414 18.7404 20.969 19.518 20.3678 20.1288C19.7655 20.7407 18.9969 21.0188 18.021 21.1521C17.0681 21.2822 15.8469 21.2822 14.2889 21.2822H9.71112C8.15306 21.2822 6.93189 21.2822 5.97905 21.1521C5.00309 21.0188 4.2345 20.7407 3.63219 20.1288C3.03095 19.518 2.7586 18.7404 2.62789 17.7528C2.49999 16.7863 2.49999 15.5471 2.5 13.9629V11.6016C2.49999 10.0174 2.49999 8.77811 2.62789 7.81169C2.7586 6.82402 3.03095 6.04645 3.63219 5.43567C4.2345 4.8238 5.00309 4.54565 5.97905 4.41235C6.9319 4.28221 8.15309 4.28222 9.71117 4.28223ZM6.11437 5.40315C5.25221 5.52091 4.73104 5.74486 4.34484 6.13719C3.95756 6.53062 3.73566 7.06327 3.61924 7.9429C3.50103 8.83611 3.5 10.0092 3.5 11.6394V13.9251C3.5 15.5552 3.50103 16.7283 3.61924 17.6216C3.73566 18.5012 3.95756 19.0338 4.34484 19.4273C4.73104 19.8196 5.25221 20.0435 6.11437 20.1613C6.99174 20.2811 8.14466 20.2822 9.75 20.2822H14.25C15.8553 20.2822 17.0083 20.2811 17.8856 20.1613C18.7478 20.0435 19.269 19.8196 19.6552 19.4273C20.0424 19.0338 20.2643 18.5012 20.3808 17.6216C20.499 16.7283 20.5 15.5552 20.5 13.9251V11.6394C20.5 10.0092 20.499 8.83611 20.3808 7.9429C20.2643 7.06327 20.0424 6.53062 19.6552 6.13719C19.269 5.74486 18.7478 5.52091 17.8856 5.40315C17.0083 5.28332 15.8553 5.28223 14.25 5.28223H9.75C8.14466 5.28223 6.99174 5.28332 6.11437 5.40315Z" fill="currentColor"/>
<path fill-rule="evenodd" clip-rule="evenodd" d="M6.5 8.78223C6.5 8.50608 6.72386 8.28223 7 8.28223H10C10.2761 8.28223 10.5 8.50608 10.5 8.78223C10.5 9.05837 10.2761 9.28223 10 9.28223H7C6.72386 9.28223 6.5 9.05837 6.5 8.78223Z" fill="currentColor"/>
<path fill-rule="evenodd" clip-rule="evenodd" d="M19.0329 17.2822C19.022 17.2822 19.011 17.2822 19 17.2822L16.9671 17.2822C16.5238 17.2823 16.1419 17.2823 15.8361 17.2412C15.5083 17.1971 15.1942 17.0977 14.9393 16.8429C14.6845 16.5881 14.5851 16.2739 14.5411 15.9461C14.4999 15.6403 14.5 15.2584 14.5 14.8151V14.7493C14.5 14.3061 14.4999 13.9242 14.5411 13.6183C14.5851 13.2906 14.6845 12.9764 14.9393 12.7216C15.1942 12.4667 15.5083 12.3674 15.8361 12.3233C16.1419 12.2822 16.5238 12.2822 16.9671 12.2822H19.0329C19.4762 12.2822 19.8581 12.2822 20.1639 12.3233C20.4917 12.3674 20.8058 12.4667 21.0607 12.7216C21.3155 12.9764 21.4149 13.2906 21.4589 13.6183C21.5 13.9242 21.5 14.3061 21.5 14.7493C21.5 14.7602 21.5 14.7712 21.5 14.7822C21.5 14.7932 21.5 14.8042 21.5 14.8151C21.5 15.2584 21.5 15.6403 21.4589 15.9461C21.4149 16.2739 21.3155 16.5881 21.0607 16.8429C20.8058 17.0977 20.4917 17.1971 20.1639 17.2412C19.8581 17.2823 19.4762 17.2823 19.0329 17.2822ZM20.0306 16.2501C20.2475 16.2209 20.3155 16.1738 20.3536 16.1358C20.3916 16.0977 20.4387 16.0297 20.4678 15.8129C20.4989 15.5816 20.5 15.2678 20.5 14.7822C20.5 14.2967 20.4989 13.9828 20.4678 13.7516C20.4387 13.5347 20.3916 13.4667 20.3536 13.4287C20.3155 13.3906 20.2475 13.3435 20.0306 13.3144C19.7994 13.2833 19.4855 13.2822 19 13.2822H17C16.5145 13.2822 16.2006 13.2833 15.9693 13.3144C15.7525 13.3435 15.6845 13.3906 15.6464 13.4287C15.6084 13.4667 15.5613 13.5347 15.5322 13.7516C15.5011 13.9828 15.5 14.2967 15.5 14.7822C15.5 15.2678 15.5011 15.5816 15.5322 15.8129C15.5613 16.0297 15.6084 16.0977 15.6464 16.1358C15.6845 16.1738 15.7525 16.2209 15.9693 16.2501C16.2006 16.2812 16.5145 16.2822 17 16.2822H19C19.4855 16.2822 19.7994 16.2812 20.0306 16.2501Z" fill="currentColor"/>
<path fill-rule="evenodd" clip-rule="evenodd" d="M17.0068 4.86443C16.7887 3.55596 15.4835 2.72609 14.2061 3.08376L4.63481 5.76371C4.36889 5.83817 4.09297 5.68296 4.01851 5.41704C3.94406 5.15113 4.23408 4.85668 4.5 4.78223L13.9364 2.12079C15.7867 1.60272 17.6773 2.80476 17.9932 4.70003L17.0068 4.86443Z" fill="currentColor"/>
</svg>
