<svg width="24" height="22" viewBox="0 0 24 22" fill="none" xmlns="http://www.w3.org/2000/svg">
<path d="M14.25 3.66663H9.75C6.56802 3.66663 4.97703 3.66663 3.98851 4.58715C3 5.50767 3 6.98923 3 9.95234V12.0476C3 15.0107 3 16.4923 3.98851 17.4128C4.97703 18.3333 6.56802 18.3333 9.75 18.3333H14.25C17.432 18.3333 19.023 18.3333 20.0115 17.4128C21 16.4923 21 15.0107 21 12.0476V9.95234C21 6.98923 21 5.50767 20.0115 4.58715C19.023 3.66663 17.432 3.66663 14.25 3.66663Z" stroke="currentColor"/>
<path d="M7 7.33337H10" stroke="currentColor" stroke-linecap="round"/>
<path d="M19.1667 14.6666H16.8333C16.0515 14.6666 15.6605 14.6666 15.3912 14.46C15.3219 14.4068 15.2598 14.3447 15.2066 14.2754C15 14.0061 15 13.6152 15 12.8333C15 12.0514 15 11.6605 15.2066 11.3912C15.2598 11.3219 15.3219 11.2598 15.3912 11.2066C15.6605 11 16.0515 11 16.8333 11H19.1667C19.9485 11 20.3395 11 20.6088 11.2066C20.6781 11.2598 20.7402 11.3219 20.7934 11.3912C21 11.6605 21 12.0514 21 12.8333C21 13.6152 21 14.0061 20.7934 14.2754C20.7402 14.3447 20.6781 14.4068 20.6088 14.46C20.3395 14.6666 19.9485 14.6666 19.1667 14.6666Z" stroke="currentColor"/>
</svg>
