<svg width="24" height="22" viewBox="0 0 24 22" fill="none" xmlns="http://www.w3.org/2000/svg">
<path d="M3.00001 5.95833V5.95833C3.00001 4.69268 4.02602 3.66667 5.29167 3.66667L19.3452 3.66667C19.4891 3.66667 19.5611 3.66667 19.6204 3.68137C19.8002 3.72598 19.9407 3.86643 19.9853 4.04631C20 4.10559 20 4.17754 20 4.32143V4.32143C20 5.18478 20 5.61646 19.9118 5.97214C19.6441 7.05142 18.8014 7.89412 17.7221 8.16179C17.3665 8.25 16.9348 8.25 16.0714 8.25H15M3.00001 5.95833V5.95833C3.00001 7.22399 4.02602 8.25 5.29167 8.25L19 8.25C19.9428 8.25 20.4142 8.25 20.7071 8.54289C21 8.83579 21 9.30719 21 10.25L21 11.9167M3.00001 5.95833L3.00001 15.25C3.00001 17.1356 3.00001 18.0784 3.58579 18.6642C4.17158 19.25 5.11439 19.25 7.00001 19.25L19 19.25C19.9428 19.25 20.4142 19.25 20.7071 18.9571C21 18.6642 21 18.1928 21 17.25L21 15.5833M21 15.5833H16.8333C16.0515 15.5833 15.6605 15.5833 15.3912 15.3767C15.3219 15.3235 15.2598 15.2614 15.2066 15.1921C15 14.9228 15 14.5319 15 13.75V13.75C15 12.9681 15 12.5772 15.2066 12.3079C15.2598 12.2386 15.3219 12.1765 15.3912 12.1233C15.6605 11.9167 16.0515 11.9167 16.8333 11.9167H21M21 15.5833L21 11.9167" stroke="currentColor"/>
</svg>
