<svg xmlns="http://www.w3.org/2000/svg" width="24" height="24" viewBox="0 0 24 24" fill="none">
  <path fill-rule="evenodd" clip-rule="evenodd" d="M21 12C21 16.9706 16.9706 21 12 21C7.02944 21 3 16.9706 3 12C3 7.02944 7.02944 3 12 3C16.9706 3 21 7.02944 21 12ZM12 7C12.5523 7 13 7.44772 13 8V13C13 13.5523 12.5523 14 12 14C11.4477 14 11 13.5523 11 13V8C11 7.44772 11.4477 7 12 7ZM13 16.5C13 15.9477 12.5523 15.5 12 15.5C11.4477 15.5 11 15.9477 11 16.5V17C11 17.5523 11.4477 18 12 18C12.5523 18 13 17.5523 13 17V16.5Z" fill="currentColor"/>
</svg>