<svg width="24" height="25" viewBox="0 0 24 25" fill="none" xmlns="http://www.w3.org/2000/svg">
<path fill-rule="evenodd" clip-rule="evenodd" d="M13.5 13.8252L6.70001 20.6252C5.80001 21.5252 4.40001 21.5252 3.50001 20.6252V20.6252C2.60001 19.7252 2.60001 18.3252 3.50001 17.4252L10.3 10.6252C9.50001 8.62521 10 6.32521 11.6 4.72521C13.3 3.02521 15.8 2.72521 17.8 3.52521C17.9 3.52521 17.9 3.62521 17.8 3.72521L14.2 7.32521L15.5 8.62521L16.8 9.92521V9.92521L20.5 6.32521C20.5 6.32521 20.6 6.32521 20.7 6.32521C21.7 8.32521 21.2 10.8252 19.5 12.5252C17.8 14.1252 15.5 14.5252 13.5 13.8252Z" stroke="currentColor" stroke-linecap="round" stroke-linejoin="round"/>
</svg>
